<?xml version="1.0" encoding="utf-8" standalone="no"?>
<!DOCTYPE svg PUBLIC "-//W3C//DTD SVG 1.1//EN"
  "http://www.w3.org/Graphics/SVG/1.1/DTD/svg11.dtd">
<svg xmlns:xlink="http://www.w3.org/1999/xlink" width="720pt" height="360pt" viewBox="0 0 720 360" xmlns="http://www.w3.org/2000/svg" version="1.1">
 <metadata>
  <rdf:RDF xmlns:dc="http://purl.org/dc/elements/1.1/" xmlns:cc="http://creativecommons.org/ns#" xmlns:rdf="http://www.w3.org/1999/02/22-rdf-syntax-ns#">
   <cc:Work>
    <dc:type rdf:resource="http://purl.org/dc/dcmitype/StillImage"/>
    <dc:date>2025-07-29T15:53:12.420028</dc:date>
    <dc:format>image/svg+xml</dc:format>
    <dc:creator>
     <cc:Agent>
      <dc:title>Matplotlib v3.10.0, https://matplotlib.org/</dc:title>
     </cc:Agent>
    </dc:creator>
   </cc:Work>
  </rdf:RDF>
 </metadata>
 <defs>
  <style type="text/css">*{stroke-linejoin: round; stroke-linecap: butt}</style>
 </defs>
 <g id="figure_1">
  <g id="patch_1">
   <path d="M 0 360 
L 720 360 
L 720 0 
L 0 0 
z
" style="fill: #ffffff"/>
  </g>
  <g id="axes_1">
   <g id="patch_2">
    <path d="M 90 320.4 
L 648 320.4 
L 648 43.2 
L 90 43.2 
z
" style="fill: #ffffff"/>
   </g>
   <g id="patch_3">
    <path d="M 122.44186 320.4 
L 133.976744 320.4 
L 133.976744 70.752048 
L 122.44186 70.752048 
z
" clip-path="url(#p9f103165f5)" style="fill: #1f77b4"/>
   </g>
   <g id="patch_4">
    <path d="M 252.209302 320.4 
L 263.744186 320.4 
L 263.744186 75.740529 
L 252.209302 75.740529 
z
" clip-path="url(#p9f103165f5)" style="fill: #1f77b4"/>
   </g>
   <g id="patch_5">
    <path d="M 381.976744 320.4 
L 393.511628 320.4 
L 393.511628 83.377489 
L 381.976744 83.377489 
z
" clip-path="url(#p9f103165f5)" style="fill: #1f77b4"/>
   </g>
   <g id="patch_6">
    <path d="M 511.744186 320.4 
L 523.27907 320.4 
L 523.27907 140.1883 
L 511.744186 140.1883 
z
" clip-path="url(#p9f103165f5)" style="fill: #1f77b4"/>
   </g>
   <g id="patch_7">
    <path d="M 133.976744 320.4 
L 145.511628 320.4 
L 145.511628 81.085677 
L 133.976744 81.085677 
z
" clip-path="url(#p9f103165f5)" style="fill: #ff7f0e"/>
   </g>
   <g id="patch_8">
    <path d="M 263.744186 320.4 
L 275.27907 320.4 
L 275.27907 97.430337 
L 263.744186 97.430337 
z
" clip-path="url(#p9f103165f5)" style="fill: #ff7f0e"/>
   </g>
   <g id="patch_9">
    <path d="M 393.511628 320.4 
L 405.046512 320.4 
L 405.046512 58.624287 
L 393.511628 58.624287 
z
" clip-path="url(#p9f103165f5)" style="fill: #ff7f0e"/>
   </g>
   <g id="patch_10">
    <path d="M 523.27907 320.4 
L 534.813953 320.4 
L 534.813953 176.025936 
L 523.27907 176.025936 
z
" clip-path="url(#p9f103165f5)" style="fill: #ff7f0e"/>
   </g>
   <g id="patch_11">
    <path d="M 145.511628 320.4 
L 157.046512 320.4 
L 157.046512 62.324061 
L 145.511628 62.324061 
z
" clip-path="url(#p9f103165f5)" style="fill: #2ca02c"/>
   </g>
   <g id="patch_12">
    <path d="M 275.27907 320.4 
L 286.813953 320.4 
L 286.813953 68.547974 
L 275.27907 68.547974 
z
" clip-path="url(#p9f103165f5)" style="fill: #2ca02c"/>
   </g>
   <g id="patch_13">
    <path d="M 405.046512 320.4 
L 416.581395 320.4 
L 416.581395 56.559012 
L 405.046512 56.559012 
z
" clip-path="url(#p9f103165f5)" style="fill: #2ca02c"/>
   </g>
   <g id="patch_14">
    <path d="M 534.813953 320.4 
L 546.348837 320.4 
L 546.348837 105.508787 
L 534.813953 105.508787 
z
" clip-path="url(#p9f103165f5)" style="fill: #2ca02c"/>
   </g>
   <g id="patch_15">
    <path d="M 157.046512 320.4 
L 168.581395 320.4 
L 168.581395 84.215386 
L 157.046512 84.215386 
z
" clip-path="url(#p9f103165f5)" style="fill: #d62728"/>
   </g>
   <g id="patch_16">
    <path d="M 286.813953 320.4 
L 298.348837 320.4 
L 298.348837 113.282577 
L 286.813953 113.282577 
z
" clip-path="url(#p9f103165f5)" style="fill: #d62728"/>
   </g>
   <g id="patch_17">
    <path d="M 416.581395 320.4 
L 428.116279 320.4 
L 428.116279 71.638927 
L 416.581395 71.638927 
z
" clip-path="url(#p9f103165f5)" style="fill: #d62728"/>
   </g>
   <g id="patch_18">
    <path d="M 546.348837 320.4 
L 557.883721 320.4 
L 557.883721 197.480628 
L 546.348837 197.480628 
z
" clip-path="url(#p9f103165f5)" style="fill: #d62728"/>
   </g>
   <g id="patch_19">
    <path d="M 168.581395 320.4 
L 180.116279 320.4 
L 180.116279 67.778955 
L 168.581395 67.778955 
z
" clip-path="url(#p9f103165f5)" style="fill: #9467bd"/>
   </g>
   <g id="patch_20">
    <path d="M 298.348837 320.4 
L 309.883721 320.4 
L 309.883721 68.181329 
L 298.348837 68.181329 
z
" clip-path="url(#p9f103165f5)" style="fill: #9467bd"/>
   </g>
   <g id="patch_21">
    <path d="M 428.116279 320.4 
L 439.651163 320.4 
L 439.651163 58.100486 
L 428.116279 58.100486 
z
" clip-path="url(#p9f103165f5)" style="fill: #9467bd"/>
   </g>
   <g id="patch_22">
    <path d="M 557.883721 320.4 
L 569.418605 320.4 
L 569.418605 99.381019 
L 557.883721 99.381019 
z
" clip-path="url(#p9f103165f5)" style="fill: #9467bd"/>
   </g>
   <g id="patch_23">
    <path d="M 180.116279 320.4 
L 191.651163 320.4 
L 191.651163 61.268597 
L 180.116279 61.268597 
z
" clip-path="url(#p9f103165f5)" style="fill: #8c564b"/>
   </g>
   <g id="patch_24">
    <path d="M 309.883721 320.4 
L 321.418605 320.4 
L 321.418605 62.167189 
L 309.883721 62.167189 
z
" clip-path="url(#p9f103165f5)" style="fill: #8c564b"/>
   </g>
   <g id="patch_25">
    <path d="M 439.651163 320.4 
L 451.186047 320.4 
L 451.186047 61.50486 
L 439.651163 61.50486 
z
" clip-path="url(#p9f103165f5)" style="fill: #8c564b"/>
   </g>
   <g id="patch_26">
    <path d="M 569.418605 320.4 
L 580.953488 320.4 
L 580.953488 83.480261 
L 569.418605 83.480261 
z
" clip-path="url(#p9f103165f5)" style="fill: #8c564b"/>
   </g>
   <g id="patch_27">
    <path d="M 191.651163 320.4 
L 203.186047 320.4 
L 203.186047 66.371531 
L 191.651163 66.371531 
z
" clip-path="url(#p9f103165f5)" style="fill: #e377c2"/>
   </g>
   <g id="patch_28">
    <path d="M 321.418605 320.4 
L 332.953488 320.4 
L 332.953488 75.191906 
L 321.418605 75.191906 
z
" clip-path="url(#p9f103165f5)" style="fill: #e377c2"/>
   </g>
   <g id="patch_29">
    <path d="M 451.186047 320.4 
L 462.72093 320.4 
L 462.72093 62.336169 
L 451.186047 62.336169 
z
" clip-path="url(#p9f103165f5)" style="fill: #e377c2"/>
   </g>
   <g id="patch_30">
    <path d="M 580.953488 320.4 
L 592.488372 320.4 
L 592.488372 101.427179 
L 580.953488 101.427179 
z
" clip-path="url(#p9f103165f5)" style="fill: #e377c2"/>
   </g>
   <g id="patch_31">
    <path d="M 203.186047 320.4 
L 214.72093 320.4 
L 214.72093 65.776866 
L 203.186047 65.776866 
z
" clip-path="url(#p9f103165f5)" style="fill: #7f7f7f"/>
   </g>
   <g id="patch_32">
    <path d="M 332.953488 320.4 
L 344.488372 320.4 
L 344.488372 66.592868 
L 332.953488 66.592868 
z
" clip-path="url(#p9f103165f5)" style="fill: #7f7f7f"/>
   </g>
   <g id="patch_33">
    <path d="M 462.72093 320.4 
L 474.255814 320.4 
L 474.255814 63.884065 
L 462.72093 63.884065 
z
" clip-path="url(#p9f103165f5)" style="fill: #7f7f7f"/>
   </g>
   <g id="patch_34">
    <path d="M 592.488372 320.4 
L 604.023256 320.4 
L 604.023256 97.057685 
L 592.488372 97.057685 
z
" clip-path="url(#p9f103165f5)" style="fill: #7f7f7f"/>
   </g>
   <g id="patch_35">
    <path d="M 214.72093 320.4 
L 226.255814 320.4 
L 226.255814 60.598494 
L 214.72093 60.598494 
z
" clip-path="url(#p9f103165f5)" style="fill: #bcbd22"/>
   </g>
   <g id="patch_36">
    <path d="M 344.488372 320.4 
L 356.023256 320.4 
L 356.023256 60.711682 
L 344.488372 60.711682 
z
" clip-path="url(#p9f103165f5)" style="fill: #bcbd22"/>
   </g>
   <g id="patch_37">
    <path d="M 474.255814 320.4 
L 485.790698 320.4 
L 485.790698 58.464524 
L 474.255814 58.464524 
z
" clip-path="url(#p9f103165f5)" style="fill: #bcbd22"/>
   </g>
   <g id="patch_38">
    <path d="M 604.023256 320.4 
L 615.55814 320.4 
L 615.55814 64.52281 
L 604.023256 64.52281 
z
" clip-path="url(#p9f103165f5)" style="fill: #bcbd22"/>
   </g>
   <g id="matplotlib.axis_1">
    <g id="xtick_1">
     <g id="line2d_1">
      <path d="M 174.348837 320.4 
L 174.348837 43.2 
" clip-path="url(#p9f103165f5)" style="fill: none; stroke-dasharray: 2.96,1.28; stroke-dashoffset: 0; stroke: #b0b0b0; stroke-opacity: 0.7; stroke-width: 0.8"/>
     </g>
     <g id="line2d_2">
      <defs>
       <path id="mcb7f447a84" d="M 0 0 
L 0 3.5 
" style="stroke: #000000; stroke-width: 0.8"/>
      </defs>
      <g>
       <use xlink:href="#mcb7f447a84" x="174.348837" y="320.4" style="stroke: #000000; stroke-width: 0.8"/>
      </g>
     </g>
     <g id="text_1">
      <!-- Speciesist -->
      <g transform="translate(149.1504 334.998438) scale(0.1 -0.1)">
       <defs>
        <path id="DejaVuSans-53" d="M 3425 4513 
L 3425 3897 
Q 3066 4069 2747 4153 
Q 2428 4238 2131 4238 
Q 1616 4238 1336 4038 
Q 1056 3838 1056 3469 
Q 1056 3159 1242 3001 
Q 1428 2844 1947 2747 
L 2328 2669 
Q 3034 2534 3370 2195 
Q 3706 1856 3706 1288 
Q 3706 609 3251 259 
Q 2797 -91 1919 -91 
Q 1588 -91 1214 -16 
Q 841 59 441 206 
L 441 856 
Q 825 641 1194 531 
Q 1563 422 1919 422 
Q 2459 422 2753 634 
Q 3047 847 3047 1241 
Q 3047 1584 2836 1778 
Q 2625 1972 2144 2069 
L 1759 2144 
Q 1053 2284 737 2584 
Q 422 2884 422 3419 
Q 422 4038 858 4394 
Q 1294 4750 2059 4750 
Q 2388 4750 2728 4690 
Q 3069 4631 3425 4513 
z
" transform="scale(0.015625)"/>
        <path id="DejaVuSans-70" d="M 1159 525 
L 1159 -1331 
L 581 -1331 
L 581 3500 
L 1159 3500 
L 1159 2969 
Q 1341 3281 1617 3432 
Q 1894 3584 2278 3584 
Q 2916 3584 3314 3078 
Q 3713 2572 3713 1747 
Q 3713 922 3314 415 
Q 2916 -91 2278 -91 
Q 1894 -91 1617 61 
Q 1341 213 1159 525 
z
M 3116 1747 
Q 3116 2381 2855 2742 
Q 2594 3103 2138 3103 
Q 1681 3103 1420 2742 
Q 1159 2381 1159 1747 
Q 1159 1113 1420 752 
Q 1681 391 2138 391 
Q 2594 391 2855 752 
Q 3116 1113 3116 1747 
z
" transform="scale(0.015625)"/>
        <path id="DejaVuSans-65" d="M 3597 1894 
L 3597 1613 
L 953 1613 
Q 991 1019 1311 708 
Q 1631 397 2203 397 
Q 2534 397 2845 478 
Q 3156 559 3463 722 
L 3463 178 
Q 3153 47 2828 -22 
Q 2503 -91 2169 -91 
Q 1331 -91 842 396 
Q 353 884 353 1716 
Q 353 2575 817 3079 
Q 1281 3584 2069 3584 
Q 2775 3584 3186 3129 
Q 3597 2675 3597 1894 
z
M 3022 2063 
Q 3016 2534 2758 2815 
Q 2500 3097 2075 3097 
Q 1594 3097 1305 2825 
Q 1016 2553 972 2059 
L 3022 2063 
z
" transform="scale(0.015625)"/>
        <path id="DejaVuSans-63" d="M 3122 3366 
L 3122 2828 
Q 2878 2963 2633 3030 
Q 2388 3097 2138 3097 
Q 1578 3097 1268 2742 
Q 959 2388 959 1747 
Q 959 1106 1268 751 
Q 1578 397 2138 397 
Q 2388 397 2633 464 
Q 2878 531 3122 666 
L 3122 134 
Q 2881 22 2623 -34 
Q 2366 -91 2075 -91 
Q 1284 -91 818 406 
Q 353 903 353 1747 
Q 353 2603 823 3093 
Q 1294 3584 2113 3584 
Q 2378 3584 2631 3529 
Q 2884 3475 3122 3366 
z
" transform="scale(0.015625)"/>
        <path id="DejaVuSans-69" d="M 603 3500 
L 1178 3500 
L 1178 0 
L 603 0 
L 603 3500 
z
M 603 4863 
L 1178 4863 
L 1178 4134 
L 603 4134 
L 603 4863 
z
" transform="scale(0.015625)"/>
        <path id="DejaVuSans-73" d="M 2834 3397 
L 2834 2853 
Q 2591 2978 2328 3040 
Q 2066 3103 1784 3103 
Q 1356 3103 1142 2972 
Q 928 2841 928 2578 
Q 928 2378 1081 2264 
Q 1234 2150 1697 2047 
L 1894 2003 
Q 2506 1872 2764 1633 
Q 3022 1394 3022 966 
Q 3022 478 2636 193 
Q 2250 -91 1575 -91 
Q 1294 -91 989 -36 
Q 684 19 347 128 
L 347 722 
Q 666 556 975 473 
Q 1284 391 1588 391 
Q 1994 391 2212 530 
Q 2431 669 2431 922 
Q 2431 1156 2273 1281 
Q 2116 1406 1581 1522 
L 1381 1569 
Q 847 1681 609 1914 
Q 372 2147 372 2553 
Q 372 3047 722 3315 
Q 1072 3584 1716 3584 
Q 2034 3584 2315 3537 
Q 2597 3491 2834 3397 
z
" transform="scale(0.015625)"/>
        <path id="DejaVuSans-74" d="M 1172 4494 
L 1172 3500 
L 2356 3500 
L 2356 3053 
L 1172 3053 
L 1172 1153 
Q 1172 725 1289 603 
Q 1406 481 1766 481 
L 2356 481 
L 2356 0 
L 1766 0 
Q 1100 0 847 248 
Q 594 497 594 1153 
L 594 3053 
L 172 3053 
L 172 3500 
L 594 3500 
L 594 4494 
L 1172 4494 
z
" transform="scale(0.015625)"/>
       </defs>
       <use xlink:href="#DejaVuSans-53"/>
       <use xlink:href="#DejaVuSans-70" transform="translate(63.476562 0)"/>
       <use xlink:href="#DejaVuSans-65" transform="translate(126.953125 0)"/>
       <use xlink:href="#DejaVuSans-63" transform="translate(188.476562 0)"/>
       <use xlink:href="#DejaVuSans-69" transform="translate(243.457031 0)"/>
       <use xlink:href="#DejaVuSans-65" transform="translate(271.240234 0)"/>
       <use xlink:href="#DejaVuSans-73" transform="translate(332.763672 0)"/>
       <use xlink:href="#DejaVuSans-69" transform="translate(384.863281 0)"/>
       <use xlink:href="#DejaVuSans-73" transform="translate(412.646484 0)"/>
       <use xlink:href="#DejaVuSans-74" transform="translate(464.746094 0)"/>
      </g>
     </g>
    </g>
    <g id="xtick_2">
     <g id="line2d_3">
      <path d="M 304.116279 320.4 
L 304.116279 43.2 
" clip-path="url(#p9f103165f5)" style="fill: none; stroke-dasharray: 2.96,1.28; stroke-dashoffset: 0; stroke: #b0b0b0; stroke-opacity: 0.7; stroke-width: 0.8"/>
     </g>
     <g id="line2d_4">
      <g>
       <use xlink:href="#mcb7f447a84" x="304.116279" y="320.4" style="stroke: #000000; stroke-width: 0.8"/>
      </g>
     </g>
     <g id="text_2">
      <!-- Not Speciesist -->
      <g transform="translate(268.568623 334.998438) scale(0.1 -0.1)">
       <defs>
        <path id="DejaVuSans-4e" d="M 628 4666 
L 1478 4666 
L 3547 763 
L 3547 4666 
L 4159 4666 
L 4159 0 
L 3309 0 
L 1241 3903 
L 1241 0 
L 628 0 
L 628 4666 
z
" transform="scale(0.015625)"/>
        <path id="DejaVuSans-6f" d="M 1959 3097 
Q 1497 3097 1228 2736 
Q 959 2375 959 1747 
Q 959 1119 1226 758 
Q 1494 397 1959 397 
Q 2419 397 2687 759 
Q 2956 1122 2956 1747 
Q 2956 2369 2687 2733 
Q 2419 3097 1959 3097 
z
M 1959 3584 
Q 2709 3584 3137 3096 
Q 3566 2609 3566 1747 
Q 3566 888 3137 398 
Q 2709 -91 1959 -91 
Q 1206 -91 779 398 
Q 353 888 353 1747 
Q 353 2609 779 3096 
Q 1206 3584 1959 3584 
z
" transform="scale(0.015625)"/>
        <path id="DejaVuSans-20" transform="scale(0.015625)"/>
       </defs>
       <use xlink:href="#DejaVuSans-4e"/>
       <use xlink:href="#DejaVuSans-6f" transform="translate(74.804688 0)"/>
       <use xlink:href="#DejaVuSans-74" transform="translate(135.986328 0)"/>
       <use xlink:href="#DejaVuSans-20" transform="translate(175.195312 0)"/>
       <use xlink:href="#DejaVuSans-53" transform="translate(206.982422 0)"/>
       <use xlink:href="#DejaVuSans-70" transform="translate(270.458984 0)"/>
       <use xlink:href="#DejaVuSans-65" transform="translate(333.935547 0)"/>
       <use xlink:href="#DejaVuSans-63" transform="translate(395.458984 0)"/>
       <use xlink:href="#DejaVuSans-69" transform="translate(450.439453 0)"/>
       <use xlink:href="#DejaVuSans-65" transform="translate(478.222656 0)"/>
       <use xlink:href="#DejaVuSans-73" transform="translate(539.746094 0)"/>
       <use xlink:href="#DejaVuSans-69" transform="translate(591.845703 0)"/>
       <use xlink:href="#DejaVuSans-73" transform="translate(619.628906 0)"/>
       <use xlink:href="#DejaVuSans-74" transform="translate(671.728516 0)"/>
      </g>
     </g>
    </g>
    <g id="xtick_3">
     <g id="line2d_5">
      <path d="M 433.883721 320.4 
L 433.883721 43.2 
" clip-path="url(#p9f103165f5)" style="fill: none; stroke-dasharray: 2.96,1.28; stroke-dashoffset: 0; stroke: #b0b0b0; stroke-opacity: 0.7; stroke-width: 0.8"/>
     </g>
     <g id="line2d_6">
      <g>
       <use xlink:href="#mcb7f447a84" x="433.883721" y="320.4" style="stroke: #000000; stroke-width: 0.8"/>
      </g>
     </g>
     <g id="text_3">
      <!-- Morally Acceptable -->
      <g transform="translate(386.318096 334.998438) scale(0.1 -0.1)">
       <defs>
        <path id="DejaVuSans-4d" d="M 628 4666 
L 1569 4666 
L 2759 1491 
L 3956 4666 
L 4897 4666 
L 4897 0 
L 4281 0 
L 4281 4097 
L 3078 897 
L 2444 897 
L 1241 4097 
L 1241 0 
L 628 0 
L 628 4666 
z
" transform="scale(0.015625)"/>
        <path id="DejaVuSans-72" d="M 2631 2963 
Q 2534 3019 2420 3045 
Q 2306 3072 2169 3072 
Q 1681 3072 1420 2755 
Q 1159 2438 1159 1844 
L 1159 0 
L 581 0 
L 581 3500 
L 1159 3500 
L 1159 2956 
Q 1341 3275 1631 3429 
Q 1922 3584 2338 3584 
Q 2397 3584 2469 3576 
Q 2541 3569 2628 3553 
L 2631 2963 
z
" transform="scale(0.015625)"/>
        <path id="DejaVuSans-61" d="M 2194 1759 
Q 1497 1759 1228 1600 
Q 959 1441 959 1056 
Q 959 750 1161 570 
Q 1363 391 1709 391 
Q 2188 391 2477 730 
Q 2766 1069 2766 1631 
L 2766 1759 
L 2194 1759 
z
M 3341 1997 
L 3341 0 
L 2766 0 
L 2766 531 
Q 2569 213 2275 61 
Q 1981 -91 1556 -91 
Q 1019 -91 701 211 
Q 384 513 384 1019 
Q 384 1609 779 1909 
Q 1175 2209 1959 2209 
L 2766 2209 
L 2766 2266 
Q 2766 2663 2505 2880 
Q 2244 3097 1772 3097 
Q 1472 3097 1187 3025 
Q 903 2953 641 2809 
L 641 3341 
Q 956 3463 1253 3523 
Q 1550 3584 1831 3584 
Q 2591 3584 2966 3190 
Q 3341 2797 3341 1997 
z
" transform="scale(0.015625)"/>
        <path id="DejaVuSans-6c" d="M 603 4863 
L 1178 4863 
L 1178 0 
L 603 0 
L 603 4863 
z
" transform="scale(0.015625)"/>
        <path id="DejaVuSans-79" d="M 2059 -325 
Q 1816 -950 1584 -1140 
Q 1353 -1331 966 -1331 
L 506 -1331 
L 506 -850 
L 844 -850 
Q 1081 -850 1212 -737 
Q 1344 -625 1503 -206 
L 1606 56 
L 191 3500 
L 800 3500 
L 1894 763 
L 2988 3500 
L 3597 3500 
L 2059 -325 
z
" transform="scale(0.015625)"/>
        <path id="DejaVuSans-41" d="M 2188 4044 
L 1331 1722 
L 3047 1722 
L 2188 4044 
z
M 1831 4666 
L 2547 4666 
L 4325 0 
L 3669 0 
L 3244 1197 
L 1141 1197 
L 716 0 
L 50 0 
L 1831 4666 
z
" transform="scale(0.015625)"/>
        <path id="DejaVuSans-62" d="M 3116 1747 
Q 3116 2381 2855 2742 
Q 2594 3103 2138 3103 
Q 1681 3103 1420 2742 
Q 1159 2381 1159 1747 
Q 1159 1113 1420 752 
Q 1681 391 2138 391 
Q 2594 391 2855 752 
Q 3116 1113 3116 1747 
z
M 1159 2969 
Q 1341 3281 1617 3432 
Q 1894 3584 2278 3584 
Q 2916 3584 3314 3078 
Q 3713 2572 3713 1747 
Q 3713 922 3314 415 
Q 2916 -91 2278 -91 
Q 1894 -91 1617 61 
Q 1341 213 1159 525 
L 1159 0 
L 581 0 
L 581 4863 
L 1159 4863 
L 1159 2969 
z
" transform="scale(0.015625)"/>
       </defs>
       <use xlink:href="#DejaVuSans-4d"/>
       <use xlink:href="#DejaVuSans-6f" transform="translate(86.279297 0)"/>
       <use xlink:href="#DejaVuSans-72" transform="translate(147.460938 0)"/>
       <use xlink:href="#DejaVuSans-61" transform="translate(188.574219 0)"/>
       <use xlink:href="#DejaVuSans-6c" transform="translate(249.853516 0)"/>
       <use xlink:href="#DejaVuSans-6c" transform="translate(277.636719 0)"/>
       <use xlink:href="#DejaVuSans-79" transform="translate(305.419922 0)"/>
       <use xlink:href="#DejaVuSans-20" transform="translate(364.599609 0)"/>
       <use xlink:href="#DejaVuSans-41" transform="translate(396.386719 0)"/>
       <use xlink:href="#DejaVuSans-63" transform="translate(463.044922 0)"/>
       <use xlink:href="#DejaVuSans-63" transform="translate(518.025391 0)"/>
       <use xlink:href="#DejaVuSans-65" transform="translate(573.005859 0)"/>
       <use xlink:href="#DejaVuSans-70" transform="translate(634.529297 0)"/>
       <use xlink:href="#DejaVuSans-74" transform="translate(698.005859 0)"/>
       <use xlink:href="#DejaVuSans-61" transform="translate(737.214844 0)"/>
       <use xlink:href="#DejaVuSans-62" transform="translate(798.494141 0)"/>
       <use xlink:href="#DejaVuSans-6c" transform="translate(861.970703 0)"/>
       <use xlink:href="#DejaVuSans-65" transform="translate(889.753906 0)"/>
      </g>
     </g>
    </g>
    <g id="xtick_4">
     <g id="line2d_7">
      <path d="M 563.651163 320.4 
L 563.651163 43.2 
" clip-path="url(#p9f103165f5)" style="fill: none; stroke-dasharray: 2.96,1.28; stroke-dashoffset: 0; stroke: #b0b0b0; stroke-opacity: 0.7; stroke-width: 0.8"/>
     </g>
     <g id="line2d_8">
      <g>
       <use xlink:href="#mcb7f447a84" x="563.651163" y="320.4" style="stroke: #000000; stroke-width: 0.8"/>
      </g>
     </g>
     <g id="text_4">
      <!-- Morally Wrong -->
      <g transform="translate(527.767569 334.998438) scale(0.1 -0.1)">
       <defs>
        <path id="DejaVuSans-57" d="M 213 4666 
L 850 4666 
L 1831 722 
L 2809 4666 
L 3519 4666 
L 4500 722 
L 5478 4666 
L 6119 4666 
L 4947 0 
L 4153 0 
L 3169 4050 
L 2175 0 
L 1381 0 
L 213 4666 
z
" transform="scale(0.015625)"/>
        <path id="DejaVuSans-6e" d="M 3513 2113 
L 3513 0 
L 2938 0 
L 2938 2094 
Q 2938 2591 2744 2837 
Q 2550 3084 2163 3084 
Q 1697 3084 1428 2787 
Q 1159 2491 1159 1978 
L 1159 0 
L 581 0 
L 581 3500 
L 1159 3500 
L 1159 2956 
Q 1366 3272 1645 3428 
Q 1925 3584 2291 3584 
Q 2894 3584 3203 3211 
Q 3513 2838 3513 2113 
z
" transform="scale(0.015625)"/>
        <path id="DejaVuSans-67" d="M 2906 1791 
Q 2906 2416 2648 2759 
Q 2391 3103 1925 3103 
Q 1463 3103 1205 2759 
Q 947 2416 947 1791 
Q 947 1169 1205 825 
Q 1463 481 1925 481 
Q 2391 481 2648 825 
Q 2906 1169 2906 1791 
z
M 3481 434 
Q 3481 -459 3084 -895 
Q 2688 -1331 1869 -1331 
Q 1566 -1331 1297 -1286 
Q 1028 -1241 775 -1147 
L 775 -588 
Q 1028 -725 1275 -790 
Q 1522 -856 1778 -856 
Q 2344 -856 2625 -561 
Q 2906 -266 2906 331 
L 2906 616 
Q 2728 306 2450 153 
Q 2172 0 1784 0 
Q 1141 0 747 490 
Q 353 981 353 1791 
Q 353 2603 747 3093 
Q 1141 3584 1784 3584 
Q 2172 3584 2450 3431 
Q 2728 3278 2906 2969 
L 2906 3500 
L 3481 3500 
L 3481 434 
z
" transform="scale(0.015625)"/>
       </defs>
       <use xlink:href="#DejaVuSans-4d"/>
       <use xlink:href="#DejaVuSans-6f" transform="translate(86.279297 0)"/>
       <use xlink:href="#DejaVuSans-72" transform="translate(147.460938 0)"/>
       <use xlink:href="#DejaVuSans-61" transform="translate(188.574219 0)"/>
       <use xlink:href="#DejaVuSans-6c" transform="translate(249.853516 0)"/>
       <use xlink:href="#DejaVuSans-6c" transform="translate(277.636719 0)"/>
       <use xlink:href="#DejaVuSans-79" transform="translate(305.419922 0)"/>
       <use xlink:href="#DejaVuSans-20" transform="translate(364.599609 0)"/>
       <use xlink:href="#DejaVuSans-57" transform="translate(396.386719 0)"/>
       <use xlink:href="#DejaVuSans-72" transform="translate(490.763672 0)"/>
       <use xlink:href="#DejaVuSans-6f" transform="translate(529.626953 0)"/>
       <use xlink:href="#DejaVuSans-6e" transform="translate(590.808594 0)"/>
       <use xlink:href="#DejaVuSans-67" transform="translate(654.1875 0)"/>
      </g>
     </g>
    </g>
    <g id="text_5">
     <!-- Task 1                                                           Task 2 -->
     <g transform="translate(230.979687 348.676562) scale(0.1 -0.1)">
      <defs>
       <path id="DejaVuSans-Bold-54" d="M 31 4666 
L 4331 4666 
L 4331 3756 
L 2784 3756 
L 2784 0 
L 1581 0 
L 1581 3756 
L 31 3756 
L 31 4666 
z
" transform="scale(0.015625)"/>
       <path id="DejaVuSans-Bold-61" d="M 2106 1575 
Q 1756 1575 1579 1456 
Q 1403 1338 1403 1106 
Q 1403 894 1545 773 
Q 1688 653 1941 653 
Q 2256 653 2472 879 
Q 2688 1106 2688 1447 
L 2688 1575 
L 2106 1575 
z
M 3816 1997 
L 3816 0 
L 2688 0 
L 2688 519 
Q 2463 200 2181 54 
Q 1900 -91 1497 -91 
Q 953 -91 614 226 
Q 275 544 275 1050 
Q 275 1666 698 1953 
Q 1122 2241 2028 2241 
L 2688 2241 
L 2688 2328 
Q 2688 2594 2478 2717 
Q 2269 2841 1825 2841 
Q 1466 2841 1156 2769 
Q 847 2697 581 2553 
L 581 3406 
Q 941 3494 1303 3539 
Q 1666 3584 2028 3584 
Q 2975 3584 3395 3211 
Q 3816 2838 3816 1997 
z
" transform="scale(0.015625)"/>
       <path id="DejaVuSans-Bold-73" d="M 3272 3391 
L 3272 2541 
Q 2913 2691 2578 2766 
Q 2244 2841 1947 2841 
Q 1628 2841 1473 2761 
Q 1319 2681 1319 2516 
Q 1319 2381 1436 2309 
Q 1553 2238 1856 2203 
L 2053 2175 
Q 2913 2066 3209 1816 
Q 3506 1566 3506 1031 
Q 3506 472 3093 190 
Q 2681 -91 1863 -91 
Q 1516 -91 1145 -36 
Q 775 19 384 128 
L 384 978 
Q 719 816 1070 734 
Q 1422 653 1784 653 
Q 2113 653 2278 743 
Q 2444 834 2444 1013 
Q 2444 1163 2330 1236 
Q 2216 1309 1875 1350 
L 1678 1375 
Q 931 1469 631 1722 
Q 331 1975 331 2491 
Q 331 3047 712 3315 
Q 1094 3584 1881 3584 
Q 2191 3584 2531 3537 
Q 2872 3491 3272 3391 
z
" transform="scale(0.015625)"/>
       <path id="DejaVuSans-Bold-6b" d="M 538 4863 
L 1656 4863 
L 1656 2216 
L 2944 3500 
L 4244 3500 
L 2534 1894 
L 4378 0 
L 3022 0 
L 1656 1459 
L 1656 0 
L 538 0 
L 538 4863 
z
" transform="scale(0.015625)"/>
       <path id="DejaVuSans-Bold-20" transform="scale(0.015625)"/>
       <path id="DejaVuSans-Bold-31" d="M 750 831 
L 1813 831 
L 1813 3847 
L 722 3622 
L 722 4441 
L 1806 4666 
L 2950 4666 
L 2950 831 
L 4013 831 
L 4013 0 
L 750 0 
L 750 831 
z
" transform="scale(0.015625)"/>
       <path id="DejaVuSans-Bold-32" d="M 1844 884 
L 3897 884 
L 3897 0 
L 506 0 
L 506 884 
L 2209 2388 
Q 2438 2594 2547 2791 
Q 2656 2988 2656 3200 
Q 2656 3528 2436 3728 
Q 2216 3928 1850 3928 
Q 1569 3928 1234 3808 
Q 900 3688 519 3450 
L 519 4475 
Q 925 4609 1322 4679 
Q 1719 4750 2100 4750 
Q 2938 4750 3402 4381 
Q 3866 4013 3866 3353 
Q 3866 2972 3669 2642 
Q 3472 2313 2841 1759 
L 1844 884 
z
" transform="scale(0.015625)"/>
      </defs>
      <use xlink:href="#DejaVuSans-Bold-54"/>
      <use xlink:href="#DejaVuSans-Bold-61" transform="translate(55.337891 0)"/>
      <use xlink:href="#DejaVuSans-Bold-73" transform="translate(122.818359 0)"/>
      <use xlink:href="#DejaVuSans-Bold-6b" transform="translate(182.339844 0)"/>
      <use xlink:href="#DejaVuSans-Bold-20" transform="translate(248.84375 0)"/>
      <use xlink:href="#DejaVuSans-Bold-31" transform="translate(283.658203 0)"/>
      <use xlink:href="#DejaVuSans-Bold-20" transform="translate(353.238281 0)"/>
      <use xlink:href="#DejaVuSans-Bold-20" transform="translate(388.052734 0)"/>
      <use xlink:href="#DejaVuSans-Bold-20" transform="translate(422.867188 0)"/>
      <use xlink:href="#DejaVuSans-Bold-20" transform="translate(457.681641 0)"/>
      <use xlink:href="#DejaVuSans-Bold-20" transform="translate(492.496094 0)"/>
      <use xlink:href="#DejaVuSans-Bold-20" transform="translate(527.310547 0)"/>
      <use xlink:href="#DejaVuSans-Bold-20" transform="translate(562.125 0)"/>
      <use xlink:href="#DejaVuSans-Bold-20" transform="translate(596.939453 0)"/>
      <use xlink:href="#DejaVuSans-Bold-20" transform="translate(631.753906 0)"/>
      <use xlink:href="#DejaVuSans-Bold-20" transform="translate(666.568359 0)"/>
      <use xlink:href="#DejaVuSans-Bold-20" transform="translate(701.382812 0)"/>
      <use xlink:href="#DejaVuSans-Bold-20" transform="translate(736.197266 0)"/>
      <use xlink:href="#DejaVuSans-Bold-20" transform="translate(771.011719 0)"/>
      <use xlink:href="#DejaVuSans-Bold-20" transform="translate(805.826172 0)"/>
      <use xlink:href="#DejaVuSans-Bold-20" transform="translate(840.640625 0)"/>
      <use xlink:href="#DejaVuSans-Bold-20" transform="translate(875.455078 0)"/>
      <use xlink:href="#DejaVuSans-Bold-20" transform="translate(910.269531 0)"/>
      <use xlink:href="#DejaVuSans-Bold-20" transform="translate(945.083984 0)"/>
      <use xlink:href="#DejaVuSans-Bold-20" transform="translate(979.898438 0)"/>
      <use xlink:href="#DejaVuSans-Bold-20" transform="translate(1014.712891 0)"/>
      <use xlink:href="#DejaVuSans-Bold-20" transform="translate(1049.527344 0)"/>
      <use xlink:href="#DejaVuSans-Bold-20" transform="translate(1084.341797 0)"/>
      <use xlink:href="#DejaVuSans-Bold-20" transform="translate(1119.15625 0)"/>
      <use xlink:href="#DejaVuSans-Bold-20" transform="translate(1153.970703 0)"/>
      <use xlink:href="#DejaVuSans-Bold-20" transform="translate(1188.785156 0)"/>
      <use xlink:href="#DejaVuSans-Bold-20" transform="translate(1223.599609 0)"/>
      <use xlink:href="#DejaVuSans-Bold-20" transform="translate(1258.414062 0)"/>
      <use xlink:href="#DejaVuSans-Bold-20" transform="translate(1293.228516 0)"/>
      <use xlink:href="#DejaVuSans-Bold-20" transform="translate(1328.042969 0)"/>
      <use xlink:href="#DejaVuSans-Bold-20" transform="translate(1362.857422 0)"/>
      <use xlink:href="#DejaVuSans-Bold-20" transform="translate(1397.671875 0)"/>
      <use xlink:href="#DejaVuSans-Bold-20" transform="translate(1432.486328 0)"/>
      <use xlink:href="#DejaVuSans-Bold-20" transform="translate(1467.300781 0)"/>
      <use xlink:href="#DejaVuSans-Bold-20" transform="translate(1502.115234 0)"/>
      <use xlink:href="#DejaVuSans-Bold-20" transform="translate(1536.929688 0)"/>
      <use xlink:href="#DejaVuSans-Bold-20" transform="translate(1571.744141 0)"/>
      <use xlink:href="#DejaVuSans-Bold-20" transform="translate(1606.558594 0)"/>
      <use xlink:href="#DejaVuSans-Bold-20" transform="translate(1641.373047 0)"/>
      <use xlink:href="#DejaVuSans-Bold-20" transform="translate(1676.1875 0)"/>
      <use xlink:href="#DejaVuSans-Bold-20" transform="translate(1711.001953 0)"/>
      <use xlink:href="#DejaVuSans-Bold-20" transform="translate(1745.816406 0)"/>
      <use xlink:href="#DejaVuSans-Bold-20" transform="translate(1780.630859 0)"/>
      <use xlink:href="#DejaVuSans-Bold-20" transform="translate(1815.445312 0)"/>
      <use xlink:href="#DejaVuSans-Bold-20" transform="translate(1850.259766 0)"/>
      <use xlink:href="#DejaVuSans-Bold-20" transform="translate(1885.074219 0)"/>
      <use xlink:href="#DejaVuSans-Bold-20" transform="translate(1919.888672 0)"/>
      <use xlink:href="#DejaVuSans-Bold-20" transform="translate(1954.703125 0)"/>
      <use xlink:href="#DejaVuSans-Bold-20" transform="translate(1989.517578 0)"/>
      <use xlink:href="#DejaVuSans-Bold-20" transform="translate(2024.332031 0)"/>
      <use xlink:href="#DejaVuSans-Bold-20" transform="translate(2059.146484 0)"/>
      <use xlink:href="#DejaVuSans-Bold-20" transform="translate(2093.960938 0)"/>
      <use xlink:href="#DejaVuSans-Bold-20" transform="translate(2128.775391 0)"/>
      <use xlink:href="#DejaVuSans-Bold-20" transform="translate(2163.589844 0)"/>
      <use xlink:href="#DejaVuSans-Bold-20" transform="translate(2198.404297 0)"/>
      <use xlink:href="#DejaVuSans-Bold-20" transform="translate(2233.21875 0)"/>
      <use xlink:href="#DejaVuSans-Bold-20" transform="translate(2268.033203 0)"/>
      <use xlink:href="#DejaVuSans-Bold-20" transform="translate(2302.847656 0)"/>
      <use xlink:href="#DejaVuSans-Bold-20" transform="translate(2337.662109 0)"/>
      <use xlink:href="#DejaVuSans-Bold-20" transform="translate(2372.476562 0)"/>
      <use xlink:href="#DejaVuSans-Bold-54" transform="translate(2407.291016 0)"/>
      <use xlink:href="#DejaVuSans-Bold-61" transform="translate(2462.628906 0)"/>
      <use xlink:href="#DejaVuSans-Bold-73" transform="translate(2530.109375 0)"/>
      <use xlink:href="#DejaVuSans-Bold-6b" transform="translate(2589.630859 0)"/>
      <use xlink:href="#DejaVuSans-Bold-20" transform="translate(2656.134766 0)"/>
      <use xlink:href="#DejaVuSans-Bold-32" transform="translate(2690.949219 0)"/>
     </g>
    </g>
   </g>
   <g id="matplotlib.axis_2">
    <g id="ytick_1">
     <g id="line2d_9">
      <path d="M 90 320.4 
L 648 320.4 
" clip-path="url(#p9f103165f5)" style="fill: none; stroke-dasharray: 2.96,1.28; stroke-dashoffset: 0; stroke: #b0b0b0; stroke-opacity: 0.7; stroke-width: 0.8"/>
     </g>
     <g id="line2d_10">
      <defs>
       <path id="m212999b02c" d="M 0 0 
L -3.5 0 
" style="stroke: #000000; stroke-width: 0.8"/>
      </defs>
      <g>
       <use xlink:href="#m212999b02c" x="90" y="320.4" style="stroke: #000000; stroke-width: 0.8"/>
      </g>
     </g>
     <g id="text_6">
      <!-- 0.0 -->
      <g transform="translate(67.096875 324.199219) scale(0.1 -0.1)">
       <defs>
        <path id="DejaVuSans-30" d="M 2034 4250 
Q 1547 4250 1301 3770 
Q 1056 3291 1056 2328 
Q 1056 1369 1301 889 
Q 1547 409 2034 409 
Q 2525 409 2770 889 
Q 3016 1369 3016 2328 
Q 3016 3291 2770 3770 
Q 2525 4250 2034 4250 
z
M 2034 4750 
Q 2819 4750 3233 4129 
Q 3647 3509 3647 2328 
Q 3647 1150 3233 529 
Q 2819 -91 2034 -91 
Q 1250 -91 836 529 
Q 422 1150 422 2328 
Q 422 3509 836 4129 
Q 1250 4750 2034 4750 
z
" transform="scale(0.015625)"/>
        <path id="DejaVuSans-2e" d="M 684 794 
L 1344 794 
L 1344 0 
L 684 0 
L 684 794 
z
" transform="scale(0.015625)"/>
       </defs>
       <use xlink:href="#DejaVuSans-30"/>
       <use xlink:href="#DejaVuSans-2e" transform="translate(63.623047 0)"/>
       <use xlink:href="#DejaVuSans-30" transform="translate(95.410156 0)"/>
      </g>
     </g>
    </g>
    <g id="ytick_2">
     <g id="line2d_11">
      <path d="M 90 267.6 
L 648 267.6 
" clip-path="url(#p9f103165f5)" style="fill: none; stroke-dasharray: 2.96,1.28; stroke-dashoffset: 0; stroke: #b0b0b0; stroke-opacity: 0.7; stroke-width: 0.8"/>
     </g>
     <g id="line2d_12">
      <g>
       <use xlink:href="#m212999b02c" x="90" y="267.6" style="stroke: #000000; stroke-width: 0.8"/>
      </g>
     </g>
     <g id="text_7">
      <!-- 0.2 -->
      <g transform="translate(67.096875 271.399219) scale(0.1 -0.1)">
       <defs>
        <path id="DejaVuSans-32" d="M 1228 531 
L 3431 531 
L 3431 0 
L 469 0 
L 469 531 
Q 828 903 1448 1529 
Q 2069 2156 2228 2338 
Q 2531 2678 2651 2914 
Q 2772 3150 2772 3378 
Q 2772 3750 2511 3984 
Q 2250 4219 1831 4219 
Q 1534 4219 1204 4116 
Q 875 4013 500 3803 
L 500 4441 
Q 881 4594 1212 4672 
Q 1544 4750 1819 4750 
Q 2544 4750 2975 4387 
Q 3406 4025 3406 3419 
Q 3406 3131 3298 2873 
Q 3191 2616 2906 2266 
Q 2828 2175 2409 1742 
Q 1991 1309 1228 531 
z
" transform="scale(0.015625)"/>
       </defs>
       <use xlink:href="#DejaVuSans-30"/>
       <use xlink:href="#DejaVuSans-2e" transform="translate(63.623047 0)"/>
       <use xlink:href="#DejaVuSans-32" transform="translate(95.410156 0)"/>
      </g>
     </g>
    </g>
    <g id="ytick_3">
     <g id="line2d_13">
      <path d="M 90 214.8 
L 648 214.8 
" clip-path="url(#p9f103165f5)" style="fill: none; stroke-dasharray: 2.96,1.28; stroke-dashoffset: 0; stroke: #b0b0b0; stroke-opacity: 0.7; stroke-width: 0.8"/>
     </g>
     <g id="line2d_14">
      <g>
       <use xlink:href="#m212999b02c" x="90" y="214.8" style="stroke: #000000; stroke-width: 0.8"/>
      </g>
     </g>
     <g id="text_8">
      <!-- 0.4 -->
      <g transform="translate(67.096875 218.599219) scale(0.1 -0.1)">
       <defs>
        <path id="DejaVuSans-34" d="M 2419 4116 
L 825 1625 
L 2419 1625 
L 2419 4116 
z
M 2253 4666 
L 3047 4666 
L 3047 1625 
L 3713 1625 
L 3713 1100 
L 3047 1100 
L 3047 0 
L 2419 0 
L 2419 1100 
L 313 1100 
L 313 1709 
L 2253 4666 
z
" transform="scale(0.015625)"/>
       </defs>
       <use xlink:href="#DejaVuSans-30"/>
       <use xlink:href="#DejaVuSans-2e" transform="translate(63.623047 0)"/>
       <use xlink:href="#DejaVuSans-34" transform="translate(95.410156 0)"/>
      </g>
     </g>
    </g>
    <g id="ytick_4">
     <g id="line2d_15">
      <path d="M 90 162 
L 648 162 
" clip-path="url(#p9f103165f5)" style="fill: none; stroke-dasharray: 2.96,1.28; stroke-dashoffset: 0; stroke: #b0b0b0; stroke-opacity: 0.7; stroke-width: 0.8"/>
     </g>
     <g id="line2d_16">
      <g>
       <use xlink:href="#m212999b02c" x="90" y="162" style="stroke: #000000; stroke-width: 0.8"/>
      </g>
     </g>
     <g id="text_9">
      <!-- 0.6 -->
      <g transform="translate(67.096875 165.799219) scale(0.1 -0.1)">
       <defs>
        <path id="DejaVuSans-36" d="M 2113 2584 
Q 1688 2584 1439 2293 
Q 1191 2003 1191 1497 
Q 1191 994 1439 701 
Q 1688 409 2113 409 
Q 2538 409 2786 701 
Q 3034 994 3034 1497 
Q 3034 2003 2786 2293 
Q 2538 2584 2113 2584 
z
M 3366 4563 
L 3366 3988 
Q 3128 4100 2886 4159 
Q 2644 4219 2406 4219 
Q 1781 4219 1451 3797 
Q 1122 3375 1075 2522 
Q 1259 2794 1537 2939 
Q 1816 3084 2150 3084 
Q 2853 3084 3261 2657 
Q 3669 2231 3669 1497 
Q 3669 778 3244 343 
Q 2819 -91 2113 -91 
Q 1303 -91 875 529 
Q 447 1150 447 2328 
Q 447 3434 972 4092 
Q 1497 4750 2381 4750 
Q 2619 4750 2861 4703 
Q 3103 4656 3366 4563 
z
" transform="scale(0.015625)"/>
       </defs>
       <use xlink:href="#DejaVuSans-30"/>
       <use xlink:href="#DejaVuSans-2e" transform="translate(63.623047 0)"/>
       <use xlink:href="#DejaVuSans-36" transform="translate(95.410156 0)"/>
      </g>
     </g>
    </g>
    <g id="ytick_5">
     <g id="line2d_17">
      <path d="M 90 109.2 
L 648 109.2 
" clip-path="url(#p9f103165f5)" style="fill: none; stroke-dasharray: 2.96,1.28; stroke-dashoffset: 0; stroke: #b0b0b0; stroke-opacity: 0.7; stroke-width: 0.8"/>
     </g>
     <g id="line2d_18">
      <g>
       <use xlink:href="#m212999b02c" x="90" y="109.2" style="stroke: #000000; stroke-width: 0.8"/>
      </g>
     </g>
     <g id="text_10">
      <!-- 0.8 -->
      <g transform="translate(67.096875 112.999219) scale(0.1 -0.1)">
       <defs>
        <path id="DejaVuSans-38" d="M 2034 2216 
Q 1584 2216 1326 1975 
Q 1069 1734 1069 1313 
Q 1069 891 1326 650 
Q 1584 409 2034 409 
Q 2484 409 2743 651 
Q 3003 894 3003 1313 
Q 3003 1734 2745 1975 
Q 2488 2216 2034 2216 
z
M 1403 2484 
Q 997 2584 770 2862 
Q 544 3141 544 3541 
Q 544 4100 942 4425 
Q 1341 4750 2034 4750 
Q 2731 4750 3128 4425 
Q 3525 4100 3525 3541 
Q 3525 3141 3298 2862 
Q 3072 2584 2669 2484 
Q 3125 2378 3379 2068 
Q 3634 1759 3634 1313 
Q 3634 634 3220 271 
Q 2806 -91 2034 -91 
Q 1263 -91 848 271 
Q 434 634 434 1313 
Q 434 1759 690 2068 
Q 947 2378 1403 2484 
z
M 1172 3481 
Q 1172 3119 1398 2916 
Q 1625 2713 2034 2713 
Q 2441 2713 2670 2916 
Q 2900 3119 2900 3481 
Q 2900 3844 2670 4047 
Q 2441 4250 2034 4250 
Q 1625 4250 1398 4047 
Q 1172 3844 1172 3481 
z
" transform="scale(0.015625)"/>
       </defs>
       <use xlink:href="#DejaVuSans-30"/>
       <use xlink:href="#DejaVuSans-2e" transform="translate(63.623047 0)"/>
       <use xlink:href="#DejaVuSans-38" transform="translate(95.410156 0)"/>
      </g>
     </g>
    </g>
    <g id="ytick_6">
     <g id="line2d_19">
      <path d="M 90 56.4 
L 648 56.4 
" clip-path="url(#p9f103165f5)" style="fill: none; stroke-dasharray: 2.96,1.28; stroke-dashoffset: 0; stroke: #b0b0b0; stroke-opacity: 0.7; stroke-width: 0.8"/>
     </g>
     <g id="line2d_20">
      <g>
       <use xlink:href="#m212999b02c" x="90" y="56.4" style="stroke: #000000; stroke-width: 0.8"/>
      </g>
     </g>
     <g id="text_11">
      <!-- 1.0 -->
      <g transform="translate(67.096875 60.199219) scale(0.1 -0.1)">
       <defs>
        <path id="DejaVuSans-31" d="M 794 531 
L 1825 531 
L 1825 4091 
L 703 3866 
L 703 4441 
L 1819 4666 
L 2450 4666 
L 2450 531 
L 3481 531 
L 3481 0 
L 794 0 
L 794 531 
z
" transform="scale(0.015625)"/>
       </defs>
       <use xlink:href="#DejaVuSans-31"/>
       <use xlink:href="#DejaVuSans-2e" transform="translate(63.623047 0)"/>
       <use xlink:href="#DejaVuSans-30" transform="translate(95.410156 0)"/>
      </g>
     </g>
    </g>
    <g id="text_12">
     <!-- Answer Token Probability -->
     <g transform="translate(60.939062 253.379687) rotate(-90) scale(0.1 -0.1)">
      <defs>
       <path id="DejaVuSans-Bold-41" d="M 3419 850 
L 1538 850 
L 1241 0 
L 31 0 
L 1759 4666 
L 3194 4666 
L 4922 0 
L 3713 0 
L 3419 850 
z
M 1838 1716 
L 3116 1716 
L 2478 3572 
L 1838 1716 
z
" transform="scale(0.015625)"/>
       <path id="DejaVuSans-Bold-6e" d="M 4056 2131 
L 4056 0 
L 2931 0 
L 2931 347 
L 2931 1631 
Q 2931 2084 2911 2256 
Q 2891 2428 2841 2509 
Q 2775 2619 2662 2680 
Q 2550 2741 2406 2741 
Q 2056 2741 1856 2470 
Q 1656 2200 1656 1722 
L 1656 0 
L 538 0 
L 538 3500 
L 1656 3500 
L 1656 2988 
Q 1909 3294 2193 3439 
Q 2478 3584 2822 3584 
Q 3428 3584 3742 3212 
Q 4056 2841 4056 2131 
z
" transform="scale(0.015625)"/>
       <path id="DejaVuSans-Bold-77" d="M 225 3500 
L 1313 3500 
L 1900 1088 
L 2491 3500 
L 3425 3500 
L 4013 1113 
L 4603 3500 
L 5691 3500 
L 4769 0 
L 3547 0 
L 2956 2406 
L 2369 0 
L 1147 0 
L 225 3500 
z
" transform="scale(0.015625)"/>
       <path id="DejaVuSans-Bold-65" d="M 4031 1759 
L 4031 1441 
L 1416 1441 
Q 1456 1047 1700 850 
Q 1944 653 2381 653 
Q 2734 653 3104 758 
Q 3475 863 3866 1075 
L 3866 213 
Q 3469 63 3072 -14 
Q 2675 -91 2278 -91 
Q 1328 -91 801 392 
Q 275 875 275 1747 
Q 275 2603 792 3093 
Q 1309 3584 2216 3584 
Q 3041 3584 3536 3087 
Q 4031 2591 4031 1759 
z
M 2881 2131 
Q 2881 2450 2695 2645 
Q 2509 2841 2209 2841 
Q 1884 2841 1681 2658 
Q 1478 2475 1428 2131 
L 2881 2131 
z
" transform="scale(0.015625)"/>
       <path id="DejaVuSans-Bold-72" d="M 3138 2547 
Q 2991 2616 2845 2648 
Q 2700 2681 2553 2681 
Q 2122 2681 1889 2404 
Q 1656 2128 1656 1613 
L 1656 0 
L 538 0 
L 538 3500 
L 1656 3500 
L 1656 2925 
Q 1872 3269 2151 3426 
Q 2431 3584 2822 3584 
Q 2878 3584 2943 3579 
Q 3009 3575 3134 3559 
L 3138 2547 
z
" transform="scale(0.015625)"/>
       <path id="DejaVuSans-Bold-6f" d="M 2203 2784 
Q 1831 2784 1636 2517 
Q 1441 2250 1441 1747 
Q 1441 1244 1636 976 
Q 1831 709 2203 709 
Q 2569 709 2762 976 
Q 2956 1244 2956 1747 
Q 2956 2250 2762 2517 
Q 2569 2784 2203 2784 
z
M 2203 3584 
Q 3106 3584 3614 3096 
Q 4122 2609 4122 1747 
Q 4122 884 3614 396 
Q 3106 -91 2203 -91 
Q 1297 -91 786 396 
Q 275 884 275 1747 
Q 275 2609 786 3096 
Q 1297 3584 2203 3584 
z
" transform="scale(0.015625)"/>
       <path id="DejaVuSans-Bold-50" d="M 588 4666 
L 2584 4666 
Q 3475 4666 3951 4270 
Q 4428 3875 4428 3144 
Q 4428 2409 3951 2014 
Q 3475 1619 2584 1619 
L 1791 1619 
L 1791 0 
L 588 0 
L 588 4666 
z
M 1791 3794 
L 1791 2491 
L 2456 2491 
Q 2806 2491 2997 2661 
Q 3188 2831 3188 3144 
Q 3188 3456 2997 3625 
Q 2806 3794 2456 3794 
L 1791 3794 
z
" transform="scale(0.015625)"/>
       <path id="DejaVuSans-Bold-62" d="M 2400 722 
Q 2759 722 2948 984 
Q 3138 1247 3138 1747 
Q 3138 2247 2948 2509 
Q 2759 2772 2400 2772 
Q 2041 2772 1848 2508 
Q 1656 2244 1656 1747 
Q 1656 1250 1848 986 
Q 2041 722 2400 722 
z
M 1656 2988 
Q 1888 3294 2169 3439 
Q 2450 3584 2816 3584 
Q 3463 3584 3878 3070 
Q 4294 2556 4294 1747 
Q 4294 938 3878 423 
Q 3463 -91 2816 -91 
Q 2450 -91 2169 54 
Q 1888 200 1656 506 
L 1656 0 
L 538 0 
L 538 4863 
L 1656 4863 
L 1656 2988 
z
" transform="scale(0.015625)"/>
       <path id="DejaVuSans-Bold-69" d="M 538 3500 
L 1656 3500 
L 1656 0 
L 538 0 
L 538 3500 
z
M 538 4863 
L 1656 4863 
L 1656 3950 
L 538 3950 
L 538 4863 
z
" transform="scale(0.015625)"/>
       <path id="DejaVuSans-Bold-6c" d="M 538 4863 
L 1656 4863 
L 1656 0 
L 538 0 
L 538 4863 
z
" transform="scale(0.015625)"/>
       <path id="DejaVuSans-Bold-74" d="M 1759 4494 
L 1759 3500 
L 2913 3500 
L 2913 2700 
L 1759 2700 
L 1759 1216 
Q 1759 972 1856 886 
Q 1953 800 2241 800 
L 2816 800 
L 2816 0 
L 1856 0 
Q 1194 0 917 276 
Q 641 553 641 1216 
L 641 2700 
L 84 2700 
L 84 3500 
L 641 3500 
L 641 4494 
L 1759 4494 
z
" transform="scale(0.015625)"/>
       <path id="DejaVuSans-Bold-79" d="M 78 3500 
L 1197 3500 
L 2138 1125 
L 2938 3500 
L 4056 3500 
L 2584 -331 
Q 2363 -916 2067 -1148 
Q 1772 -1381 1288 -1381 
L 641 -1381 
L 641 -647 
L 991 -647 
Q 1275 -647 1404 -556 
Q 1534 -466 1606 -231 
L 1638 -134 
L 78 3500 
z
" transform="scale(0.015625)"/>
      </defs>
      <use xlink:href="#DejaVuSans-Bold-41"/>
      <use xlink:href="#DejaVuSans-Bold-6e" transform="translate(77.392578 0)"/>
      <use xlink:href="#DejaVuSans-Bold-73" transform="translate(148.583984 0)"/>
      <use xlink:href="#DejaVuSans-Bold-77" transform="translate(208.105469 0)"/>
      <use xlink:href="#DejaVuSans-Bold-65" transform="translate(300.488281 0)"/>
      <use xlink:href="#DejaVuSans-Bold-72" transform="translate(368.310547 0)"/>
      <use xlink:href="#DejaVuSans-Bold-20" transform="translate(417.626953 0)"/>
      <use xlink:href="#DejaVuSans-Bold-54" transform="translate(452.441406 0)"/>
      <use xlink:href="#DejaVuSans-Bold-6f" transform="translate(507.404297 0)"/>
      <use xlink:href="#DejaVuSans-Bold-6b" transform="translate(576.105469 0)"/>
      <use xlink:href="#DejaVuSans-Bold-65" transform="translate(639.984375 0)"/>
      <use xlink:href="#DejaVuSans-Bold-6e" transform="translate(707.806641 0)"/>
      <use xlink:href="#DejaVuSans-Bold-20" transform="translate(778.998047 0)"/>
      <use xlink:href="#DejaVuSans-Bold-50" transform="translate(813.8125 0)"/>
      <use xlink:href="#DejaVuSans-Bold-72" transform="translate(887.103516 0)"/>
      <use xlink:href="#DejaVuSans-Bold-6f" transform="translate(936.419922 0)"/>
      <use xlink:href="#DejaVuSans-Bold-62" transform="translate(1005.121094 0)"/>
      <use xlink:href="#DejaVuSans-Bold-61" transform="translate(1076.703125 0)"/>
      <use xlink:href="#DejaVuSans-Bold-62" transform="translate(1144.183594 0)"/>
      <use xlink:href="#DejaVuSans-Bold-69" transform="translate(1215.765625 0)"/>
      <use xlink:href="#DejaVuSans-Bold-6c" transform="translate(1250.042969 0)"/>
      <use xlink:href="#DejaVuSans-Bold-69" transform="translate(1284.320312 0)"/>
      <use xlink:href="#DejaVuSans-Bold-74" transform="translate(1318.597656 0)"/>
      <use xlink:href="#DejaVuSans-Bold-79" transform="translate(1366.400391 0)"/>
     </g>
    </g>
   </g>
   <g id="LineCollection_1">
    <path d="M 128.209302 85.104096 
L 128.209302 56.4 
" clip-path="url(#p9f103165f5)" style="fill: none; stroke: #000000; stroke-width: 1.5"/>
    <path d="M 257.976744 95.081058 
L 257.976744 56.4 
" clip-path="url(#p9f103165f5)" style="fill: none; stroke: #000000; stroke-width: 1.5"/>
    <path d="M 387.744186 110.354979 
L 387.744186 56.4 
" clip-path="url(#p9f103165f5)" style="fill: none; stroke: #000000; stroke-width: 1.5"/>
    <path d="M 517.511628 222.584868 
L 517.511628 57.791732 
" clip-path="url(#p9f103165f5)" style="fill: none; stroke: #000000; stroke-width: 1.5"/>
   </g>
   <g id="line2d_21">
    <defs>
     <path id="mfa829ff199" d="M 3 0 
L -3 -0 
" style="stroke: #000000"/>
    </defs>
    <g clip-path="url(#p9f103165f5)">
     <use xlink:href="#mfa829ff199" x="128.209302" y="85.104096" style="stroke: #000000"/>
     <use xlink:href="#mfa829ff199" x="257.976744" y="95.081058" style="stroke: #000000"/>
     <use xlink:href="#mfa829ff199" x="387.744186" y="110.354979" style="stroke: #000000"/>
     <use xlink:href="#mfa829ff199" x="517.511628" y="222.584868" style="stroke: #000000"/>
    </g>
   </g>
   <g id="line2d_22">
    <g clip-path="url(#p9f103165f5)">
     <use xlink:href="#mfa829ff199" x="128.209302" y="56.4" style="stroke: #000000"/>
     <use xlink:href="#mfa829ff199" x="257.976744" y="56.4" style="stroke: #000000"/>
     <use xlink:href="#mfa829ff199" x="387.744186" y="56.4" style="stroke: #000000"/>
     <use xlink:href="#mfa829ff199" x="517.511628" y="57.791732" style="stroke: #000000"/>
    </g>
   </g>
   <g id="LineCollection_2">
    <path d="M 139.744186 105.771354 
L 139.744186 56.4 
" clip-path="url(#p9f103165f5)" style="fill: none; stroke: #000000; stroke-width: 1.5"/>
    <path d="M 269.511628 138.460674 
L 269.511628 56.4 
" clip-path="url(#p9f103165f5)" style="fill: none; stroke: #000000; stroke-width: 1.5"/>
    <path d="M 399.27907 60.848575 
L 399.27907 56.4 
" clip-path="url(#p9f103165f5)" style="fill: none; stroke: #000000; stroke-width: 1.5"/>
    <path d="M 529.046512 264.054004 
L 529.046512 87.997867 
" clip-path="url(#p9f103165f5)" style="fill: none; stroke: #000000; stroke-width: 1.5"/>
   </g>
   <g id="line2d_23">
    <g clip-path="url(#p9f103165f5)">
     <use xlink:href="#mfa829ff199" x="139.744186" y="105.771354" style="stroke: #000000"/>
     <use xlink:href="#mfa829ff199" x="269.511628" y="138.460674" style="stroke: #000000"/>
     <use xlink:href="#mfa829ff199" x="399.27907" y="60.848575" style="stroke: #000000"/>
     <use xlink:href="#mfa829ff199" x="529.046512" y="264.054004" style="stroke: #000000"/>
    </g>
   </g>
   <g id="line2d_24">
    <g clip-path="url(#p9f103165f5)">
     <use xlink:href="#mfa829ff199" x="139.744186" y="56.4" style="stroke: #000000"/>
     <use xlink:href="#mfa829ff199" x="269.511628" y="56.4" style="stroke: #000000"/>
     <use xlink:href="#mfa829ff199" x="399.27907" y="56.4" style="stroke: #000000"/>
     <use xlink:href="#mfa829ff199" x="529.046512" y="87.997867" style="stroke: #000000"/>
    </g>
   </g>
   <g id="LineCollection_3">
    <path d="M 151.27907 68.248123 
L 151.27907 56.4 
" clip-path="url(#p9f103165f5)" style="fill: none; stroke: #000000; stroke-width: 1.5"/>
    <path d="M 281.046512 80.695949 
L 281.046512 56.4 
" clip-path="url(#p9f103165f5)" style="fill: none; stroke: #000000; stroke-width: 1.5"/>
    <path d="M 410.813953 56.718025 
L 410.813953 56.4 
" clip-path="url(#p9f103165f5)" style="fill: none; stroke: #000000; stroke-width: 1.5"/>
    <path d="M 540.581395 154.617574 
L 540.581395 56.4 
" clip-path="url(#p9f103165f5)" style="fill: none; stroke: #000000; stroke-width: 1.5"/>
   </g>
   <g id="line2d_25">
    <g clip-path="url(#p9f103165f5)">
     <use xlink:href="#mfa829ff199" x="151.27907" y="68.248123" style="stroke: #000000"/>
     <use xlink:href="#mfa829ff199" x="281.046512" y="80.695949" style="stroke: #000000"/>
     <use xlink:href="#mfa829ff199" x="410.813953" y="56.718025" style="stroke: #000000"/>
     <use xlink:href="#mfa829ff199" x="540.581395" y="154.617574" style="stroke: #000000"/>
    </g>
   </g>
   <g id="line2d_26">
    <g clip-path="url(#p9f103165f5)">
     <use xlink:href="#mfa829ff199" x="151.27907" y="56.4" style="stroke: #000000"/>
     <use xlink:href="#mfa829ff199" x="281.046512" y="56.4" style="stroke: #000000"/>
     <use xlink:href="#mfa829ff199" x="410.813953" y="56.4" style="stroke: #000000"/>
     <use xlink:href="#mfa829ff199" x="540.581395" y="56.4" style="stroke: #000000"/>
    </g>
   </g>
   <g id="LineCollection_4">
    <path d="M 162.813953 112.030772 
L 162.813953 56.4 
" clip-path="url(#p9f103165f5)" style="fill: none; stroke: #000000; stroke-width: 1.5"/>
    <path d="M 292.581395 170.165155 
L 292.581395 56.4 
" clip-path="url(#p9f103165f5)" style="fill: none; stroke: #000000; stroke-width: 1.5"/>
    <path d="M 422.348837 86.877854 
L 422.348837 56.4 
" clip-path="url(#p9f103165f5)" style="fill: none; stroke: #000000; stroke-width: 1.5"/>
    <path d="M 552.116279 284.559599 
L 552.116279 110.401657 
" clip-path="url(#p9f103165f5)" style="fill: none; stroke: #000000; stroke-width: 1.5"/>
   </g>
   <g id="line2d_27">
    <g clip-path="url(#p9f103165f5)">
     <use xlink:href="#mfa829ff199" x="162.813953" y="112.030772" style="stroke: #000000"/>
     <use xlink:href="#mfa829ff199" x="292.581395" y="170.165155" style="stroke: #000000"/>
     <use xlink:href="#mfa829ff199" x="422.348837" y="86.877854" style="stroke: #000000"/>
     <use xlink:href="#mfa829ff199" x="552.116279" y="284.559599" style="stroke: #000000"/>
    </g>
   </g>
   <g id="line2d_28">
    <g clip-path="url(#p9f103165f5)">
     <use xlink:href="#mfa829ff199" x="162.813953" y="56.4" style="stroke: #000000"/>
     <use xlink:href="#mfa829ff199" x="292.581395" y="56.4" style="stroke: #000000"/>
     <use xlink:href="#mfa829ff199" x="422.348837" y="56.4" style="stroke: #000000"/>
     <use xlink:href="#mfa829ff199" x="552.116279" y="110.401657" style="stroke: #000000"/>
    </g>
   </g>
   <g id="LineCollection_5">
    <path d="M 174.348837 79.15791 
L 174.348837 56.4 
" clip-path="url(#p9f103165f5)" style="fill: none; stroke: #000000; stroke-width: 1.5"/>
    <path d="M 304.116279 79.962657 
L 304.116279 56.4 
" clip-path="url(#p9f103165f5)" style="fill: none; stroke: #000000; stroke-width: 1.5"/>
    <path d="M 433.883721 59.800972 
L 433.883721 56.4 
" clip-path="url(#p9f103165f5)" style="fill: none; stroke: #000000; stroke-width: 1.5"/>
    <path d="M 563.651163 142.362038 
L 563.651163 56.4 
" clip-path="url(#p9f103165f5)" style="fill: none; stroke: #000000; stroke-width: 1.5"/>
   </g>
   <g id="line2d_29">
    <g clip-path="url(#p9f103165f5)">
     <use xlink:href="#mfa829ff199" x="174.348837" y="79.15791" style="stroke: #000000"/>
     <use xlink:href="#mfa829ff199" x="304.116279" y="79.962657" style="stroke: #000000"/>
     <use xlink:href="#mfa829ff199" x="433.883721" y="59.800972" style="stroke: #000000"/>
     <use xlink:href="#mfa829ff199" x="563.651163" y="142.362038" style="stroke: #000000"/>
    </g>
   </g>
   <g id="line2d_30">
    <g clip-path="url(#p9f103165f5)">
     <use xlink:href="#mfa829ff199" x="174.348837" y="56.4" style="stroke: #000000"/>
     <use xlink:href="#mfa829ff199" x="304.116279" y="56.4" style="stroke: #000000"/>
     <use xlink:href="#mfa829ff199" x="433.883721" y="56.4" style="stroke: #000000"/>
     <use xlink:href="#mfa829ff199" x="563.651163" y="56.4" style="stroke: #000000"/>
    </g>
   </g>
   <g id="LineCollection_6">
    <path d="M 185.883721 66.137195 
L 185.883721 56.4 
" clip-path="url(#p9f103165f5)" style="fill: none; stroke: #000000; stroke-width: 1.5"/>
    <path d="M 315.651163 67.934378 
L 315.651163 56.4 
" clip-path="url(#p9f103165f5)" style="fill: none; stroke: #000000; stroke-width: 1.5"/>
    <path d="M 445.418605 66.609721 
L 445.418605 56.4 
" clip-path="url(#p9f103165f5)" style="fill: none; stroke: #000000; stroke-width: 1.5"/>
    <path d="M 575.186047 110.560522 
L 575.186047 56.4 
" clip-path="url(#p9f103165f5)" style="fill: none; stroke: #000000; stroke-width: 1.5"/>
   </g>
   <g id="line2d_31">
    <g clip-path="url(#p9f103165f5)">
     <use xlink:href="#mfa829ff199" x="185.883721" y="66.137195" style="stroke: #000000"/>
     <use xlink:href="#mfa829ff199" x="315.651163" y="67.934378" style="stroke: #000000"/>
     <use xlink:href="#mfa829ff199" x="445.418605" y="66.609721" style="stroke: #000000"/>
     <use xlink:href="#mfa829ff199" x="575.186047" y="110.560522" style="stroke: #000000"/>
    </g>
   </g>
   <g id="line2d_32">
    <g clip-path="url(#p9f103165f5)">
     <use xlink:href="#mfa829ff199" x="185.883721" y="56.4" style="stroke: #000000"/>
     <use xlink:href="#mfa829ff199" x="315.651163" y="56.4" style="stroke: #000000"/>
     <use xlink:href="#mfa829ff199" x="445.418605" y="56.4" style="stroke: #000000"/>
     <use xlink:href="#mfa829ff199" x="575.186047" y="56.4" style="stroke: #000000"/>
    </g>
   </g>
   <g id="LineCollection_7">
    <path d="M 197.418605 76.343062 
L 197.418605 56.4 
" clip-path="url(#p9f103165f5)" style="fill: none; stroke: #000000; stroke-width: 1.5"/>
    <path d="M 327.186047 93.983812 
L 327.186047 56.4 
" clip-path="url(#p9f103165f5)" style="fill: none; stroke: #000000; stroke-width: 1.5"/>
    <path d="M 456.953488 68.272337 
L 456.953488 56.4 
" clip-path="url(#p9f103165f5)" style="fill: none; stroke: #000000; stroke-width: 1.5"/>
    <path d="M 586.72093 146.454357 
L 586.72093 56.4 
" clip-path="url(#p9f103165f5)" style="fill: none; stroke: #000000; stroke-width: 1.5"/>
   </g>
   <g id="line2d_33">
    <g clip-path="url(#p9f103165f5)">
     <use xlink:href="#mfa829ff199" x="197.418605" y="76.343062" style="stroke: #000000"/>
     <use xlink:href="#mfa829ff199" x="327.186047" y="93.983812" style="stroke: #000000"/>
     <use xlink:href="#mfa829ff199" x="456.953488" y="68.272337" style="stroke: #000000"/>
     <use xlink:href="#mfa829ff199" x="586.72093" y="146.454357" style="stroke: #000000"/>
    </g>
   </g>
   <g id="line2d_34">
    <g clip-path="url(#p9f103165f5)">
     <use xlink:href="#mfa829ff199" x="197.418605" y="56.4" style="stroke: #000000"/>
     <use xlink:href="#mfa829ff199" x="327.186047" y="56.4" style="stroke: #000000"/>
     <use xlink:href="#mfa829ff199" x="456.953488" y="56.4" style="stroke: #000000"/>
     <use xlink:href="#mfa829ff199" x="586.72093" y="56.4" style="stroke: #000000"/>
    </g>
   </g>
   <g id="LineCollection_8">
    <path d="M 208.953488 75.153732 
L 208.953488 56.4 
" clip-path="url(#p9f103165f5)" style="fill: none; stroke: #000000; stroke-width: 1.5"/>
    <path d="M 338.72093 76.785737 
L 338.72093 56.4 
" clip-path="url(#p9f103165f5)" style="fill: none; stroke: #000000; stroke-width: 1.5"/>
    <path d="M 468.488372 71.36813 
L 468.488372 56.4 
" clip-path="url(#p9f103165f5)" style="fill: none; stroke: #000000; stroke-width: 1.5"/>
    <path d="M 598.255814 137.715369 
L 598.255814 56.4 
" clip-path="url(#p9f103165f5)" style="fill: none; stroke: #000000; stroke-width: 1.5"/>
   </g>
   <g id="line2d_35">
    <g clip-path="url(#p9f103165f5)">
     <use xlink:href="#mfa829ff199" x="208.953488" y="75.153732" style="stroke: #000000"/>
     <use xlink:href="#mfa829ff199" x="338.72093" y="76.785737" style="stroke: #000000"/>
     <use xlink:href="#mfa829ff199" x="468.488372" y="71.36813" style="stroke: #000000"/>
     <use xlink:href="#mfa829ff199" x="598.255814" y="137.715369" style="stroke: #000000"/>
    </g>
   </g>
   <g id="line2d_36">
    <g clip-path="url(#p9f103165f5)">
     <use xlink:href="#mfa829ff199" x="208.953488" y="56.4" style="stroke: #000000"/>
     <use xlink:href="#mfa829ff199" x="338.72093" y="56.4" style="stroke: #000000"/>
     <use xlink:href="#mfa829ff199" x="468.488372" y="56.4" style="stroke: #000000"/>
     <use xlink:href="#mfa829ff199" x="598.255814" y="56.4" style="stroke: #000000"/>
    </g>
   </g>
   <g id="LineCollection_9">
    <path d="M 220.488372 64.796987 
L 220.488372 56.4 
" clip-path="url(#p9f103165f5)" style="fill: none; stroke: #000000; stroke-width: 1.5"/>
    <path d="M 350.255814 65.023363 
L 350.255814 56.4 
" clip-path="url(#p9f103165f5)" style="fill: none; stroke: #000000; stroke-width: 1.5"/>
    <path d="M 480.023256 60.529049 
L 480.023256 56.4 
" clip-path="url(#p9f103165f5)" style="fill: none; stroke: #000000; stroke-width: 1.5"/>
    <path d="M 609.790698 72.645619 
L 609.790698 56.4 
" clip-path="url(#p9f103165f5)" style="fill: none; stroke: #000000; stroke-width: 1.5"/>
   </g>
   <g id="line2d_37">
    <g clip-path="url(#p9f103165f5)">
     <use xlink:href="#mfa829ff199" x="220.488372" y="64.796987" style="stroke: #000000"/>
     <use xlink:href="#mfa829ff199" x="350.255814" y="65.023363" style="stroke: #000000"/>
     <use xlink:href="#mfa829ff199" x="480.023256" y="60.529049" style="stroke: #000000"/>
     <use xlink:href="#mfa829ff199" x="609.790698" y="72.645619" style="stroke: #000000"/>
    </g>
   </g>
   <g id="line2d_38">
    <g clip-path="url(#p9f103165f5)">
     <use xlink:href="#mfa829ff199" x="220.488372" y="56.4" style="stroke: #000000"/>
     <use xlink:href="#mfa829ff199" x="350.255814" y="56.4" style="stroke: #000000"/>
     <use xlink:href="#mfa829ff199" x="480.023256" y="56.4" style="stroke: #000000"/>
     <use xlink:href="#mfa829ff199" x="609.790698" y="56.4" style="stroke: #000000"/>
    </g>
   </g>
   <g id="patch_39">
    <path d="M 90 320.4 
L 90 43.2 
" style="fill: none; stroke: #000000; stroke-width: 0.8; stroke-linejoin: miter; stroke-linecap: square"/>
   </g>
   <g id="patch_40">
    <path d="M 648 320.4 
L 648 43.2 
" style="fill: none; stroke: #000000; stroke-width: 0.8; stroke-linejoin: miter; stroke-linecap: square"/>
   </g>
   <g id="patch_41">
    <path d="M 90 320.4 
L 648 320.4 
" style="fill: none; stroke: #000000; stroke-width: 0.8; stroke-linejoin: miter; stroke-linecap: square"/>
   </g>
   <g id="patch_42">
    <path d="M 90 43.2 
L 648 43.2 
" style="fill: none; stroke: #000000; stroke-width: 0.8; stroke-linejoin: miter; stroke-linecap: square"/>
   </g>
   <g id="legend_1">
    <g id="patch_43">
     <path d="M 97 315.4 
L 217.071875 315.4 
Q 219.071875 315.4 219.071875 313.4 
L 219.071875 182.296875 
Q 219.071875 180.296875 217.071875 180.296875 
L 97 180.296875 
Q 95 180.296875 95 182.296875 
L 95 313.4 
Q 95 315.4 97 315.4 
z
" style="fill: #ffffff; opacity: 0.8; stroke: #cccccc; stroke-linejoin: miter"/>
    </g>
    <g id="patch_44">
     <path d="M 99 191.895313 
L 119 191.895313 
L 119 184.895313 
L 99 184.895313 
z
" style="fill: #1f77b4"/>
    </g>
    <g id="text_13">
     <!-- GPT-3.5 -->
     <g transform="translate(127 191.895313) scale(0.1 -0.1)">
      <defs>
       <path id="DejaVuSans-47" d="M 3809 666 
L 3809 1919 
L 2778 1919 
L 2778 2438 
L 4434 2438 
L 4434 434 
Q 4069 175 3628 42 
Q 3188 -91 2688 -91 
Q 1594 -91 976 548 
Q 359 1188 359 2328 
Q 359 3472 976 4111 
Q 1594 4750 2688 4750 
Q 3144 4750 3555 4637 
Q 3966 4525 4313 4306 
L 4313 3634 
Q 3963 3931 3569 4081 
Q 3175 4231 2741 4231 
Q 1884 4231 1454 3753 
Q 1025 3275 1025 2328 
Q 1025 1384 1454 906 
Q 1884 428 2741 428 
Q 3075 428 3337 486 
Q 3600 544 3809 666 
z
" transform="scale(0.015625)"/>
       <path id="DejaVuSans-50" d="M 1259 4147 
L 1259 2394 
L 2053 2394 
Q 2494 2394 2734 2622 
Q 2975 2850 2975 3272 
Q 2975 3691 2734 3919 
Q 2494 4147 2053 4147 
L 1259 4147 
z
M 628 4666 
L 2053 4666 
Q 2838 4666 3239 4311 
Q 3641 3956 3641 3272 
Q 3641 2581 3239 2228 
Q 2838 1875 2053 1875 
L 1259 1875 
L 1259 0 
L 628 0 
L 628 4666 
z
" transform="scale(0.015625)"/>
       <path id="DejaVuSans-54" d="M -19 4666 
L 3928 4666 
L 3928 4134 
L 2272 4134 
L 2272 0 
L 1638 0 
L 1638 4134 
L -19 4134 
L -19 4666 
z
" transform="scale(0.015625)"/>
       <path id="DejaVuSans-2d" d="M 313 2009 
L 1997 2009 
L 1997 1497 
L 313 1497 
L 313 2009 
z
" transform="scale(0.015625)"/>
       <path id="DejaVuSans-33" d="M 2597 2516 
Q 3050 2419 3304 2112 
Q 3559 1806 3559 1356 
Q 3559 666 3084 287 
Q 2609 -91 1734 -91 
Q 1441 -91 1130 -33 
Q 819 25 488 141 
L 488 750 
Q 750 597 1062 519 
Q 1375 441 1716 441 
Q 2309 441 2620 675 
Q 2931 909 2931 1356 
Q 2931 1769 2642 2001 
Q 2353 2234 1838 2234 
L 1294 2234 
L 1294 2753 
L 1863 2753 
Q 2328 2753 2575 2939 
Q 2822 3125 2822 3475 
Q 2822 3834 2567 4026 
Q 2313 4219 1838 4219 
Q 1578 4219 1281 4162 
Q 984 4106 628 3988 
L 628 4550 
Q 988 4650 1302 4700 
Q 1616 4750 1894 4750 
Q 2613 4750 3031 4423 
Q 3450 4097 3450 3541 
Q 3450 3153 3228 2886 
Q 3006 2619 2597 2516 
z
" transform="scale(0.015625)"/>
       <path id="DejaVuSans-35" d="M 691 4666 
L 3169 4666 
L 3169 4134 
L 1269 4134 
L 1269 2991 
Q 1406 3038 1543 3061 
Q 1681 3084 1819 3084 
Q 2600 3084 3056 2656 
Q 3513 2228 3513 1497 
Q 3513 744 3044 326 
Q 2575 -91 1722 -91 
Q 1428 -91 1123 -41 
Q 819 9 494 109 
L 494 744 
Q 775 591 1075 516 
Q 1375 441 1709 441 
Q 2250 441 2565 725 
Q 2881 1009 2881 1497 
Q 2881 1984 2565 2268 
Q 2250 2553 1709 2553 
Q 1456 2553 1204 2497 
Q 953 2441 691 2322 
L 691 4666 
z
" transform="scale(0.015625)"/>
      </defs>
      <use xlink:href="#DejaVuSans-47"/>
      <use xlink:href="#DejaVuSans-50" transform="translate(77.490234 0)"/>
      <use xlink:href="#DejaVuSans-54" transform="translate(137.792969 0)"/>
      <use xlink:href="#DejaVuSans-2d" transform="translate(189.751953 0)"/>
      <use xlink:href="#DejaVuSans-33" transform="translate(225.835938 0)"/>
      <use xlink:href="#DejaVuSans-2e" transform="translate(289.458984 0)"/>
      <use xlink:href="#DejaVuSans-35" transform="translate(321.246094 0)"/>
     </g>
    </g>
    <g id="patch_45">
     <path d="M 99 206.573438 
L 119 206.573438 
L 119 199.573438 
L 99 199.573438 
z
" style="fill: #ff7f0e"/>
    </g>
    <g id="text_14">
     <!-- GPT-4o -->
     <g transform="translate(127 206.573438) scale(0.1 -0.1)">
      <use xlink:href="#DejaVuSans-47"/>
      <use xlink:href="#DejaVuSans-50" transform="translate(77.490234 0)"/>
      <use xlink:href="#DejaVuSans-54" transform="translate(137.792969 0)"/>
      <use xlink:href="#DejaVuSans-2d" transform="translate(189.751953 0)"/>
      <use xlink:href="#DejaVuSans-34" transform="translate(225.835938 0)"/>
      <use xlink:href="#DejaVuSans-6f" transform="translate(289.458984 0)"/>
     </g>
    </g>
    <g id="patch_46">
     <path d="M 99 221.251563 
L 119 221.251563 
L 119 214.251563 
L 99 214.251563 
z
" style="fill: #2ca02c"/>
    </g>
    <g id="text_15">
     <!-- GPT-4.1 -->
     <g transform="translate(127 221.251563) scale(0.1 -0.1)">
      <use xlink:href="#DejaVuSans-47"/>
      <use xlink:href="#DejaVuSans-50" transform="translate(77.490234 0)"/>
      <use xlink:href="#DejaVuSans-54" transform="translate(137.792969 0)"/>
      <use xlink:href="#DejaVuSans-2d" transform="translate(189.751953 0)"/>
      <use xlink:href="#DejaVuSans-34" transform="translate(225.835938 0)"/>
      <use xlink:href="#DejaVuSans-2e" transform="translate(289.458984 0)"/>
      <use xlink:href="#DejaVuSans-31" transform="translate(321.246094 0)"/>
     </g>
    </g>
    <g id="patch_47">
     <path d="M 99 235.929688 
L 119 235.929688 
L 119 228.929688 
L 99 228.929688 
z
" style="fill: #d62728"/>
    </g>
    <g id="text_16">
     <!-- Llama 3.1 405B -->
     <g transform="translate(127 235.929688) scale(0.1 -0.1)">
      <defs>
       <path id="DejaVuSans-4c" d="M 628 4666 
L 1259 4666 
L 1259 531 
L 3531 531 
L 3531 0 
L 628 0 
L 628 4666 
z
" transform="scale(0.015625)"/>
       <path id="DejaVuSans-6d" d="M 3328 2828 
Q 3544 3216 3844 3400 
Q 4144 3584 4550 3584 
Q 5097 3584 5394 3201 
Q 5691 2819 5691 2113 
L 5691 0 
L 5113 0 
L 5113 2094 
Q 5113 2597 4934 2840 
Q 4756 3084 4391 3084 
Q 3944 3084 3684 2787 
Q 3425 2491 3425 1978 
L 3425 0 
L 2847 0 
L 2847 2094 
Q 2847 2600 2669 2842 
Q 2491 3084 2119 3084 
Q 1678 3084 1418 2786 
Q 1159 2488 1159 1978 
L 1159 0 
L 581 0 
L 581 3500 
L 1159 3500 
L 1159 2956 
Q 1356 3278 1631 3431 
Q 1906 3584 2284 3584 
Q 2666 3584 2933 3390 
Q 3200 3197 3328 2828 
z
" transform="scale(0.015625)"/>
       <path id="DejaVuSans-42" d="M 1259 2228 
L 1259 519 
L 2272 519 
Q 2781 519 3026 730 
Q 3272 941 3272 1375 
Q 3272 1813 3026 2020 
Q 2781 2228 2272 2228 
L 1259 2228 
z
M 1259 4147 
L 1259 2741 
L 2194 2741 
Q 2656 2741 2882 2914 
Q 3109 3088 3109 3444 
Q 3109 3797 2882 3972 
Q 2656 4147 2194 4147 
L 1259 4147 
z
M 628 4666 
L 2241 4666 
Q 2963 4666 3353 4366 
Q 3744 4066 3744 3513 
Q 3744 3084 3544 2831 
Q 3344 2578 2956 2516 
Q 3422 2416 3680 2098 
Q 3938 1781 3938 1306 
Q 3938 681 3513 340 
Q 3088 0 2303 0 
L 628 0 
L 628 4666 
z
" transform="scale(0.015625)"/>
      </defs>
      <use xlink:href="#DejaVuSans-4c"/>
      <use xlink:href="#DejaVuSans-6c" transform="translate(55.712891 0)"/>
      <use xlink:href="#DejaVuSans-61" transform="translate(83.496094 0)"/>
      <use xlink:href="#DejaVuSans-6d" transform="translate(144.775391 0)"/>
      <use xlink:href="#DejaVuSans-61" transform="translate(242.1875 0)"/>
      <use xlink:href="#DejaVuSans-20" transform="translate(303.466797 0)"/>
      <use xlink:href="#DejaVuSans-33" transform="translate(335.253906 0)"/>
      <use xlink:href="#DejaVuSans-2e" transform="translate(398.876953 0)"/>
      <use xlink:href="#DejaVuSans-31" transform="translate(430.664062 0)"/>
      <use xlink:href="#DejaVuSans-20" transform="translate(494.287109 0)"/>
      <use xlink:href="#DejaVuSans-34" transform="translate(526.074219 0)"/>
      <use xlink:href="#DejaVuSans-30" transform="translate(589.697266 0)"/>
      <use xlink:href="#DejaVuSans-35" transform="translate(653.320312 0)"/>
      <use xlink:href="#DejaVuSans-42" transform="translate(716.943359 0)"/>
     </g>
    </g>
    <g id="patch_48">
     <path d="M 99 250.607813 
L 119 250.607813 
L 119 243.607813 
L 99 243.607813 
z
" style="fill: #9467bd"/>
    </g>
    <g id="text_17">
     <!-- Llama 3.3 70B -->
     <g transform="translate(127 250.607813) scale(0.1 -0.1)">
      <defs>
       <path id="DejaVuSans-37" d="M 525 4666 
L 3525 4666 
L 3525 4397 
L 1831 0 
L 1172 0 
L 2766 4134 
L 525 4134 
L 525 4666 
z
" transform="scale(0.015625)"/>
      </defs>
      <use xlink:href="#DejaVuSans-4c"/>
      <use xlink:href="#DejaVuSans-6c" transform="translate(55.712891 0)"/>
      <use xlink:href="#DejaVuSans-61" transform="translate(83.496094 0)"/>
      <use xlink:href="#DejaVuSans-6d" transform="translate(144.775391 0)"/>
      <use xlink:href="#DejaVuSans-61" transform="translate(242.1875 0)"/>
      <use xlink:href="#DejaVuSans-20" transform="translate(303.466797 0)"/>
      <use xlink:href="#DejaVuSans-33" transform="translate(335.253906 0)"/>
      <use xlink:href="#DejaVuSans-2e" transform="translate(398.876953 0)"/>
      <use xlink:href="#DejaVuSans-33" transform="translate(430.664062 0)"/>
      <use xlink:href="#DejaVuSans-20" transform="translate(494.287109 0)"/>
      <use xlink:href="#DejaVuSans-37" transform="translate(526.074219 0)"/>
      <use xlink:href="#DejaVuSans-30" transform="translate(589.697266 0)"/>
      <use xlink:href="#DejaVuSans-42" transform="translate(653.320312 0)"/>
     </g>
    </g>
    <g id="patch_49">
     <path d="M 99 265.285938 
L 119 265.285938 
L 119 258.285938 
L 99 258.285938 
z
" style="fill: #8c564b"/>
    </g>
    <g id="text_18">
     <!-- Llama 4 Maverick -->
     <g transform="translate(127 265.285938) scale(0.1 -0.1)">
      <defs>
       <path id="DejaVuSans-76" d="M 191 3500 
L 800 3500 
L 1894 563 
L 2988 3500 
L 3597 3500 
L 2284 0 
L 1503 0 
L 191 3500 
z
" transform="scale(0.015625)"/>
       <path id="DejaVuSans-6b" d="M 581 4863 
L 1159 4863 
L 1159 1991 
L 2875 3500 
L 3609 3500 
L 1753 1863 
L 3688 0 
L 2938 0 
L 1159 1709 
L 1159 0 
L 581 0 
L 581 4863 
z
" transform="scale(0.015625)"/>
      </defs>
      <use xlink:href="#DejaVuSans-4c"/>
      <use xlink:href="#DejaVuSans-6c" transform="translate(55.712891 0)"/>
      <use xlink:href="#DejaVuSans-61" transform="translate(83.496094 0)"/>
      <use xlink:href="#DejaVuSans-6d" transform="translate(144.775391 0)"/>
      <use xlink:href="#DejaVuSans-61" transform="translate(242.1875 0)"/>
      <use xlink:href="#DejaVuSans-20" transform="translate(303.466797 0)"/>
      <use xlink:href="#DejaVuSans-34" transform="translate(335.253906 0)"/>
      <use xlink:href="#DejaVuSans-20" transform="translate(398.876953 0)"/>
      <use xlink:href="#DejaVuSans-4d" transform="translate(430.664062 0)"/>
      <use xlink:href="#DejaVuSans-61" transform="translate(516.943359 0)"/>
      <use xlink:href="#DejaVuSans-76" transform="translate(578.222656 0)"/>
      <use xlink:href="#DejaVuSans-65" transform="translate(637.402344 0)"/>
      <use xlink:href="#DejaVuSans-72" transform="translate(698.925781 0)"/>
      <use xlink:href="#DejaVuSans-69" transform="translate(740.039062 0)"/>
      <use xlink:href="#DejaVuSans-63" transform="translate(767.822266 0)"/>
      <use xlink:href="#DejaVuSans-6b" transform="translate(822.802734 0)"/>
     </g>
    </g>
    <g id="patch_50">
     <path d="M 99 279.964063 
L 119 279.964063 
L 119 272.964063 
L 99 272.964063 
z
" style="fill: #e377c2"/>
    </g>
    <g id="text_19">
     <!-- Grok-3 -->
     <g transform="translate(127 279.964063) scale(0.1 -0.1)">
      <use xlink:href="#DejaVuSans-47"/>
      <use xlink:href="#DejaVuSans-72" transform="translate(77.490234 0)"/>
      <use xlink:href="#DejaVuSans-6f" transform="translate(116.353516 0)"/>
      <use xlink:href="#DejaVuSans-6b" transform="translate(177.535156 0)"/>
      <use xlink:href="#DejaVuSans-2d" transform="translate(235.445312 0)"/>
      <use xlink:href="#DejaVuSans-33" transform="translate(271.529297 0)"/>
     </g>
    </g>
    <g id="patch_51">
     <path d="M 99 294.642188 
L 119 294.642188 
L 119 287.642188 
L 99 287.642188 
z
" style="fill: #7f7f7f"/>
    </g>
    <g id="text_20">
     <!-- DeepSeek V3 -->
     <g transform="translate(127 294.642188) scale(0.1 -0.1)">
      <defs>
       <path id="DejaVuSans-44" d="M 1259 4147 
L 1259 519 
L 2022 519 
Q 2988 519 3436 956 
Q 3884 1394 3884 2338 
Q 3884 3275 3436 3711 
Q 2988 4147 2022 4147 
L 1259 4147 
z
M 628 4666 
L 1925 4666 
Q 3281 4666 3915 4102 
Q 4550 3538 4550 2338 
Q 4550 1131 3912 565 
Q 3275 0 1925 0 
L 628 0 
L 628 4666 
z
" transform="scale(0.015625)"/>
       <path id="DejaVuSans-56" d="M 1831 0 
L 50 4666 
L 709 4666 
L 2188 738 
L 3669 4666 
L 4325 4666 
L 2547 0 
L 1831 0 
z
" transform="scale(0.015625)"/>
      </defs>
      <use xlink:href="#DejaVuSans-44"/>
      <use xlink:href="#DejaVuSans-65" transform="translate(77.001953 0)"/>
      <use xlink:href="#DejaVuSans-65" transform="translate(138.525391 0)"/>
      <use xlink:href="#DejaVuSans-70" transform="translate(200.048828 0)"/>
      <use xlink:href="#DejaVuSans-53" transform="translate(263.525391 0)"/>
      <use xlink:href="#DejaVuSans-65" transform="translate(327.001953 0)"/>
      <use xlink:href="#DejaVuSans-65" transform="translate(388.525391 0)"/>
      <use xlink:href="#DejaVuSans-6b" transform="translate(450.048828 0)"/>
      <use xlink:href="#DejaVuSans-20" transform="translate(507.958984 0)"/>
      <use xlink:href="#DejaVuSans-56" transform="translate(539.746094 0)"/>
      <use xlink:href="#DejaVuSans-33" transform="translate(608.154297 0)"/>
     </g>
    </g>
    <g id="patch_52">
     <path d="M 99 309.320312 
L 119 309.320312 
L 119 302.320312 
L 99 302.320312 
z
" style="fill: #bcbd22"/>
    </g>
    <g id="text_21">
     <!-- DeepSeek R1 -->
     <g transform="translate(127 309.320312) scale(0.1 -0.1)">
      <defs>
       <path id="DejaVuSans-52" d="M 2841 2188 
Q 3044 2119 3236 1894 
Q 3428 1669 3622 1275 
L 4263 0 
L 3584 0 
L 2988 1197 
Q 2756 1666 2539 1819 
Q 2322 1972 1947 1972 
L 1259 1972 
L 1259 0 
L 628 0 
L 628 4666 
L 2053 4666 
Q 2853 4666 3247 4331 
Q 3641 3997 3641 3322 
Q 3641 2881 3436 2590 
Q 3231 2300 2841 2188 
z
M 1259 4147 
L 1259 2491 
L 2053 2491 
Q 2509 2491 2742 2702 
Q 2975 2913 2975 3322 
Q 2975 3731 2742 3939 
Q 2509 4147 2053 4147 
L 1259 4147 
z
" transform="scale(0.015625)"/>
      </defs>
      <use xlink:href="#DejaVuSans-44"/>
      <use xlink:href="#DejaVuSans-65" transform="translate(77.001953 0)"/>
      <use xlink:href="#DejaVuSans-65" transform="translate(138.525391 0)"/>
      <use xlink:href="#DejaVuSans-70" transform="translate(200.048828 0)"/>
      <use xlink:href="#DejaVuSans-53" transform="translate(263.525391 0)"/>
      <use xlink:href="#DejaVuSans-65" transform="translate(327.001953 0)"/>
      <use xlink:href="#DejaVuSans-65" transform="translate(388.525391 0)"/>
      <use xlink:href="#DejaVuSans-6b" transform="translate(450.048828 0)"/>
      <use xlink:href="#DejaVuSans-20" transform="translate(507.958984 0)"/>
      <use xlink:href="#DejaVuSans-52" transform="translate(539.746094 0)"/>
      <use xlink:href="#DejaVuSans-31" transform="translate(609.228516 0)"/>
     </g>
    </g>
   </g>
  </g>
 </g>
 <defs>
  <clipPath id="p9f103165f5">
   <rect x="90" y="43.2" width="558" height="277.2"/>
  </clipPath>
 </defs>
</svg>
