<?xml version="1.0" encoding="utf-8" standalone="no"?>
<!DOCTYPE svg PUBLIC "-//W3C//DTD SVG 1.1//EN"
  "http://www.w3.org/Graphics/SVG/1.1/DTD/svg11.dtd">
<svg xmlns:xlink="http://www.w3.org/1999/xlink" width="607.035pt" height="473.385487pt" viewBox="0 0 607.035 473.385487" xmlns="http://www.w3.org/2000/svg" version="1.1">
 <metadata>
  <rdf:RDF xmlns:dc="http://purl.org/dc/elements/1.1/" xmlns:cc="http://creativecommons.org/ns#" xmlns:rdf="http://www.w3.org/1999/02/22-rdf-syntax-ns#">
   <cc:Work>
    <dc:type rdf:resource="http://purl.org/dc/dcmitype/StillImage"/>
    <dc:date>2025-08-18T11:01:39.503449</dc:date>
    <dc:format>image/svg+xml</dc:format>
    <dc:creator>
     <cc:Agent>
      <dc:title>Matplotlib v3.10.3, https://matplotlib.org/</dc:title>
     </cc:Agent>
    </dc:creator>
   </cc:Work>
  </rdf:RDF>
 </metadata>
 <defs>
  <style type="text/css">*{stroke-linejoin: round; stroke-linecap: butt}</style>
 </defs>
 <g id="figure_1">
  <g id="patch_1">
   <path d="M 0 473.385487 
L 607.035 473.385487 
L 607.035 0 
L 0 0 
z
" style="fill: #ffffff"/>
  </g>
  <g id="axes_1">
   <g id="patch_2">
    <path d="M 41.835 344.854969 
L 599.835 344.854969 
L 599.835 12.214969 
L 41.835 12.214969 
z
" style="fill: #ffffff"/>
   </g>
   <g id="patch_3">
    <path d="M 57.335 400.294969 
L 88.335 400.294969 
L 88.335 263.542969 
L 57.335 263.542969 
z
" clip-path="url(#p6112a681c9)" style="fill: #1f77b4"/>
   </g>
   <g id="patch_4">
    <path d="M 119.335 400.294969 
L 150.335 400.294969 
L 150.335 298.285369 
L 119.335 298.285369 
z
" clip-path="url(#p6112a681c9)" style="fill: #ff7f0e"/>
   </g>
   <g id="patch_5">
    <path d="M 181.335 400.294969 
L 212.335 400.294969 
L 212.335 268.162969 
L 181.335 268.162969 
z
" clip-path="url(#p6112a681c9)" style="fill: #d62728"/>
   </g>
   <g id="patch_6">
    <path d="M 243.335 400.294969 
L 274.335 400.294969 
L 274.335 277.587769 
L 243.335 277.587769 
z
" clip-path="url(#p6112a681c9)" style="fill: #bcbd22"/>
   </g>
   <g id="patch_7">
    <path d="M 305.335 400.294969 
L 336.335 400.294969 
L 336.335 282.946969 
L 305.335 282.946969 
z
" clip-path="url(#p6112a681c9)" style="fill: #2ca02c"/>
   </g>
   <g id="patch_8">
    <path d="M 367.335 400.294969 
L 398.335 400.294969 
L 398.335 262.064569 
L 367.335 262.064569 
z
" clip-path="url(#p6112a681c9)" style="fill: #9467bd"/>
   </g>
   <g id="patch_9">
    <path d="M 429.335 400.294969 
L 460.335 400.294969 
L 460.335 217.342969 
L 429.335 217.342969 
z
" clip-path="url(#p6112a681c9)" style="fill: #8c564b"/>
   </g>
   <g id="patch_10">
    <path d="M 491.335 400.294969 
L 522.335 400.294969 
L 522.335 262.434169 
L 491.335 262.434169 
z
" clip-path="url(#p6112a681c9)" style="fill: #e377c2"/>
   </g>
   <g id="patch_11">
    <path d="M 553.335 400.294969 
L 584.335 400.294969 
L 584.335 198.493369 
L 553.335 198.493369 
z
" clip-path="url(#p6112a681c9)" style="fill: url(#hf7c391e062)"/>
   </g>
   <g id="matplotlib.axis_1">
    <g id="xtick_1">
     <g id="line2d_1">
      <defs>
       <path id="me9d452b21e" d="M 0 0 
L 0 4.8 
" style="stroke: #000000"/>
      </defs>
      <g>
       <use xlink:href="#me9d452b21e" x="72.835" y="344.854969" style="stroke: #000000"/>
      </g>
     </g>
     <g id="text_1">
      <!-- Claude 3.5 Sonnet -->
      <g transform="translate(32.380228 446.307846) rotate(-45) scale(0.132 -0.132)">
       <defs>
        <path id="DejaVuSans-43" d="M 4122 4306 
L 4122 3641 
Q 3803 3938 3442 4084 
Q 3081 4231 2675 4231 
Q 1875 4231 1450 3742 
Q 1025 3253 1025 2328 
Q 1025 1406 1450 917 
Q 1875 428 2675 428 
Q 3081 428 3442 575 
Q 3803 722 4122 1019 
L 4122 359 
Q 3791 134 3420 21 
Q 3050 -91 2638 -91 
Q 1578 -91 968 557 
Q 359 1206 359 2328 
Q 359 3453 968 4101 
Q 1578 4750 2638 4750 
Q 3056 4750 3426 4639 
Q 3797 4528 4122 4306 
z
" transform="scale(0.015625)"/>
        <path id="DejaVuSans-6c" d="M 603 4863 
L 1178 4863 
L 1178 0 
L 603 0 
L 603 4863 
z
" transform="scale(0.015625)"/>
        <path id="DejaVuSans-61" d="M 2194 1759 
Q 1497 1759 1228 1600 
Q 959 1441 959 1056 
Q 959 750 1161 570 
Q 1363 391 1709 391 
Q 2188 391 2477 730 
Q 2766 1069 2766 1631 
L 2766 1759 
L 2194 1759 
z
M 3341 1997 
L 3341 0 
L 2766 0 
L 2766 531 
Q 2569 213 2275 61 
Q 1981 -91 1556 -91 
Q 1019 -91 701 211 
Q 384 513 384 1019 
Q 384 1609 779 1909 
Q 1175 2209 1959 2209 
L 2766 2209 
L 2766 2266 
Q 2766 2663 2505 2880 
Q 2244 3097 1772 3097 
Q 1472 3097 1187 3025 
Q 903 2953 641 2809 
L 641 3341 
Q 956 3463 1253 3523 
Q 1550 3584 1831 3584 
Q 2591 3584 2966 3190 
Q 3341 2797 3341 1997 
z
" transform="scale(0.015625)"/>
        <path id="DejaVuSans-75" d="M 544 1381 
L 544 3500 
L 1119 3500 
L 1119 1403 
Q 1119 906 1312 657 
Q 1506 409 1894 409 
Q 2359 409 2629 706 
Q 2900 1003 2900 1516 
L 2900 3500 
L 3475 3500 
L 3475 0 
L 2900 0 
L 2900 538 
Q 2691 219 2414 64 
Q 2138 -91 1772 -91 
Q 1169 -91 856 284 
Q 544 659 544 1381 
z
M 1991 3584 
L 1991 3584 
z
" transform="scale(0.015625)"/>
        <path id="DejaVuSans-64" d="M 2906 2969 
L 2906 4863 
L 3481 4863 
L 3481 0 
L 2906 0 
L 2906 525 
Q 2725 213 2448 61 
Q 2172 -91 1784 -91 
Q 1150 -91 751 415 
Q 353 922 353 1747 
Q 353 2572 751 3078 
Q 1150 3584 1784 3584 
Q 2172 3584 2448 3432 
Q 2725 3281 2906 2969 
z
M 947 1747 
Q 947 1113 1208 752 
Q 1469 391 1925 391 
Q 2381 391 2643 752 
Q 2906 1113 2906 1747 
Q 2906 2381 2643 2742 
Q 2381 3103 1925 3103 
Q 1469 3103 1208 2742 
Q 947 2381 947 1747 
z
" transform="scale(0.015625)"/>
        <path id="DejaVuSans-65" d="M 3597 1894 
L 3597 1613 
L 953 1613 
Q 991 1019 1311 708 
Q 1631 397 2203 397 
Q 2534 397 2845 478 
Q 3156 559 3463 722 
L 3463 178 
Q 3153 47 2828 -22 
Q 2503 -91 2169 -91 
Q 1331 -91 842 396 
Q 353 884 353 1716 
Q 353 2575 817 3079 
Q 1281 3584 2069 3584 
Q 2775 3584 3186 3129 
Q 3597 2675 3597 1894 
z
M 3022 2063 
Q 3016 2534 2758 2815 
Q 2500 3097 2075 3097 
Q 1594 3097 1305 2825 
Q 1016 2553 972 2059 
L 3022 2063 
z
" transform="scale(0.015625)"/>
        <path id="DejaVuSans-20" transform="scale(0.015625)"/>
        <path id="DejaVuSans-33" d="M 2597 2516 
Q 3050 2419 3304 2112 
Q 3559 1806 3559 1356 
Q 3559 666 3084 287 
Q 2609 -91 1734 -91 
Q 1441 -91 1130 -33 
Q 819 25 488 141 
L 488 750 
Q 750 597 1062 519 
Q 1375 441 1716 441 
Q 2309 441 2620 675 
Q 2931 909 2931 1356 
Q 2931 1769 2642 2001 
Q 2353 2234 1838 2234 
L 1294 2234 
L 1294 2753 
L 1863 2753 
Q 2328 2753 2575 2939 
Q 2822 3125 2822 3475 
Q 2822 3834 2567 4026 
Q 2313 4219 1838 4219 
Q 1578 4219 1281 4162 
Q 984 4106 628 3988 
L 628 4550 
Q 988 4650 1302 4700 
Q 1616 4750 1894 4750 
Q 2613 4750 3031 4423 
Q 3450 4097 3450 3541 
Q 3450 3153 3228 2886 
Q 3006 2619 2597 2516 
z
" transform="scale(0.015625)"/>
        <path id="DejaVuSans-2e" d="M 684 794 
L 1344 794 
L 1344 0 
L 684 0 
L 684 794 
z
" transform="scale(0.015625)"/>
        <path id="DejaVuSans-35" d="M 691 4666 
L 3169 4666 
L 3169 4134 
L 1269 4134 
L 1269 2991 
Q 1406 3038 1543 3061 
Q 1681 3084 1819 3084 
Q 2600 3084 3056 2656 
Q 3513 2228 3513 1497 
Q 3513 744 3044 326 
Q 2575 -91 1722 -91 
Q 1428 -91 1123 -41 
Q 819 9 494 109 
L 494 744 
Q 775 591 1075 516 
Q 1375 441 1709 441 
Q 2250 441 2565 725 
Q 2881 1009 2881 1497 
Q 2881 1984 2565 2268 
Q 2250 2553 1709 2553 
Q 1456 2553 1204 2497 
Q 953 2441 691 2322 
L 691 4666 
z
" transform="scale(0.015625)"/>
        <path id="DejaVuSans-53" d="M 3425 4513 
L 3425 3897 
Q 3066 4069 2747 4153 
Q 2428 4238 2131 4238 
Q 1616 4238 1336 4038 
Q 1056 3838 1056 3469 
Q 1056 3159 1242 3001 
Q 1428 2844 1947 2747 
L 2328 2669 
Q 3034 2534 3370 2195 
Q 3706 1856 3706 1288 
Q 3706 609 3251 259 
Q 2797 -91 1919 -91 
Q 1588 -91 1214 -16 
Q 841 59 441 206 
L 441 856 
Q 825 641 1194 531 
Q 1563 422 1919 422 
Q 2459 422 2753 634 
Q 3047 847 3047 1241 
Q 3047 1584 2836 1778 
Q 2625 1972 2144 2069 
L 1759 2144 
Q 1053 2284 737 2584 
Q 422 2884 422 3419 
Q 422 4038 858 4394 
Q 1294 4750 2059 4750 
Q 2388 4750 2728 4690 
Q 3069 4631 3425 4513 
z
" transform="scale(0.015625)"/>
        <path id="DejaVuSans-6f" d="M 1959 3097 
Q 1497 3097 1228 2736 
Q 959 2375 959 1747 
Q 959 1119 1226 758 
Q 1494 397 1959 397 
Q 2419 397 2687 759 
Q 2956 1122 2956 1747 
Q 2956 2369 2687 2733 
Q 2419 3097 1959 3097 
z
M 1959 3584 
Q 2709 3584 3137 3096 
Q 3566 2609 3566 1747 
Q 3566 888 3137 398 
Q 2709 -91 1959 -91 
Q 1206 -91 779 398 
Q 353 888 353 1747 
Q 353 2609 779 3096 
Q 1206 3584 1959 3584 
z
" transform="scale(0.015625)"/>
        <path id="DejaVuSans-6e" d="M 3513 2113 
L 3513 0 
L 2938 0 
L 2938 2094 
Q 2938 2591 2744 2837 
Q 2550 3084 2163 3084 
Q 1697 3084 1428 2787 
Q 1159 2491 1159 1978 
L 1159 0 
L 581 0 
L 581 3500 
L 1159 3500 
L 1159 2956 
Q 1366 3272 1645 3428 
Q 1925 3584 2291 3584 
Q 2894 3584 3203 3211 
Q 3513 2838 3513 2113 
z
" transform="scale(0.015625)"/>
        <path id="DejaVuSans-74" d="M 1172 4494 
L 1172 3500 
L 2356 3500 
L 2356 3053 
L 1172 3053 
L 1172 1153 
Q 1172 725 1289 603 
Q 1406 481 1766 481 
L 2356 481 
L 2356 0 
L 1766 0 
Q 1100 0 847 248 
Q 594 497 594 1153 
L 594 3053 
L 172 3053 
L 172 3500 
L 594 3500 
L 594 4494 
L 1172 4494 
z
" transform="scale(0.015625)"/>
       </defs>
       <use xlink:href="#DejaVuSans-43"/>
       <use xlink:href="#DejaVuSans-6c" transform="translate(69.824219 0)"/>
       <use xlink:href="#DejaVuSans-61" transform="translate(97.607422 0)"/>
       <use xlink:href="#DejaVuSans-75" transform="translate(158.886719 0)"/>
       <use xlink:href="#DejaVuSans-64" transform="translate(222.265625 0)"/>
       <use xlink:href="#DejaVuSans-65" transform="translate(285.742188 0)"/>
       <use xlink:href="#DejaVuSans-20" transform="translate(347.265625 0)"/>
       <use xlink:href="#DejaVuSans-33" transform="translate(379.052734 0)"/>
       <use xlink:href="#DejaVuSans-2e" transform="translate(442.675781 0)"/>
       <use xlink:href="#DejaVuSans-35" transform="translate(474.462891 0)"/>
       <use xlink:href="#DejaVuSans-20" transform="translate(538.085938 0)"/>
       <use xlink:href="#DejaVuSans-53" transform="translate(569.873047 0)"/>
       <use xlink:href="#DejaVuSans-6f" transform="translate(633.349609 0)"/>
       <use xlink:href="#DejaVuSans-6e" transform="translate(694.53125 0)"/>
       <use xlink:href="#DejaVuSans-6e" transform="translate(757.910156 0)"/>
       <use xlink:href="#DejaVuSans-65" transform="translate(821.289062 0)"/>
       <use xlink:href="#DejaVuSans-74" transform="translate(882.8125 0)"/>
      </g>
     </g>
    </g>
    <g id="xtick_2">
     <g id="line2d_2">
      <g>
       <use xlink:href="#me9d452b21e" x="134.835" y="344.854969" style="stroke: #000000"/>
      </g>
     </g>
     <g id="text_2">
      <!-- DeepSeek-R1 -->
      <g transform="translate(105.806852 423.454597) rotate(-45) scale(0.132 -0.132)">
       <defs>
        <path id="DejaVuSans-44" d="M 1259 4147 
L 1259 519 
L 2022 519 
Q 2988 519 3436 956 
Q 3884 1394 3884 2338 
Q 3884 3275 3436 3711 
Q 2988 4147 2022 4147 
L 1259 4147 
z
M 628 4666 
L 1925 4666 
Q 3281 4666 3915 4102 
Q 4550 3538 4550 2338 
Q 4550 1131 3912 565 
Q 3275 0 1925 0 
L 628 0 
L 628 4666 
z
" transform="scale(0.015625)"/>
        <path id="DejaVuSans-70" d="M 1159 525 
L 1159 -1331 
L 581 -1331 
L 581 3500 
L 1159 3500 
L 1159 2969 
Q 1341 3281 1617 3432 
Q 1894 3584 2278 3584 
Q 2916 3584 3314 3078 
Q 3713 2572 3713 1747 
Q 3713 922 3314 415 
Q 2916 -91 2278 -91 
Q 1894 -91 1617 61 
Q 1341 213 1159 525 
z
M 3116 1747 
Q 3116 2381 2855 2742 
Q 2594 3103 2138 3103 
Q 1681 3103 1420 2742 
Q 1159 2381 1159 1747 
Q 1159 1113 1420 752 
Q 1681 391 2138 391 
Q 2594 391 2855 752 
Q 3116 1113 3116 1747 
z
" transform="scale(0.015625)"/>
        <path id="DejaVuSans-6b" d="M 581 4863 
L 1159 4863 
L 1159 1991 
L 2875 3500 
L 3609 3500 
L 1753 1863 
L 3688 0 
L 2938 0 
L 1159 1709 
L 1159 0 
L 581 0 
L 581 4863 
z
" transform="scale(0.015625)"/>
        <path id="DejaVuSans-2d" d="M 313 2009 
L 1997 2009 
L 1997 1497 
L 313 1497 
L 313 2009 
z
" transform="scale(0.015625)"/>
        <path id="DejaVuSans-52" d="M 2841 2188 
Q 3044 2119 3236 1894 
Q 3428 1669 3622 1275 
L 4263 0 
L 3584 0 
L 2988 1197 
Q 2756 1666 2539 1819 
Q 2322 1972 1947 1972 
L 1259 1972 
L 1259 0 
L 628 0 
L 628 4666 
L 2053 4666 
Q 2853 4666 3247 4331 
Q 3641 3997 3641 3322 
Q 3641 2881 3436 2590 
Q 3231 2300 2841 2188 
z
M 1259 4147 
L 1259 2491 
L 2053 2491 
Q 2509 2491 2742 2702 
Q 2975 2913 2975 3322 
Q 2975 3731 2742 3939 
Q 2509 4147 2053 4147 
L 1259 4147 
z
" transform="scale(0.015625)"/>
        <path id="DejaVuSans-31" d="M 794 531 
L 1825 531 
L 1825 4091 
L 703 3866 
L 703 4441 
L 1819 4666 
L 2450 4666 
L 2450 531 
L 3481 531 
L 3481 0 
L 794 0 
L 794 531 
z
" transform="scale(0.015625)"/>
       </defs>
       <use xlink:href="#DejaVuSans-44"/>
       <use xlink:href="#DejaVuSans-65" transform="translate(77.001953 0)"/>
       <use xlink:href="#DejaVuSans-65" transform="translate(138.525391 0)"/>
       <use xlink:href="#DejaVuSans-70" transform="translate(200.048828 0)"/>
       <use xlink:href="#DejaVuSans-53" transform="translate(263.525391 0)"/>
       <use xlink:href="#DejaVuSans-65" transform="translate(327.001953 0)"/>
       <use xlink:href="#DejaVuSans-65" transform="translate(388.525391 0)"/>
       <use xlink:href="#DejaVuSans-6b" transform="translate(450.048828 0)"/>
       <use xlink:href="#DejaVuSans-2d" transform="translate(507.958984 0)"/>
       <use xlink:href="#DejaVuSans-52" transform="translate(544.042969 0)"/>
       <use xlink:href="#DejaVuSans-31" transform="translate(613.525391 0)"/>
      </g>
     </g>
    </g>
    <g id="xtick_3">
     <g id="line2d_3">
      <g>
       <use xlink:href="#me9d452b21e" x="196.835" y="344.854969" style="stroke: #000000"/>
      </g>
     </g>
     <g id="text_3">
      <!-- GPT-4o -->
      <g transform="translate(183.047213 392.973875) rotate(-45) scale(0.132 -0.132)">
       <defs>
        <path id="DejaVuSans-47" d="M 3809 666 
L 3809 1919 
L 2778 1919 
L 2778 2438 
L 4434 2438 
L 4434 434 
Q 4069 175 3628 42 
Q 3188 -91 2688 -91 
Q 1594 -91 976 548 
Q 359 1188 359 2328 
Q 359 3472 976 4111 
Q 1594 4750 2688 4750 
Q 3144 4750 3555 4637 
Q 3966 4525 4313 4306 
L 4313 3634 
Q 3963 3931 3569 4081 
Q 3175 4231 2741 4231 
Q 1884 4231 1454 3753 
Q 1025 3275 1025 2328 
Q 1025 1384 1454 906 
Q 1884 428 2741 428 
Q 3075 428 3337 486 
Q 3600 544 3809 666 
z
" transform="scale(0.015625)"/>
        <path id="DejaVuSans-50" d="M 1259 4147 
L 1259 2394 
L 2053 2394 
Q 2494 2394 2734 2622 
Q 2975 2850 2975 3272 
Q 2975 3691 2734 3919 
Q 2494 4147 2053 4147 
L 1259 4147 
z
M 628 4666 
L 2053 4666 
Q 2838 4666 3239 4311 
Q 3641 3956 3641 3272 
Q 3641 2581 3239 2228 
Q 2838 1875 2053 1875 
L 1259 1875 
L 1259 0 
L 628 0 
L 628 4666 
z
" transform="scale(0.015625)"/>
        <path id="DejaVuSans-54" d="M -19 4666 
L 3928 4666 
L 3928 4134 
L 2272 4134 
L 2272 0 
L 1638 0 
L 1638 4134 
L -19 4134 
L -19 4666 
z
" transform="scale(0.015625)"/>
        <path id="DejaVuSans-34" d="M 2419 4116 
L 825 1625 
L 2419 1625 
L 2419 4116 
z
M 2253 4666 
L 3047 4666 
L 3047 1625 
L 3713 1625 
L 3713 1100 
L 3047 1100 
L 3047 0 
L 2419 0 
L 2419 1100 
L 313 1100 
L 313 1709 
L 2253 4666 
z
" transform="scale(0.015625)"/>
       </defs>
       <use xlink:href="#DejaVuSans-47"/>
       <use xlink:href="#DejaVuSans-50" transform="translate(77.490234 0)"/>
       <use xlink:href="#DejaVuSans-54" transform="translate(137.792969 0)"/>
       <use xlink:href="#DejaVuSans-2d" transform="translate(189.751953 0)"/>
       <use xlink:href="#DejaVuSans-34" transform="translate(225.835938 0)"/>
       <use xlink:href="#DejaVuSans-6f" transform="translate(289.458984 0)"/>
      </g>
     </g>
    </g>
    <g id="xtick_4">
     <g id="line2d_4">
      <g>
       <use xlink:href="#me9d452b21e" x="258.835" y="344.854969" style="stroke: #000000"/>
      </g>
     </g>
     <g id="text_4">
      <!-- GPT-5 -->
      <g transform="translate(247.902776 387.26275) rotate(-45) scale(0.132 -0.132)">
       <use xlink:href="#DejaVuSans-47"/>
       <use xlink:href="#DejaVuSans-50" transform="translate(77.490234 0)"/>
       <use xlink:href="#DejaVuSans-54" transform="translate(137.792969 0)"/>
       <use xlink:href="#DejaVuSans-2d" transform="translate(189.751953 0)"/>
       <use xlink:href="#DejaVuSans-35" transform="translate(225.835938 0)"/>
      </g>
     </g>
    </g>
    <g id="xtick_5">
     <g id="line2d_5">
      <g>
       <use xlink:href="#me9d452b21e" x="320.835" y="344.854969" style="stroke: #000000"/>
      </g>
     </g>
     <g id="text_5">
      <!-- Gemini 1.5 Pro -->
      <g transform="translate(289.036607 428.995088) rotate(-45) scale(0.132 -0.132)">
       <defs>
        <path id="DejaVuSans-6d" d="M 3328 2828 
Q 3544 3216 3844 3400 
Q 4144 3584 4550 3584 
Q 5097 3584 5394 3201 
Q 5691 2819 5691 2113 
L 5691 0 
L 5113 0 
L 5113 2094 
Q 5113 2597 4934 2840 
Q 4756 3084 4391 3084 
Q 3944 3084 3684 2787 
Q 3425 2491 3425 1978 
L 3425 0 
L 2847 0 
L 2847 2094 
Q 2847 2600 2669 2842 
Q 2491 3084 2119 3084 
Q 1678 3084 1418 2786 
Q 1159 2488 1159 1978 
L 1159 0 
L 581 0 
L 581 3500 
L 1159 3500 
L 1159 2956 
Q 1356 3278 1631 3431 
Q 1906 3584 2284 3584 
Q 2666 3584 2933 3390 
Q 3200 3197 3328 2828 
z
" transform="scale(0.015625)"/>
        <path id="DejaVuSans-69" d="M 603 3500 
L 1178 3500 
L 1178 0 
L 603 0 
L 603 3500 
z
M 603 4863 
L 1178 4863 
L 1178 4134 
L 603 4134 
L 603 4863 
z
" transform="scale(0.015625)"/>
        <path id="DejaVuSans-72" d="M 2631 2963 
Q 2534 3019 2420 3045 
Q 2306 3072 2169 3072 
Q 1681 3072 1420 2755 
Q 1159 2438 1159 1844 
L 1159 0 
L 581 0 
L 581 3500 
L 1159 3500 
L 1159 2956 
Q 1341 3275 1631 3429 
Q 1922 3584 2338 3584 
Q 2397 3584 2469 3576 
Q 2541 3569 2628 3553 
L 2631 2963 
z
" transform="scale(0.015625)"/>
       </defs>
       <use xlink:href="#DejaVuSans-47"/>
       <use xlink:href="#DejaVuSans-65" transform="translate(77.490234 0)"/>
       <use xlink:href="#DejaVuSans-6d" transform="translate(139.013672 0)"/>
       <use xlink:href="#DejaVuSans-69" transform="translate(236.425781 0)"/>
       <use xlink:href="#DejaVuSans-6e" transform="translate(264.208984 0)"/>
       <use xlink:href="#DejaVuSans-69" transform="translate(327.587891 0)"/>
       <use xlink:href="#DejaVuSans-20" transform="translate(355.371094 0)"/>
       <use xlink:href="#DejaVuSans-31" transform="translate(387.158203 0)"/>
       <use xlink:href="#DejaVuSans-2e" transform="translate(450.78125 0)"/>
       <use xlink:href="#DejaVuSans-35" transform="translate(482.568359 0)"/>
       <use xlink:href="#DejaVuSans-20" transform="translate(546.191406 0)"/>
       <use xlink:href="#DejaVuSans-50" transform="translate(577.978516 0)"/>
       <use xlink:href="#DejaVuSans-72" transform="translate(636.53125 0)"/>
       <use xlink:href="#DejaVuSans-6f" transform="translate(675.394531 0)"/>
      </g>
     </g>
    </g>
    <g id="xtick_6">
     <g id="line2d_6">
      <g>
       <use xlink:href="#me9d452b21e" x="382.835" y="344.854969" style="stroke: #000000"/>
      </g>
     </g>
     <g id="text_6">
      <!-- Grok 3 -->
      <g transform="translate(369.970385 391.127531) rotate(-45) scale(0.132 -0.132)">
       <use xlink:href="#DejaVuSans-47"/>
       <use xlink:href="#DejaVuSans-72" transform="translate(77.490234 0)"/>
       <use xlink:href="#DejaVuSans-6f" transform="translate(116.353516 0)"/>
       <use xlink:href="#DejaVuSans-6b" transform="translate(177.535156 0)"/>
       <use xlink:href="#DejaVuSans-20" transform="translate(235.445312 0)"/>
       <use xlink:href="#DejaVuSans-33" transform="translate(267.232422 0)"/>
      </g>
     </g>
    </g>
    <g id="xtick_7">
     <g id="line2d_7">
      <g>
       <use xlink:href="#me9d452b21e" x="444.835" y="344.854969" style="stroke: #000000"/>
      </g>
     </g>
     <g id="text_7">
      <!-- Llama 4 Maverick -->
      <g transform="translate(406.308243 442.451816) rotate(-45) scale(0.132 -0.132)">
       <defs>
        <path id="DejaVuSans-4c" d="M 628 4666 
L 1259 4666 
L 1259 531 
L 3531 531 
L 3531 0 
L 628 0 
L 628 4666 
z
" transform="scale(0.015625)"/>
        <path id="DejaVuSans-4d" d="M 628 4666 
L 1569 4666 
L 2759 1491 
L 3956 4666 
L 4897 4666 
L 4897 0 
L 4281 0 
L 4281 4097 
L 3078 897 
L 2444 897 
L 1241 4097 
L 1241 0 
L 628 0 
L 628 4666 
z
" transform="scale(0.015625)"/>
        <path id="DejaVuSans-76" d="M 191 3500 
L 800 3500 
L 1894 563 
L 2988 3500 
L 3597 3500 
L 2284 0 
L 1503 0 
L 191 3500 
z
" transform="scale(0.015625)"/>
        <path id="DejaVuSans-63" d="M 3122 3366 
L 3122 2828 
Q 2878 2963 2633 3030 
Q 2388 3097 2138 3097 
Q 1578 3097 1268 2742 
Q 959 2388 959 1747 
Q 959 1106 1268 751 
Q 1578 397 2138 397 
Q 2388 397 2633 464 
Q 2878 531 3122 666 
L 3122 134 
Q 2881 22 2623 -34 
Q 2366 -91 2075 -91 
Q 1284 -91 818 406 
Q 353 903 353 1747 
Q 353 2603 823 3093 
Q 1294 3584 2113 3584 
Q 2378 3584 2631 3529 
Q 2884 3475 3122 3366 
z
" transform="scale(0.015625)"/>
       </defs>
       <use xlink:href="#DejaVuSans-4c"/>
       <use xlink:href="#DejaVuSans-6c" transform="translate(55.712891 0)"/>
       <use xlink:href="#DejaVuSans-61" transform="translate(83.496094 0)"/>
       <use xlink:href="#DejaVuSans-6d" transform="translate(144.775391 0)"/>
       <use xlink:href="#DejaVuSans-61" transform="translate(242.1875 0)"/>
       <use xlink:href="#DejaVuSans-20" transform="translate(303.466797 0)"/>
       <use xlink:href="#DejaVuSans-34" transform="translate(335.253906 0)"/>
       <use xlink:href="#DejaVuSans-20" transform="translate(398.876953 0)"/>
       <use xlink:href="#DejaVuSans-4d" transform="translate(430.664062 0)"/>
       <use xlink:href="#DejaVuSans-61" transform="translate(516.943359 0)"/>
       <use xlink:href="#DejaVuSans-76" transform="translate(578.222656 0)"/>
       <use xlink:href="#DejaVuSans-65" transform="translate(637.402344 0)"/>
       <use xlink:href="#DejaVuSans-72" transform="translate(698.925781 0)"/>
       <use xlink:href="#DejaVuSans-69" transform="translate(740.039062 0)"/>
       <use xlink:href="#DejaVuSans-63" transform="translate(767.822266 0)"/>
       <use xlink:href="#DejaVuSans-6b" transform="translate(822.802734 0)"/>
      </g>
     </g>
    </g>
    <g id="xtick_8">
     <g id="line2d_8">
      <g>
       <use xlink:href="#me9d452b21e" x="506.835" y="344.854969" style="stroke: #000000"/>
      </g>
     </g>
     <g id="text_8">
      <!-- Qwen3 -->
      <g transform="translate(493.121592 392.825118) rotate(-45) scale(0.132 -0.132)">
       <defs>
        <path id="DejaVuSans-51" d="M 2522 4238 
Q 1834 4238 1429 3725 
Q 1025 3213 1025 2328 
Q 1025 1447 1429 934 
Q 1834 422 2522 422 
Q 3209 422 3611 934 
Q 4013 1447 4013 2328 
Q 4013 3213 3611 3725 
Q 3209 4238 2522 4238 
z
M 3406 84 
L 4238 -825 
L 3475 -825 
L 2784 -78 
Q 2681 -84 2626 -87 
Q 2572 -91 2522 -91 
Q 1538 -91 948 567 
Q 359 1225 359 2328 
Q 359 3434 948 4092 
Q 1538 4750 2522 4750 
Q 3503 4750 4090 4092 
Q 4678 3434 4678 2328 
Q 4678 1516 4351 937 
Q 4025 359 3406 84 
z
" transform="scale(0.015625)"/>
        <path id="DejaVuSans-77" d="M 269 3500 
L 844 3500 
L 1563 769 
L 2278 3500 
L 2956 3500 
L 3675 769 
L 4391 3500 
L 4966 3500 
L 4050 0 
L 3372 0 
L 2619 2869 
L 1863 0 
L 1184 0 
L 269 3500 
z
" transform="scale(0.015625)"/>
       </defs>
       <use xlink:href="#DejaVuSans-51"/>
       <use xlink:href="#DejaVuSans-77" transform="translate(78.710938 0)"/>
       <use xlink:href="#DejaVuSans-65" transform="translate(160.498047 0)"/>
       <use xlink:href="#DejaVuSans-6e" transform="translate(222.021484 0)"/>
       <use xlink:href="#DejaVuSans-33" transform="translate(285.400391 0)"/>
      </g>
     </g>
    </g>
    <g id="xtick_9">
     <g id="line2d_9">
      <g>
       <use xlink:href="#me9d452b21e" x="568.835" y="344.854969" style="stroke: #000000"/>
      </g>
     </g>
     <g id="text_9">
      <!-- Humans -->
      <g transform="translate(552.148628 398.771046) rotate(-45) scale(0.132 -0.132)">
       <defs>
        <path id="DejaVuSans-48" d="M 628 4666 
L 1259 4666 
L 1259 2753 
L 3553 2753 
L 3553 4666 
L 4184 4666 
L 4184 0 
L 3553 0 
L 3553 2222 
L 1259 2222 
L 1259 0 
L 628 0 
L 628 4666 
z
" transform="scale(0.015625)"/>
        <path id="DejaVuSans-73" d="M 2834 3397 
L 2834 2853 
Q 2591 2978 2328 3040 
Q 2066 3103 1784 3103 
Q 1356 3103 1142 2972 
Q 928 2841 928 2578 
Q 928 2378 1081 2264 
Q 1234 2150 1697 2047 
L 1894 2003 
Q 2506 1872 2764 1633 
Q 3022 1394 3022 966 
Q 3022 478 2636 193 
Q 2250 -91 1575 -91 
Q 1294 -91 989 -36 
Q 684 19 347 128 
L 347 722 
Q 666 556 975 473 
Q 1284 391 1588 391 
Q 1994 391 2212 530 
Q 2431 669 2431 922 
Q 2431 1156 2273 1281 
Q 2116 1406 1581 1522 
L 1381 1569 
Q 847 1681 609 1914 
Q 372 2147 372 2553 
Q 372 3047 722 3315 
Q 1072 3584 1716 3584 
Q 2034 3584 2315 3537 
Q 2597 3491 2834 3397 
z
" transform="scale(0.015625)"/>
       </defs>
       <use xlink:href="#DejaVuSans-48"/>
       <use xlink:href="#DejaVuSans-75" transform="translate(75.195312 0)"/>
       <use xlink:href="#DejaVuSans-6d" transform="translate(138.574219 0)"/>
       <use xlink:href="#DejaVuSans-61" transform="translate(235.986328 0)"/>
       <use xlink:href="#DejaVuSans-6e" transform="translate(297.265625 0)"/>
       <use xlink:href="#DejaVuSans-73" transform="translate(360.644531 0)"/>
      </g>
     </g>
    </g>
    <g id="text_10">
     <!-- Survey respondent -->
     <g transform="translate(252.59475 463.190737) scale(0.144 -0.144)">
      <defs>
       <path id="DejaVuSans-79" d="M 2059 -325 
Q 1816 -950 1584 -1140 
Q 1353 -1331 966 -1331 
L 506 -1331 
L 506 -850 
L 844 -850 
Q 1081 -850 1212 -737 
Q 1344 -625 1503 -206 
L 1606 56 
L 191 3500 
L 800 3500 
L 1894 763 
L 2988 3500 
L 3597 3500 
L 2059 -325 
z
" transform="scale(0.015625)"/>
      </defs>
      <use xlink:href="#DejaVuSans-53"/>
      <use xlink:href="#DejaVuSans-75" transform="translate(63.476562 0)"/>
      <use xlink:href="#DejaVuSans-72" transform="translate(126.855469 0)"/>
      <use xlink:href="#DejaVuSans-76" transform="translate(167.96875 0)"/>
      <use xlink:href="#DejaVuSans-65" transform="translate(227.148438 0)"/>
      <use xlink:href="#DejaVuSans-79" transform="translate(288.671875 0)"/>
      <use xlink:href="#DejaVuSans-20" transform="translate(347.851562 0)"/>
      <use xlink:href="#DejaVuSans-72" transform="translate(379.638672 0)"/>
      <use xlink:href="#DejaVuSans-65" transform="translate(418.501953 0)"/>
      <use xlink:href="#DejaVuSans-73" transform="translate(480.025391 0)"/>
      <use xlink:href="#DejaVuSans-70" transform="translate(532.125 0)"/>
      <use xlink:href="#DejaVuSans-6f" transform="translate(595.601562 0)"/>
      <use xlink:href="#DejaVuSans-6e" transform="translate(656.783203 0)"/>
      <use xlink:href="#DejaVuSans-64" transform="translate(720.162109 0)"/>
      <use xlink:href="#DejaVuSans-65" transform="translate(783.638672 0)"/>
      <use xlink:href="#DejaVuSans-6e" transform="translate(845.162109 0)"/>
      <use xlink:href="#DejaVuSans-74" transform="translate(908.541016 0)"/>
     </g>
    </g>
   </g>
   <g id="matplotlib.axis_2">
    <g id="ytick_1">
     <g id="line2d_10">
      <path d="M 41.835 344.854969 
L 599.835 344.854969 
" clip-path="url(#p6112a681c9)" style="fill: none; stroke-dasharray: 2.96,1.28; stroke-dashoffset: 0; stroke: #b0b0b0; stroke-opacity: 0.7; stroke-width: 0.8"/>
     </g>
     <g id="line2d_11">
      <defs>
       <path id="mecd80ae1e7" d="M 0 0 
L -4.8 0 
" style="stroke: #000000"/>
      </defs>
      <g>
       <use xlink:href="#mecd80ae1e7" x="41.835" y="344.854969" style="stroke: #000000"/>
      </g>
     </g>
     <g id="text_11">
      <!-- 1 -->
      <g transform="translate(25.1365 349.869937) scale(0.132 -0.132)">
       <use xlink:href="#DejaVuSans-31"/>
      </g>
     </g>
    </g>
    <g id="ytick_2">
     <g id="line2d_12">
      <path d="M 41.835 289.414969 
L 599.835 289.414969 
" clip-path="url(#p6112a681c9)" style="fill: none; stroke-dasharray: 2.96,1.28; stroke-dashoffset: 0; stroke: #b0b0b0; stroke-opacity: 0.7; stroke-width: 0.8"/>
     </g>
     <g id="line2d_13">
      <g>
       <use xlink:href="#mecd80ae1e7" x="41.835" y="289.414969" style="stroke: #000000"/>
      </g>
     </g>
     <g id="text_12">
      <!-- 2 -->
      <g transform="translate(25.1365 294.429937) scale(0.132 -0.132)">
       <defs>
        <path id="DejaVuSans-32" d="M 1228 531 
L 3431 531 
L 3431 0 
L 469 0 
L 469 531 
Q 828 903 1448 1529 
Q 2069 2156 2228 2338 
Q 2531 2678 2651 2914 
Q 2772 3150 2772 3378 
Q 2772 3750 2511 3984 
Q 2250 4219 1831 4219 
Q 1534 4219 1204 4116 
Q 875 4013 500 3803 
L 500 4441 
Q 881 4594 1212 4672 
Q 1544 4750 1819 4750 
Q 2544 4750 2975 4387 
Q 3406 4025 3406 3419 
Q 3406 3131 3298 2873 
Q 3191 2616 2906 2266 
Q 2828 2175 2409 1742 
Q 1991 1309 1228 531 
z
" transform="scale(0.015625)"/>
       </defs>
       <use xlink:href="#DejaVuSans-32"/>
      </g>
     </g>
    </g>
    <g id="ytick_3">
     <g id="line2d_14">
      <path d="M 41.835 233.974969 
L 599.835 233.974969 
" clip-path="url(#p6112a681c9)" style="fill: none; stroke-dasharray: 2.96,1.28; stroke-dashoffset: 0; stroke: #b0b0b0; stroke-opacity: 0.7; stroke-width: 0.8"/>
     </g>
     <g id="line2d_15">
      <g>
       <use xlink:href="#mecd80ae1e7" x="41.835" y="233.974969" style="stroke: #000000"/>
      </g>
     </g>
     <g id="text_13">
      <!-- 3 -->
      <g transform="translate(25.1365 238.989937) scale(0.132 -0.132)">
       <use xlink:href="#DejaVuSans-33"/>
      </g>
     </g>
    </g>
    <g id="ytick_4">
     <g id="line2d_16">
      <path d="M 41.835 178.534969 
L 599.835 178.534969 
" clip-path="url(#p6112a681c9)" style="fill: none; stroke-dasharray: 2.96,1.28; stroke-dashoffset: 0; stroke: #b0b0b0; stroke-opacity: 0.7; stroke-width: 0.8"/>
     </g>
     <g id="line2d_17">
      <g>
       <use xlink:href="#mecd80ae1e7" x="41.835" y="178.534969" style="stroke: #000000"/>
      </g>
     </g>
     <g id="text_14">
      <!-- 4 -->
      <g transform="translate(25.1365 183.549937) scale(0.132 -0.132)">
       <use xlink:href="#DejaVuSans-34"/>
      </g>
     </g>
    </g>
    <g id="ytick_5">
     <g id="line2d_18">
      <path d="M 41.835 123.094969 
L 599.835 123.094969 
" clip-path="url(#p6112a681c9)" style="fill: none; stroke-dasharray: 2.96,1.28; stroke-dashoffset: 0; stroke: #b0b0b0; stroke-opacity: 0.7; stroke-width: 0.8"/>
     </g>
     <g id="line2d_19">
      <g>
       <use xlink:href="#mecd80ae1e7" x="41.835" y="123.094969" style="stroke: #000000"/>
      </g>
     </g>
     <g id="text_15">
      <!-- 5 -->
      <g transform="translate(25.1365 128.109938) scale(0.132 -0.132)">
       <use xlink:href="#DejaVuSans-35"/>
      </g>
     </g>
    </g>
    <g id="ytick_6">
     <g id="line2d_20">
      <path d="M 41.835 67.654969 
L 599.835 67.654969 
" clip-path="url(#p6112a681c9)" style="fill: none; stroke-dasharray: 2.96,1.28; stroke-dashoffset: 0; stroke: #b0b0b0; stroke-opacity: 0.7; stroke-width: 0.8"/>
     </g>
     <g id="line2d_21">
      <g>
       <use xlink:href="#mecd80ae1e7" x="41.835" y="67.654969" style="stroke: #000000"/>
      </g>
     </g>
     <g id="text_16">
      <!-- 6 -->
      <g transform="translate(25.1365 72.669937) scale(0.132 -0.132)">
       <defs>
        <path id="DejaVuSans-36" d="M 2113 2584 
Q 1688 2584 1439 2293 
Q 1191 2003 1191 1497 
Q 1191 994 1439 701 
Q 1688 409 2113 409 
Q 2538 409 2786 701 
Q 3034 994 3034 1497 
Q 3034 2003 2786 2293 
Q 2538 2584 2113 2584 
z
M 3366 4563 
L 3366 3988 
Q 3128 4100 2886 4159 
Q 2644 4219 2406 4219 
Q 1781 4219 1451 3797 
Q 1122 3375 1075 2522 
Q 1259 2794 1537 2939 
Q 1816 3084 2150 3084 
Q 2853 3084 3261 2657 
Q 3669 2231 3669 1497 
Q 3669 778 3244 343 
Q 2819 -91 2113 -91 
Q 1303 -91 875 529 
Q 447 1150 447 2328 
Q 447 3434 972 4092 
Q 1497 4750 2381 4750 
Q 2619 4750 2861 4703 
Q 3103 4656 3366 4563 
z
" transform="scale(0.015625)"/>
       </defs>
       <use xlink:href="#DejaVuSans-36"/>
      </g>
     </g>
    </g>
    <g id="ytick_7">
     <g id="line2d_22">
      <path d="M 41.835 12.214969 
L 599.835 12.214969 
" clip-path="url(#p6112a681c9)" style="fill: none; stroke-dasharray: 2.96,1.28; stroke-dashoffset: 0; stroke: #b0b0b0; stroke-opacity: 0.7; stroke-width: 0.8"/>
     </g>
     <g id="line2d_23">
      <g>
       <use xlink:href="#mecd80ae1e7" x="41.835" y="12.214969" style="stroke: #000000"/>
      </g>
     </g>
     <g id="text_17">
      <!-- 7 -->
      <g transform="translate(25.1365 17.229938) scale(0.132 -0.132)">
       <defs>
        <path id="DejaVuSans-37" d="M 525 4666 
L 3525 4666 
L 3525 4397 
L 1831 0 
L 1172 0 
L 2766 4134 
L 525 4134 
L 525 4666 
z
" transform="scale(0.015625)"/>
       </defs>
       <use xlink:href="#DejaVuSans-37"/>
      </g>
     </g>
    </g>
    <g id="text_18">
     <!-- Speciesism score -->
     <g transform="translate(18.14175 240.642844) rotate(-90) scale(0.144 -0.144)">
      <use xlink:href="#DejaVuSans-53"/>
      <use xlink:href="#DejaVuSans-70" transform="translate(63.476562 0)"/>
      <use xlink:href="#DejaVuSans-65" transform="translate(126.953125 0)"/>
      <use xlink:href="#DejaVuSans-63" transform="translate(188.476562 0)"/>
      <use xlink:href="#DejaVuSans-69" transform="translate(243.457031 0)"/>
      <use xlink:href="#DejaVuSans-65" transform="translate(271.240234 0)"/>
      <use xlink:href="#DejaVuSans-73" transform="translate(332.763672 0)"/>
      <use xlink:href="#DejaVuSans-69" transform="translate(384.863281 0)"/>
      <use xlink:href="#DejaVuSans-73" transform="translate(412.646484 0)"/>
      <use xlink:href="#DejaVuSans-6d" transform="translate(464.746094 0)"/>
      <use xlink:href="#DejaVuSans-20" transform="translate(562.158203 0)"/>
      <use xlink:href="#DejaVuSans-73" transform="translate(593.945312 0)"/>
      <use xlink:href="#DejaVuSans-63" transform="translate(646.044922 0)"/>
      <use xlink:href="#DejaVuSans-6f" transform="translate(701.025391 0)"/>
      <use xlink:href="#DejaVuSans-72" transform="translate(762.207031 0)"/>
      <use xlink:href="#DejaVuSans-65" transform="translate(801.070312 0)"/>
     </g>
    </g>
   </g>
   <g id="LineCollection_1">
    <path d="M 72.835 271.679995 
L 72.835 255.405942 
" clip-path="url(#p6112a681c9)" style="fill: none; stroke: #000000; stroke-width: 1.2"/>
    <path d="M 134.835 311.480088 
L 134.835 285.09065 
" clip-path="url(#p6112a681c9)" style="fill: none; stroke: #000000; stroke-width: 1.2"/>
    <path d="M 196.835 283.920253 
L 196.835 252.405685 
" clip-path="url(#p6112a681c9)" style="fill: none; stroke: #000000; stroke-width: 1.2"/>
    <path d="M 258.835 302.496277 
L 258.835 252.67926 
" clip-path="url(#p6112a681c9)" style="fill: none; stroke: #000000; stroke-width: 1.2"/>
    <path d="M 320.835 298.481524 
L 320.835 267.412414 
" clip-path="url(#p6112a681c9)" style="fill: none; stroke: #000000; stroke-width: 1.2"/>
    <path d="M 382.835 270.610995 
L 382.835 253.518142 
" clip-path="url(#p6112a681c9)" style="fill: none; stroke: #000000; stroke-width: 1.2"/>
    <path d="M 444.835 234.854748 
L 444.835 199.83119 
" clip-path="url(#p6112a681c9)" style="fill: none; stroke: #000000; stroke-width: 1.2"/>
    <path d="M 506.835 283.540965 
L 506.835 241.327373 
" clip-path="url(#p6112a681c9)" style="fill: none; stroke: #000000; stroke-width: 1.2"/>
    <path d="M 568.835 267.793369 
L 568.835 129.193369 
" clip-path="url(#p6112a681c9)" style="fill: none; stroke: #000000; stroke-width: 1.2"/>
   </g>
   <g id="line2d_24">
    <defs>
     <path id="m7403239b3d" d="M 5 0 
L -5 -0 
" style="stroke: #000000"/>
    </defs>
    <g clip-path="url(#p6112a681c9)">
     <use xlink:href="#m7403239b3d" x="72.835" y="271.679995" style="stroke: #000000"/>
     <use xlink:href="#m7403239b3d" x="134.835" y="311.480088" style="stroke: #000000"/>
     <use xlink:href="#m7403239b3d" x="196.835" y="283.920253" style="stroke: #000000"/>
     <use xlink:href="#m7403239b3d" x="258.835" y="302.496277" style="stroke: #000000"/>
     <use xlink:href="#m7403239b3d" x="320.835" y="298.481524" style="stroke: #000000"/>
     <use xlink:href="#m7403239b3d" x="382.835" y="270.610995" style="stroke: #000000"/>
     <use xlink:href="#m7403239b3d" x="444.835" y="234.854748" style="stroke: #000000"/>
     <use xlink:href="#m7403239b3d" x="506.835" y="283.540965" style="stroke: #000000"/>
     <use xlink:href="#m7403239b3d" x="568.835" y="267.793369" style="stroke: #000000"/>
    </g>
   </g>
   <g id="line2d_25">
    <g clip-path="url(#p6112a681c9)">
     <use xlink:href="#m7403239b3d" x="72.835" y="255.405942" style="stroke: #000000"/>
     <use xlink:href="#m7403239b3d" x="134.835" y="285.09065" style="stroke: #000000"/>
     <use xlink:href="#m7403239b3d" x="196.835" y="252.405685" style="stroke: #000000"/>
     <use xlink:href="#m7403239b3d" x="258.835" y="252.67926" style="stroke: #000000"/>
     <use xlink:href="#m7403239b3d" x="320.835" y="267.412414" style="stroke: #000000"/>
     <use xlink:href="#m7403239b3d" x="382.835" y="253.518142" style="stroke: #000000"/>
     <use xlink:href="#m7403239b3d" x="444.835" y="199.83119" style="stroke: #000000"/>
     <use xlink:href="#m7403239b3d" x="506.835" y="241.327373" style="stroke: #000000"/>
     <use xlink:href="#m7403239b3d" x="568.835" y="129.193369" style="stroke: #000000"/>
    </g>
   </g>
   <g id="patch_12">
    <path d="M 41.835 344.854969 
L 41.835 12.214969 
" style="fill: none; stroke: #000000; stroke-linejoin: miter; stroke-linecap: square"/>
   </g>
   <g id="patch_13">
    <path d="M 599.835 344.854969 
L 599.835 12.214969 
" style="fill: none; stroke: #000000; stroke-linejoin: miter; stroke-linecap: square"/>
   </g>
   <g id="patch_14">
    <path d="M 41.835 344.854969 
L 599.835 344.854969 
" style="fill: none; stroke: #000000; stroke-linejoin: miter; stroke-linecap: square"/>
   </g>
   <g id="patch_15">
    <path d="M 41.835 12.214969 
L 599.835 12.214969 
" style="fill: none; stroke: #000000; stroke-linejoin: miter; stroke-linecap: square"/>
   </g>
  </g>
 </g>
 <defs>
  <clipPath id="p6112a681c9">
   <rect x="41.835" y="12.214969" width="558" height="332.64"/>
  </clipPath>
 </defs>
 <defs>
  <pattern id="hf7c391e062" patternUnits="userSpaceOnUse" x="0" y="0" width="72" height="72">
   <rect x="0" y="0" width="73" height="73" fill="#7f7f7f"/>
   <path d="M -36 36 
L 36 -36 
M -30 42 
L 42 -30 
M -24 48 
L 48 -24 
M -18 54 
L 54 -18 
M -12 60 
L 60 -12 
M -6 66 
L 66 -6 
M 0 72 
L 72 0 
M 6 78 
L 78 6 
M 12 84 
L 84 12 
M 18 90 
L 90 18 
M 24 96 
L 96 24 
M 30 102 
L 102 30 
M 36 108 
L 108 36 
M -36 36 
L 36 108 
M -30 30 
L 42 102 
M -24 24 
L 48 96 
M -18 18 
L 54 90 
M -12 12 
L 60 84 
M -6 6 
L 66 78 
M 0 0 
L 72 72 
M 6 -6 
L 78 66 
M 12 -12 
L 84 60 
M 18 -18 
L 90 54 
M 24 -24 
L 96 48 
M 30 -30 
L 102 42 
M 36 -36 
L 108 36 
" style="fill: #000000; stroke: #000000; stroke-width: 1.0; stroke-linecap: butt; stroke-linejoin: miter"/>
  </pattern>
 </defs>
</svg>
