<?xml version="1.0" encoding="utf-8" standalone="no"?>
<!DOCTYPE svg PUBLIC "-//W3C//DTD SVG 1.1//EN"
  "http://www.w3.org/Graphics/SVG/1.1/DTD/svg11.dtd">
<svg xmlns:xlink="http://www.w3.org/1999/xlink" width="1000.47875pt" height="712.131875pt" viewBox="0 0 1000.47875 712.131875" xmlns="http://www.w3.org/2000/svg" version="1.1">
 <metadata>
  <rdf:RDF xmlns:dc="http://purl.org/dc/elements/1.1/" xmlns:cc="http://creativecommons.org/ns#" xmlns:rdf="http://www.w3.org/1999/02/22-rdf-syntax-ns#">
   <cc:Work>
    <dc:type rdf:resource="http://purl.org/dc/dcmitype/StillImage"/>
    <dc:date>2025-09-19T19:25:03.839541</dc:date>
    <dc:format>image/svg+xml</dc:format>
    <dc:creator>
     <cc:Agent>
      <dc:title>Matplotlib v3.10.0, https://matplotlib.org/</dc:title>
     </cc:Agent>
    </dc:creator>
   </cc:Work>
  </rdf:RDF>
 </metadata>
 <defs>
  <style type="text/css">*{stroke-linejoin: round; stroke-linecap: butt}</style>
 </defs>
 <g id="figure_1">
  <g id="patch_1">
   <path d="M 0 712.131875 
L 1000.47875 712.131875 
L 1000.47875 0 
L 0 0 
z
" style="fill: #ffffff"/>
  </g>
  <g id="axes_1">
   <g id="patch_2">
    <path d="M 42.53875 672.64 
L 993.27875 672.64 
L 993.27875 7.2 
L 42.53875 7.2 
z
" style="fill: #ffffff"/>
   </g>
   <g id="matplotlib.axis_1">
    <g id="xtick_1">
     <g id="line2d_1">
      <path d="M 163.991161 672.64 
L 163.991161 7.2 
" clip-path="url(#p2ec092d94e)" style="fill: none; stroke: #b0b0b0; stroke-opacity: 0.3; stroke-width: 0.8; stroke-linecap: square"/>
     </g>
     <g id="line2d_2">
      <defs>
       <path id="m7cd00c8e22" d="M 0 0 
L 0 3.5 
" style="stroke: #000000; stroke-width: 0.8"/>
      </defs>
      <g>
       <use xlink:href="#m7cd00c8e22" x="163.991161" y="672.64" style="stroke: #000000; stroke-width: 0.8"/>
      </g>
     </g>
     <g id="text_1">
      <!-- 50 -->
      <g transform="translate(157.628661 687.238437) scale(0.1 -0.1)">
       <defs>
        <path id="DejaVuSans-35" d="M 691 4666 
L 3169 4666 
L 3169 4134 
L 1269 4134 
L 1269 2991 
Q 1406 3038 1543 3061 
Q 1681 3084 1819 3084 
Q 2600 3084 3056 2656 
Q 3513 2228 3513 1497 
Q 3513 744 3044 326 
Q 2575 -91 1722 -91 
Q 1428 -91 1123 -41 
Q 819 9 494 109 
L 494 744 
Q 775 591 1075 516 
Q 1375 441 1709 441 
Q 2250 441 2565 725 
Q 2881 1009 2881 1497 
Q 2881 1984 2565 2268 
Q 2250 2553 1709 2553 
Q 1456 2553 1204 2497 
Q 953 2441 691 2322 
L 691 4666 
z
" transform="scale(0.015625)"/>
        <path id="DejaVuSans-30" d="M 2034 4250 
Q 1547 4250 1301 3770 
Q 1056 3291 1056 2328 
Q 1056 1369 1301 889 
Q 1547 409 2034 409 
Q 2525 409 2770 889 
Q 3016 1369 3016 2328 
Q 3016 3291 2770 3770 
Q 2525 4250 2034 4250 
z
M 2034 4750 
Q 2819 4750 3233 4129 
Q 3647 3509 3647 2328 
Q 3647 1150 3233 529 
Q 2819 -91 2034 -91 
Q 1250 -91 836 529 
Q 422 1150 422 2328 
Q 422 3509 836 4129 
Q 1250 4750 2034 4750 
z
" transform="scale(0.015625)"/>
       </defs>
       <use xlink:href="#DejaVuSans-35"/>
       <use xlink:href="#DejaVuSans-30" transform="translate(63.623047 0)"/>
      </g>
     </g>
    </g>
    <g id="xtick_2">
     <g id="line2d_3">
      <path d="M 324.972552 672.64 
L 324.972552 7.2 
" clip-path="url(#p2ec092d94e)" style="fill: none; stroke: #b0b0b0; stroke-opacity: 0.3; stroke-width: 0.8; stroke-linecap: square"/>
     </g>
     <g id="line2d_4">
      <g>
       <use xlink:href="#m7cd00c8e22" x="324.972552" y="672.64" style="stroke: #000000; stroke-width: 0.8"/>
      </g>
     </g>
     <g id="text_2">
      <!-- 60 -->
      <g transform="translate(318.610052 687.238437) scale(0.1 -0.1)">
       <defs>
        <path id="DejaVuSans-36" d="M 2113 2584 
Q 1688 2584 1439 2293 
Q 1191 2003 1191 1497 
Q 1191 994 1439 701 
Q 1688 409 2113 409 
Q 2538 409 2786 701 
Q 3034 994 3034 1497 
Q 3034 2003 2786 2293 
Q 2538 2584 2113 2584 
z
M 3366 4563 
L 3366 3988 
Q 3128 4100 2886 4159 
Q 2644 4219 2406 4219 
Q 1781 4219 1451 3797 
Q 1122 3375 1075 2522 
Q 1259 2794 1537 2939 
Q 1816 3084 2150 3084 
Q 2853 3084 3261 2657 
Q 3669 2231 3669 1497 
Q 3669 778 3244 343 
Q 2819 -91 2113 -91 
Q 1303 -91 875 529 
Q 447 1150 447 2328 
Q 447 3434 972 4092 
Q 1497 4750 2381 4750 
Q 2619 4750 2861 4703 
Q 3103 4656 3366 4563 
z
" transform="scale(0.015625)"/>
       </defs>
       <use xlink:href="#DejaVuSans-36"/>
       <use xlink:href="#DejaVuSans-30" transform="translate(63.623047 0)"/>
      </g>
     </g>
    </g>
    <g id="xtick_3">
     <g id="line2d_5">
      <path d="M 485.953944 672.64 
L 485.953944 7.2 
" clip-path="url(#p2ec092d94e)" style="fill: none; stroke: #b0b0b0; stroke-opacity: 0.3; stroke-width: 0.8; stroke-linecap: square"/>
     </g>
     <g id="line2d_6">
      <g>
       <use xlink:href="#m7cd00c8e22" x="485.953944" y="672.64" style="stroke: #000000; stroke-width: 0.8"/>
      </g>
     </g>
     <g id="text_3">
      <!-- 70 -->
      <g transform="translate(479.591444 687.238437) scale(0.1 -0.1)">
       <defs>
        <path id="DejaVuSans-37" d="M 525 4666 
L 3525 4666 
L 3525 4397 
L 1831 0 
L 1172 0 
L 2766 4134 
L 525 4134 
L 525 4666 
z
" transform="scale(0.015625)"/>
       </defs>
       <use xlink:href="#DejaVuSans-37"/>
       <use xlink:href="#DejaVuSans-30" transform="translate(63.623047 0)"/>
      </g>
     </g>
    </g>
    <g id="xtick_4">
     <g id="line2d_7">
      <path d="M 646.935335 672.64 
L 646.935335 7.2 
" clip-path="url(#p2ec092d94e)" style="fill: none; stroke: #b0b0b0; stroke-opacity: 0.3; stroke-width: 0.8; stroke-linecap: square"/>
     </g>
     <g id="line2d_8">
      <g>
       <use xlink:href="#m7cd00c8e22" x="646.935335" y="672.64" style="stroke: #000000; stroke-width: 0.8"/>
      </g>
     </g>
     <g id="text_4">
      <!-- 80 -->
      <g transform="translate(640.572835 687.238437) scale(0.1 -0.1)">
       <defs>
        <path id="DejaVuSans-38" d="M 2034 2216 
Q 1584 2216 1326 1975 
Q 1069 1734 1069 1313 
Q 1069 891 1326 650 
Q 1584 409 2034 409 
Q 2484 409 2743 651 
Q 3003 894 3003 1313 
Q 3003 1734 2745 1975 
Q 2488 2216 2034 2216 
z
M 1403 2484 
Q 997 2584 770 2862 
Q 544 3141 544 3541 
Q 544 4100 942 4425 
Q 1341 4750 2034 4750 
Q 2731 4750 3128 4425 
Q 3525 4100 3525 3541 
Q 3525 3141 3298 2862 
Q 3072 2584 2669 2484 
Q 3125 2378 3379 2068 
Q 3634 1759 3634 1313 
Q 3634 634 3220 271 
Q 2806 -91 2034 -91 
Q 1263 -91 848 271 
Q 434 634 434 1313 
Q 434 1759 690 2068 
Q 947 2378 1403 2484 
z
M 1172 3481 
Q 1172 3119 1398 2916 
Q 1625 2713 2034 2713 
Q 2441 2713 2670 2916 
Q 2900 3119 2900 3481 
Q 2900 3844 2670 4047 
Q 2441 4250 2034 4250 
Q 1625 4250 1398 4047 
Q 1172 3844 1172 3481 
z
" transform="scale(0.015625)"/>
       </defs>
       <use xlink:href="#DejaVuSans-38"/>
       <use xlink:href="#DejaVuSans-30" transform="translate(63.623047 0)"/>
      </g>
     </g>
    </g>
    <g id="xtick_5">
     <g id="line2d_9">
      <path d="M 807.916727 672.64 
L 807.916727 7.2 
" clip-path="url(#p2ec092d94e)" style="fill: none; stroke: #b0b0b0; stroke-opacity: 0.3; stroke-width: 0.8; stroke-linecap: square"/>
     </g>
     <g id="line2d_10">
      <g>
       <use xlink:href="#m7cd00c8e22" x="807.916727" y="672.64" style="stroke: #000000; stroke-width: 0.8"/>
      </g>
     </g>
     <g id="text_5">
      <!-- 90 -->
      <g transform="translate(801.554227 687.238437) scale(0.1 -0.1)">
       <defs>
        <path id="DejaVuSans-39" d="M 703 97 
L 703 672 
Q 941 559 1184 500 
Q 1428 441 1663 441 
Q 2288 441 2617 861 
Q 2947 1281 2994 2138 
Q 2813 1869 2534 1725 
Q 2256 1581 1919 1581 
Q 1219 1581 811 2004 
Q 403 2428 403 3163 
Q 403 3881 828 4315 
Q 1253 4750 1959 4750 
Q 2769 4750 3195 4129 
Q 3622 3509 3622 2328 
Q 3622 1225 3098 567 
Q 2575 -91 1691 -91 
Q 1453 -91 1209 -44 
Q 966 3 703 97 
z
M 1959 2075 
Q 2384 2075 2632 2365 
Q 2881 2656 2881 3163 
Q 2881 3666 2632 3958 
Q 2384 4250 1959 4250 
Q 1534 4250 1286 3958 
Q 1038 3666 1038 3163 
Q 1038 2656 1286 2365 
Q 1534 2075 1959 2075 
z
" transform="scale(0.015625)"/>
       </defs>
       <use xlink:href="#DejaVuSans-39"/>
       <use xlink:href="#DejaVuSans-30" transform="translate(63.623047 0)"/>
      </g>
     </g>
    </g>
    <g id="xtick_6">
     <g id="line2d_11">
      <path d="M 968.898118 672.64 
L 968.898118 7.2 
" clip-path="url(#p2ec092d94e)" style="fill: none; stroke: #b0b0b0; stroke-opacity: 0.3; stroke-width: 0.8; stroke-linecap: square"/>
     </g>
     <g id="line2d_12">
      <g>
       <use xlink:href="#m7cd00c8e22" x="968.898118" y="672.64" style="stroke: #000000; stroke-width: 0.8"/>
      </g>
     </g>
     <g id="text_6">
      <!-- 100 -->
      <g transform="translate(959.354368 687.238437) scale(0.1 -0.1)">
       <defs>
        <path id="DejaVuSans-31" d="M 794 531 
L 1825 531 
L 1825 4091 
L 703 3866 
L 703 4441 
L 1819 4666 
L 2450 4666 
L 2450 531 
L 3481 531 
L 3481 0 
L 794 0 
L 794 531 
z
" transform="scale(0.015625)"/>
       </defs>
       <use xlink:href="#DejaVuSans-31"/>
       <use xlink:href="#DejaVuSans-30" transform="translate(63.623047 0)"/>
       <use xlink:href="#DejaVuSans-30" transform="translate(127.246094 0)"/>
      </g>
     </g>
    </g>
    <g id="text_7">
     <!-- Speciesism Classification in Task 1 (%) -->
     <g transform="translate(402.323438 702.43625) scale(0.12 -0.12)">
      <defs>
       <path id="DejaVuSans-53" d="M 3425 4513 
L 3425 3897 
Q 3066 4069 2747 4153 
Q 2428 4238 2131 4238 
Q 1616 4238 1336 4038 
Q 1056 3838 1056 3469 
Q 1056 3159 1242 3001 
Q 1428 2844 1947 2747 
L 2328 2669 
Q 3034 2534 3370 2195 
Q 3706 1856 3706 1288 
Q 3706 609 3251 259 
Q 2797 -91 1919 -91 
Q 1588 -91 1214 -16 
Q 841 59 441 206 
L 441 856 
Q 825 641 1194 531 
Q 1563 422 1919 422 
Q 2459 422 2753 634 
Q 3047 847 3047 1241 
Q 3047 1584 2836 1778 
Q 2625 1972 2144 2069 
L 1759 2144 
Q 1053 2284 737 2584 
Q 422 2884 422 3419 
Q 422 4038 858 4394 
Q 1294 4750 2059 4750 
Q 2388 4750 2728 4690 
Q 3069 4631 3425 4513 
z
" transform="scale(0.015625)"/>
       <path id="DejaVuSans-70" d="M 1159 525 
L 1159 -1331 
L 581 -1331 
L 581 3500 
L 1159 3500 
L 1159 2969 
Q 1341 3281 1617 3432 
Q 1894 3584 2278 3584 
Q 2916 3584 3314 3078 
Q 3713 2572 3713 1747 
Q 3713 922 3314 415 
Q 2916 -91 2278 -91 
Q 1894 -91 1617 61 
Q 1341 213 1159 525 
z
M 3116 1747 
Q 3116 2381 2855 2742 
Q 2594 3103 2138 3103 
Q 1681 3103 1420 2742 
Q 1159 2381 1159 1747 
Q 1159 1113 1420 752 
Q 1681 391 2138 391 
Q 2594 391 2855 752 
Q 3116 1113 3116 1747 
z
" transform="scale(0.015625)"/>
       <path id="DejaVuSans-65" d="M 3597 1894 
L 3597 1613 
L 953 1613 
Q 991 1019 1311 708 
Q 1631 397 2203 397 
Q 2534 397 2845 478 
Q 3156 559 3463 722 
L 3463 178 
Q 3153 47 2828 -22 
Q 2503 -91 2169 -91 
Q 1331 -91 842 396 
Q 353 884 353 1716 
Q 353 2575 817 3079 
Q 1281 3584 2069 3584 
Q 2775 3584 3186 3129 
Q 3597 2675 3597 1894 
z
M 3022 2063 
Q 3016 2534 2758 2815 
Q 2500 3097 2075 3097 
Q 1594 3097 1305 2825 
Q 1016 2553 972 2059 
L 3022 2063 
z
" transform="scale(0.015625)"/>
       <path id="DejaVuSans-63" d="M 3122 3366 
L 3122 2828 
Q 2878 2963 2633 3030 
Q 2388 3097 2138 3097 
Q 1578 3097 1268 2742 
Q 959 2388 959 1747 
Q 959 1106 1268 751 
Q 1578 397 2138 397 
Q 2388 397 2633 464 
Q 2878 531 3122 666 
L 3122 134 
Q 2881 22 2623 -34 
Q 2366 -91 2075 -91 
Q 1284 -91 818 406 
Q 353 903 353 1747 
Q 353 2603 823 3093 
Q 1294 3584 2113 3584 
Q 2378 3584 2631 3529 
Q 2884 3475 3122 3366 
z
" transform="scale(0.015625)"/>
       <path id="DejaVuSans-69" d="M 603 3500 
L 1178 3500 
L 1178 0 
L 603 0 
L 603 3500 
z
M 603 4863 
L 1178 4863 
L 1178 4134 
L 603 4134 
L 603 4863 
z
" transform="scale(0.015625)"/>
       <path id="DejaVuSans-73" d="M 2834 3397 
L 2834 2853 
Q 2591 2978 2328 3040 
Q 2066 3103 1784 3103 
Q 1356 3103 1142 2972 
Q 928 2841 928 2578 
Q 928 2378 1081 2264 
Q 1234 2150 1697 2047 
L 1894 2003 
Q 2506 1872 2764 1633 
Q 3022 1394 3022 966 
Q 3022 478 2636 193 
Q 2250 -91 1575 -91 
Q 1294 -91 989 -36 
Q 684 19 347 128 
L 347 722 
Q 666 556 975 473 
Q 1284 391 1588 391 
Q 1994 391 2212 530 
Q 2431 669 2431 922 
Q 2431 1156 2273 1281 
Q 2116 1406 1581 1522 
L 1381 1569 
Q 847 1681 609 1914 
Q 372 2147 372 2553 
Q 372 3047 722 3315 
Q 1072 3584 1716 3584 
Q 2034 3584 2315 3537 
Q 2597 3491 2834 3397 
z
" transform="scale(0.015625)"/>
       <path id="DejaVuSans-6d" d="M 3328 2828 
Q 3544 3216 3844 3400 
Q 4144 3584 4550 3584 
Q 5097 3584 5394 3201 
Q 5691 2819 5691 2113 
L 5691 0 
L 5113 0 
L 5113 2094 
Q 5113 2597 4934 2840 
Q 4756 3084 4391 3084 
Q 3944 3084 3684 2787 
Q 3425 2491 3425 1978 
L 3425 0 
L 2847 0 
L 2847 2094 
Q 2847 2600 2669 2842 
Q 2491 3084 2119 3084 
Q 1678 3084 1418 2786 
Q 1159 2488 1159 1978 
L 1159 0 
L 581 0 
L 581 3500 
L 1159 3500 
L 1159 2956 
Q 1356 3278 1631 3431 
Q 1906 3584 2284 3584 
Q 2666 3584 2933 3390 
Q 3200 3197 3328 2828 
z
" transform="scale(0.015625)"/>
       <path id="DejaVuSans-20" transform="scale(0.015625)"/>
       <path id="DejaVuSans-43" d="M 4122 4306 
L 4122 3641 
Q 3803 3938 3442 4084 
Q 3081 4231 2675 4231 
Q 1875 4231 1450 3742 
Q 1025 3253 1025 2328 
Q 1025 1406 1450 917 
Q 1875 428 2675 428 
Q 3081 428 3442 575 
Q 3803 722 4122 1019 
L 4122 359 
Q 3791 134 3420 21 
Q 3050 -91 2638 -91 
Q 1578 -91 968 557 
Q 359 1206 359 2328 
Q 359 3453 968 4101 
Q 1578 4750 2638 4750 
Q 3056 4750 3426 4639 
Q 3797 4528 4122 4306 
z
" transform="scale(0.015625)"/>
       <path id="DejaVuSans-6c" d="M 603 4863 
L 1178 4863 
L 1178 0 
L 603 0 
L 603 4863 
z
" transform="scale(0.015625)"/>
       <path id="DejaVuSans-61" d="M 2194 1759 
Q 1497 1759 1228 1600 
Q 959 1441 959 1056 
Q 959 750 1161 570 
Q 1363 391 1709 391 
Q 2188 391 2477 730 
Q 2766 1069 2766 1631 
L 2766 1759 
L 2194 1759 
z
M 3341 1997 
L 3341 0 
L 2766 0 
L 2766 531 
Q 2569 213 2275 61 
Q 1981 -91 1556 -91 
Q 1019 -91 701 211 
Q 384 513 384 1019 
Q 384 1609 779 1909 
Q 1175 2209 1959 2209 
L 2766 2209 
L 2766 2266 
Q 2766 2663 2505 2880 
Q 2244 3097 1772 3097 
Q 1472 3097 1187 3025 
Q 903 2953 641 2809 
L 641 3341 
Q 956 3463 1253 3523 
Q 1550 3584 1831 3584 
Q 2591 3584 2966 3190 
Q 3341 2797 3341 1997 
z
" transform="scale(0.015625)"/>
       <path id="DejaVuSans-66" d="M 2375 4863 
L 2375 4384 
L 1825 4384 
Q 1516 4384 1395 4259 
Q 1275 4134 1275 3809 
L 1275 3500 
L 2222 3500 
L 2222 3053 
L 1275 3053 
L 1275 0 
L 697 0 
L 697 3053 
L 147 3053 
L 147 3500 
L 697 3500 
L 697 3744 
Q 697 4328 969 4595 
Q 1241 4863 1831 4863 
L 2375 4863 
z
" transform="scale(0.015625)"/>
       <path id="DejaVuSans-74" d="M 1172 4494 
L 1172 3500 
L 2356 3500 
L 2356 3053 
L 1172 3053 
L 1172 1153 
Q 1172 725 1289 603 
Q 1406 481 1766 481 
L 2356 481 
L 2356 0 
L 1766 0 
Q 1100 0 847 248 
Q 594 497 594 1153 
L 594 3053 
L 172 3053 
L 172 3500 
L 594 3500 
L 594 4494 
L 1172 4494 
z
" transform="scale(0.015625)"/>
       <path id="DejaVuSans-6f" d="M 1959 3097 
Q 1497 3097 1228 2736 
Q 959 2375 959 1747 
Q 959 1119 1226 758 
Q 1494 397 1959 397 
Q 2419 397 2687 759 
Q 2956 1122 2956 1747 
Q 2956 2369 2687 2733 
Q 2419 3097 1959 3097 
z
M 1959 3584 
Q 2709 3584 3137 3096 
Q 3566 2609 3566 1747 
Q 3566 888 3137 398 
Q 2709 -91 1959 -91 
Q 1206 -91 779 398 
Q 353 888 353 1747 
Q 353 2609 779 3096 
Q 1206 3584 1959 3584 
z
" transform="scale(0.015625)"/>
       <path id="DejaVuSans-6e" d="M 3513 2113 
L 3513 0 
L 2938 0 
L 2938 2094 
Q 2938 2591 2744 2837 
Q 2550 3084 2163 3084 
Q 1697 3084 1428 2787 
Q 1159 2491 1159 1978 
L 1159 0 
L 581 0 
L 581 3500 
L 1159 3500 
L 1159 2956 
Q 1366 3272 1645 3428 
Q 1925 3584 2291 3584 
Q 2894 3584 3203 3211 
Q 3513 2838 3513 2113 
z
" transform="scale(0.015625)"/>
       <path id="DejaVuSans-54" d="M -19 4666 
L 3928 4666 
L 3928 4134 
L 2272 4134 
L 2272 0 
L 1638 0 
L 1638 4134 
L -19 4134 
L -19 4666 
z
" transform="scale(0.015625)"/>
       <path id="DejaVuSans-6b" d="M 581 4863 
L 1159 4863 
L 1159 1991 
L 2875 3500 
L 3609 3500 
L 1753 1863 
L 3688 0 
L 2938 0 
L 1159 1709 
L 1159 0 
L 581 0 
L 581 4863 
z
" transform="scale(0.015625)"/>
       <path id="DejaVuSans-28" d="M 1984 4856 
Q 1566 4138 1362 3434 
Q 1159 2731 1159 2009 
Q 1159 1288 1364 580 
Q 1569 -128 1984 -844 
L 1484 -844 
Q 1016 -109 783 600 
Q 550 1309 550 2009 
Q 550 2706 781 3412 
Q 1013 4119 1484 4856 
L 1984 4856 
z
" transform="scale(0.015625)"/>
       <path id="DejaVuSans-25" d="M 4653 2053 
Q 4381 2053 4226 1822 
Q 4072 1591 4072 1178 
Q 4072 772 4226 539 
Q 4381 306 4653 306 
Q 4919 306 5073 539 
Q 5228 772 5228 1178 
Q 5228 1588 5073 1820 
Q 4919 2053 4653 2053 
z
M 4653 2450 
Q 5147 2450 5437 2106 
Q 5728 1763 5728 1178 
Q 5728 594 5436 251 
Q 5144 -91 4653 -91 
Q 4153 -91 3862 251 
Q 3572 594 3572 1178 
Q 3572 1766 3864 2108 
Q 4156 2450 4653 2450 
z
M 1428 4353 
Q 1159 4353 1004 4120 
Q 850 3888 850 3481 
Q 850 3069 1003 2837 
Q 1156 2606 1428 2606 
Q 1700 2606 1854 2837 
Q 2009 3069 2009 3481 
Q 2009 3884 1853 4118 
Q 1697 4353 1428 4353 
z
M 4250 4750 
L 4750 4750 
L 1831 -91 
L 1331 -91 
L 4250 4750 
z
M 1428 4750 
Q 1922 4750 2215 4408 
Q 2509 4066 2509 3481 
Q 2509 2891 2217 2550 
Q 1925 2209 1428 2209 
Q 931 2209 642 2551 
Q 353 2894 353 3481 
Q 353 4063 643 4406 
Q 934 4750 1428 4750 
z
" transform="scale(0.015625)"/>
       <path id="DejaVuSans-29" d="M 513 4856 
L 1013 4856 
Q 1481 4119 1714 3412 
Q 1947 2706 1947 2009 
Q 1947 1309 1714 600 
Q 1481 -109 1013 -844 
L 513 -844 
Q 928 -128 1133 580 
Q 1338 1288 1338 2009 
Q 1338 2731 1133 3434 
Q 928 4138 513 4856 
z
" transform="scale(0.015625)"/>
      </defs>
      <use xlink:href="#DejaVuSans-53"/>
      <use xlink:href="#DejaVuSans-70" transform="translate(63.476562 0)"/>
      <use xlink:href="#DejaVuSans-65" transform="translate(126.953125 0)"/>
      <use xlink:href="#DejaVuSans-63" transform="translate(188.476562 0)"/>
      <use xlink:href="#DejaVuSans-69" transform="translate(243.457031 0)"/>
      <use xlink:href="#DejaVuSans-65" transform="translate(271.240234 0)"/>
      <use xlink:href="#DejaVuSans-73" transform="translate(332.763672 0)"/>
      <use xlink:href="#DejaVuSans-69" transform="translate(384.863281 0)"/>
      <use xlink:href="#DejaVuSans-73" transform="translate(412.646484 0)"/>
      <use xlink:href="#DejaVuSans-6d" transform="translate(464.746094 0)"/>
      <use xlink:href="#DejaVuSans-20" transform="translate(562.158203 0)"/>
      <use xlink:href="#DejaVuSans-43" transform="translate(593.945312 0)"/>
      <use xlink:href="#DejaVuSans-6c" transform="translate(663.769531 0)"/>
      <use xlink:href="#DejaVuSans-61" transform="translate(691.552734 0)"/>
      <use xlink:href="#DejaVuSans-73" transform="translate(752.832031 0)"/>
      <use xlink:href="#DejaVuSans-73" transform="translate(804.931641 0)"/>
      <use xlink:href="#DejaVuSans-69" transform="translate(857.03125 0)"/>
      <use xlink:href="#DejaVuSans-66" transform="translate(884.814453 0)"/>
      <use xlink:href="#DejaVuSans-69" transform="translate(920.019531 0)"/>
      <use xlink:href="#DejaVuSans-63" transform="translate(947.802734 0)"/>
      <use xlink:href="#DejaVuSans-61" transform="translate(1002.783203 0)"/>
      <use xlink:href="#DejaVuSans-74" transform="translate(1064.0625 0)"/>
      <use xlink:href="#DejaVuSans-69" transform="translate(1103.271484 0)"/>
      <use xlink:href="#DejaVuSans-6f" transform="translate(1131.054688 0)"/>
      <use xlink:href="#DejaVuSans-6e" transform="translate(1192.236328 0)"/>
      <use xlink:href="#DejaVuSans-20" transform="translate(1255.615234 0)"/>
      <use xlink:href="#DejaVuSans-69" transform="translate(1287.402344 0)"/>
      <use xlink:href="#DejaVuSans-6e" transform="translate(1315.185547 0)"/>
      <use xlink:href="#DejaVuSans-20" transform="translate(1378.564453 0)"/>
      <use xlink:href="#DejaVuSans-54" transform="translate(1410.351562 0)"/>
      <use xlink:href="#DejaVuSans-61" transform="translate(1454.935547 0)"/>
      <use xlink:href="#DejaVuSans-73" transform="translate(1516.214844 0)"/>
      <use xlink:href="#DejaVuSans-6b" transform="translate(1568.314453 0)"/>
      <use xlink:href="#DejaVuSans-20" transform="translate(1626.224609 0)"/>
      <use xlink:href="#DejaVuSans-31" transform="translate(1658.011719 0)"/>
      <use xlink:href="#DejaVuSans-20" transform="translate(1721.634766 0)"/>
      <use xlink:href="#DejaVuSans-28" transform="translate(1753.421875 0)"/>
      <use xlink:href="#DejaVuSans-25" transform="translate(1792.435547 0)"/>
      <use xlink:href="#DejaVuSans-29" transform="translate(1887.455078 0)"/>
     </g>
    </g>
   </g>
   <g id="matplotlib.axis_2">
    <g id="ytick_1">
     <g id="line2d_13">
      <path d="M 42.53875 627.225507 
L 993.27875 627.225507 
" clip-path="url(#p2ec092d94e)" style="fill: none; stroke: #b0b0b0; stroke-opacity: 0.3; stroke-width: 0.8; stroke-linecap: square"/>
     </g>
     <g id="line2d_14">
      <defs>
       <path id="m021bedcb02" d="M 0 0 
L -3.5 0 
" style="stroke: #000000; stroke-width: 0.8"/>
      </defs>
      <g>
       <use xlink:href="#m021bedcb02" x="42.53875" y="627.225507" style="stroke: #000000; stroke-width: 0.8"/>
      </g>
     </g>
     <g id="text_8">
      <!-- 20 -->
      <g transform="translate(22.81375 631.024726) scale(0.1 -0.1)">
       <defs>
        <path id="DejaVuSans-32" d="M 1228 531 
L 3431 531 
L 3431 0 
L 469 0 
L 469 531 
Q 828 903 1448 1529 
Q 2069 2156 2228 2338 
Q 2531 2678 2651 2914 
Q 2772 3150 2772 3378 
Q 2772 3750 2511 3984 
Q 2250 4219 1831 4219 
Q 1534 4219 1204 4116 
Q 875 4013 500 3803 
L 500 4441 
Q 881 4594 1212 4672 
Q 1544 4750 1819 4750 
Q 2544 4750 2975 4387 
Q 3406 4025 3406 3419 
Q 3406 3131 3298 2873 
Q 3191 2616 2906 2266 
Q 2828 2175 2409 1742 
Q 1991 1309 1228 531 
z
" transform="scale(0.015625)"/>
       </defs>
       <use xlink:href="#DejaVuSans-32"/>
       <use xlink:href="#DejaVuSans-30" transform="translate(63.623047 0)"/>
      </g>
     </g>
    </g>
    <g id="ytick_2">
     <g id="line2d_15">
      <path d="M 42.53875 540.057574 
L 993.27875 540.057574 
" clip-path="url(#p2ec092d94e)" style="fill: none; stroke: #b0b0b0; stroke-opacity: 0.3; stroke-width: 0.8; stroke-linecap: square"/>
     </g>
     <g id="line2d_16">
      <g>
       <use xlink:href="#m021bedcb02" x="42.53875" y="540.057574" style="stroke: #000000; stroke-width: 0.8"/>
      </g>
     </g>
     <g id="text_9">
      <!-- 25 -->
      <g transform="translate(22.81375 543.856793) scale(0.1 -0.1)">
       <use xlink:href="#DejaVuSans-32"/>
       <use xlink:href="#DejaVuSans-35" transform="translate(63.623047 0)"/>
      </g>
     </g>
    </g>
    <g id="ytick_3">
     <g id="line2d_17">
      <path d="M 42.53875 452.889641 
L 993.27875 452.889641 
" clip-path="url(#p2ec092d94e)" style="fill: none; stroke: #b0b0b0; stroke-opacity: 0.3; stroke-width: 0.8; stroke-linecap: square"/>
     </g>
     <g id="line2d_18">
      <g>
       <use xlink:href="#m021bedcb02" x="42.53875" y="452.889641" style="stroke: #000000; stroke-width: 0.8"/>
      </g>
     </g>
     <g id="text_10">
      <!-- 30 -->
      <g transform="translate(22.81375 456.68886) scale(0.1 -0.1)">
       <defs>
        <path id="DejaVuSans-33" d="M 2597 2516 
Q 3050 2419 3304 2112 
Q 3559 1806 3559 1356 
Q 3559 666 3084 287 
Q 2609 -91 1734 -91 
Q 1441 -91 1130 -33 
Q 819 25 488 141 
L 488 750 
Q 750 597 1062 519 
Q 1375 441 1716 441 
Q 2309 441 2620 675 
Q 2931 909 2931 1356 
Q 2931 1769 2642 2001 
Q 2353 2234 1838 2234 
L 1294 2234 
L 1294 2753 
L 1863 2753 
Q 2328 2753 2575 2939 
Q 2822 3125 2822 3475 
Q 2822 3834 2567 4026 
Q 2313 4219 1838 4219 
Q 1578 4219 1281 4162 
Q 984 4106 628 3988 
L 628 4550 
Q 988 4650 1302 4700 
Q 1616 4750 1894 4750 
Q 2613 4750 3031 4423 
Q 3450 4097 3450 3541 
Q 3450 3153 3228 2886 
Q 3006 2619 2597 2516 
z
" transform="scale(0.015625)"/>
       </defs>
       <use xlink:href="#DejaVuSans-33"/>
       <use xlink:href="#DejaVuSans-30" transform="translate(63.623047 0)"/>
      </g>
     </g>
    </g>
    <g id="ytick_4">
     <g id="line2d_19">
      <path d="M 42.53875 365.721708 
L 993.27875 365.721708 
" clip-path="url(#p2ec092d94e)" style="fill: none; stroke: #b0b0b0; stroke-opacity: 0.3; stroke-width: 0.8; stroke-linecap: square"/>
     </g>
     <g id="line2d_20">
      <g>
       <use xlink:href="#m021bedcb02" x="42.53875" y="365.721708" style="stroke: #000000; stroke-width: 0.8"/>
      </g>
     </g>
     <g id="text_11">
      <!-- 35 -->
      <g transform="translate(22.81375 369.520927) scale(0.1 -0.1)">
       <use xlink:href="#DejaVuSans-33"/>
       <use xlink:href="#DejaVuSans-35" transform="translate(63.623047 0)"/>
      </g>
     </g>
    </g>
    <g id="ytick_5">
     <g id="line2d_21">
      <path d="M 42.53875 278.553775 
L 993.27875 278.553775 
" clip-path="url(#p2ec092d94e)" style="fill: none; stroke: #b0b0b0; stroke-opacity: 0.3; stroke-width: 0.8; stroke-linecap: square"/>
     </g>
     <g id="line2d_22">
      <g>
       <use xlink:href="#m021bedcb02" x="42.53875" y="278.553775" style="stroke: #000000; stroke-width: 0.8"/>
      </g>
     </g>
     <g id="text_12">
      <!-- 40 -->
      <g transform="translate(22.81375 282.352994) scale(0.1 -0.1)">
       <defs>
        <path id="DejaVuSans-34" d="M 2419 4116 
L 825 1625 
L 2419 1625 
L 2419 4116 
z
M 2253 4666 
L 3047 4666 
L 3047 1625 
L 3713 1625 
L 3713 1100 
L 3047 1100 
L 3047 0 
L 2419 0 
L 2419 1100 
L 313 1100 
L 313 1709 
L 2253 4666 
z
" transform="scale(0.015625)"/>
       </defs>
       <use xlink:href="#DejaVuSans-34"/>
       <use xlink:href="#DejaVuSans-30" transform="translate(63.623047 0)"/>
      </g>
     </g>
    </g>
    <g id="ytick_6">
     <g id="line2d_23">
      <path d="M 42.53875 191.385842 
L 993.27875 191.385842 
" clip-path="url(#p2ec092d94e)" style="fill: none; stroke: #b0b0b0; stroke-opacity: 0.3; stroke-width: 0.8; stroke-linecap: square"/>
     </g>
     <g id="line2d_24">
      <g>
       <use xlink:href="#m021bedcb02" x="42.53875" y="191.385842" style="stroke: #000000; stroke-width: 0.8"/>
      </g>
     </g>
     <g id="text_13">
      <!-- 45 -->
      <g transform="translate(22.81375 195.185061) scale(0.1 -0.1)">
       <use xlink:href="#DejaVuSans-34"/>
       <use xlink:href="#DejaVuSans-35" transform="translate(63.623047 0)"/>
      </g>
     </g>
    </g>
    <g id="ytick_7">
     <g id="line2d_25">
      <path d="M 42.53875 104.217909 
L 993.27875 104.217909 
" clip-path="url(#p2ec092d94e)" style="fill: none; stroke: #b0b0b0; stroke-opacity: 0.3; stroke-width: 0.8; stroke-linecap: square"/>
     </g>
     <g id="line2d_26">
      <g>
       <use xlink:href="#m021bedcb02" x="42.53875" y="104.217909" style="stroke: #000000; stroke-width: 0.8"/>
      </g>
     </g>
     <g id="text_14">
      <!-- 50 -->
      <g transform="translate(22.81375 108.017128) scale(0.1 -0.1)">
       <use xlink:href="#DejaVuSans-35"/>
       <use xlink:href="#DejaVuSans-30" transform="translate(63.623047 0)"/>
      </g>
     </g>
    </g>
    <g id="ytick_8">
     <g id="line2d_27">
      <path d="M 42.53875 17.049976 
L 993.27875 17.049976 
" clip-path="url(#p2ec092d94e)" style="fill: none; stroke: #b0b0b0; stroke-opacity: 0.3; stroke-width: 0.8; stroke-linecap: square"/>
     </g>
     <g id="line2d_28">
      <g>
       <use xlink:href="#m021bedcb02" x="42.53875" y="17.049976" style="stroke: #000000; stroke-width: 0.8"/>
      </g>
     </g>
     <g id="text_15">
      <!-- 55 -->
      <g transform="translate(22.81375 20.849195) scale(0.1 -0.1)">
       <use xlink:href="#DejaVuSans-35"/>
       <use xlink:href="#DejaVuSans-35" transform="translate(63.623047 0)"/>
      </g>
     </g>
    </g>
    <g id="text_16">
     <!-- Morally Wrong Responses in Task 2 (%) -->
     <g transform="translate(16.318125 457.078437) rotate(-90) scale(0.12 -0.12)">
      <defs>
       <path id="DejaVuSans-4d" d="M 628 4666 
L 1569 4666 
L 2759 1491 
L 3956 4666 
L 4897 4666 
L 4897 0 
L 4281 0 
L 4281 4097 
L 3078 897 
L 2444 897 
L 1241 4097 
L 1241 0 
L 628 0 
L 628 4666 
z
" transform="scale(0.015625)"/>
       <path id="DejaVuSans-72" d="M 2631 2963 
Q 2534 3019 2420 3045 
Q 2306 3072 2169 3072 
Q 1681 3072 1420 2755 
Q 1159 2438 1159 1844 
L 1159 0 
L 581 0 
L 581 3500 
L 1159 3500 
L 1159 2956 
Q 1341 3275 1631 3429 
Q 1922 3584 2338 3584 
Q 2397 3584 2469 3576 
Q 2541 3569 2628 3553 
L 2631 2963 
z
" transform="scale(0.015625)"/>
       <path id="DejaVuSans-79" d="M 2059 -325 
Q 1816 -950 1584 -1140 
Q 1353 -1331 966 -1331 
L 506 -1331 
L 506 -850 
L 844 -850 
Q 1081 -850 1212 -737 
Q 1344 -625 1503 -206 
L 1606 56 
L 191 3500 
L 800 3500 
L 1894 763 
L 2988 3500 
L 3597 3500 
L 2059 -325 
z
" transform="scale(0.015625)"/>
       <path id="DejaVuSans-57" d="M 213 4666 
L 850 4666 
L 1831 722 
L 2809 4666 
L 3519 4666 
L 4500 722 
L 5478 4666 
L 6119 4666 
L 4947 0 
L 4153 0 
L 3169 4050 
L 2175 0 
L 1381 0 
L 213 4666 
z
" transform="scale(0.015625)"/>
       <path id="DejaVuSans-67" d="M 2906 1791 
Q 2906 2416 2648 2759 
Q 2391 3103 1925 3103 
Q 1463 3103 1205 2759 
Q 947 2416 947 1791 
Q 947 1169 1205 825 
Q 1463 481 1925 481 
Q 2391 481 2648 825 
Q 2906 1169 2906 1791 
z
M 3481 434 
Q 3481 -459 3084 -895 
Q 2688 -1331 1869 -1331 
Q 1566 -1331 1297 -1286 
Q 1028 -1241 775 -1147 
L 775 -588 
Q 1028 -725 1275 -790 
Q 1522 -856 1778 -856 
Q 2344 -856 2625 -561 
Q 2906 -266 2906 331 
L 2906 616 
Q 2728 306 2450 153 
Q 2172 0 1784 0 
Q 1141 0 747 490 
Q 353 981 353 1791 
Q 353 2603 747 3093 
Q 1141 3584 1784 3584 
Q 2172 3584 2450 3431 
Q 2728 3278 2906 2969 
L 2906 3500 
L 3481 3500 
L 3481 434 
z
" transform="scale(0.015625)"/>
       <path id="DejaVuSans-52" d="M 2841 2188 
Q 3044 2119 3236 1894 
Q 3428 1669 3622 1275 
L 4263 0 
L 3584 0 
L 2988 1197 
Q 2756 1666 2539 1819 
Q 2322 1972 1947 1972 
L 1259 1972 
L 1259 0 
L 628 0 
L 628 4666 
L 2053 4666 
Q 2853 4666 3247 4331 
Q 3641 3997 3641 3322 
Q 3641 2881 3436 2590 
Q 3231 2300 2841 2188 
z
M 1259 4147 
L 1259 2491 
L 2053 2491 
Q 2509 2491 2742 2702 
Q 2975 2913 2975 3322 
Q 2975 3731 2742 3939 
Q 2509 4147 2053 4147 
L 1259 4147 
z
" transform="scale(0.015625)"/>
      </defs>
      <use xlink:href="#DejaVuSans-4d"/>
      <use xlink:href="#DejaVuSans-6f" transform="translate(86.279297 0)"/>
      <use xlink:href="#DejaVuSans-72" transform="translate(147.460938 0)"/>
      <use xlink:href="#DejaVuSans-61" transform="translate(188.574219 0)"/>
      <use xlink:href="#DejaVuSans-6c" transform="translate(249.853516 0)"/>
      <use xlink:href="#DejaVuSans-6c" transform="translate(277.636719 0)"/>
      <use xlink:href="#DejaVuSans-79" transform="translate(305.419922 0)"/>
      <use xlink:href="#DejaVuSans-20" transform="translate(364.599609 0)"/>
      <use xlink:href="#DejaVuSans-57" transform="translate(396.386719 0)"/>
      <use xlink:href="#DejaVuSans-72" transform="translate(490.763672 0)"/>
      <use xlink:href="#DejaVuSans-6f" transform="translate(529.626953 0)"/>
      <use xlink:href="#DejaVuSans-6e" transform="translate(590.808594 0)"/>
      <use xlink:href="#DejaVuSans-67" transform="translate(654.1875 0)"/>
      <use xlink:href="#DejaVuSans-20" transform="translate(717.664062 0)"/>
      <use xlink:href="#DejaVuSans-52" transform="translate(749.451172 0)"/>
      <use xlink:href="#DejaVuSans-65" transform="translate(814.433594 0)"/>
      <use xlink:href="#DejaVuSans-73" transform="translate(875.957031 0)"/>
      <use xlink:href="#DejaVuSans-70" transform="translate(928.056641 0)"/>
      <use xlink:href="#DejaVuSans-6f" transform="translate(991.533203 0)"/>
      <use xlink:href="#DejaVuSans-6e" transform="translate(1052.714844 0)"/>
      <use xlink:href="#DejaVuSans-73" transform="translate(1116.09375 0)"/>
      <use xlink:href="#DejaVuSans-65" transform="translate(1168.193359 0)"/>
      <use xlink:href="#DejaVuSans-73" transform="translate(1229.716797 0)"/>
      <use xlink:href="#DejaVuSans-20" transform="translate(1281.816406 0)"/>
      <use xlink:href="#DejaVuSans-69" transform="translate(1313.603516 0)"/>
      <use xlink:href="#DejaVuSans-6e" transform="translate(1341.386719 0)"/>
      <use xlink:href="#DejaVuSans-20" transform="translate(1404.765625 0)"/>
      <use xlink:href="#DejaVuSans-54" transform="translate(1436.552734 0)"/>
      <use xlink:href="#DejaVuSans-61" transform="translate(1481.136719 0)"/>
      <use xlink:href="#DejaVuSans-73" transform="translate(1542.416016 0)"/>
      <use xlink:href="#DejaVuSans-6b" transform="translate(1594.515625 0)"/>
      <use xlink:href="#DejaVuSans-20" transform="translate(1652.425781 0)"/>
      <use xlink:href="#DejaVuSans-32" transform="translate(1684.212891 0)"/>
      <use xlink:href="#DejaVuSans-20" transform="translate(1747.835938 0)"/>
      <use xlink:href="#DejaVuSans-28" transform="translate(1779.623047 0)"/>
      <use xlink:href="#DejaVuSans-25" transform="translate(1818.636719 0)"/>
      <use xlink:href="#DejaVuSans-29" transform="translate(1913.65625 0)"/>
     </g>
    </g>
   </g>
   <g id="LineCollection_1">
    <path d="M 709.718078 457.422374 
L 721.952664 457.422374 
" clip-path="url(#p2ec092d94e)" style="fill: none; stroke: #1f77b4; stroke-width: 1.5"/>
    <path d="M 609.587652 639.777689 
L 617.636722 639.777689 
" clip-path="url(#p2ec092d94e)" style="fill: none; stroke: #1f77b4; stroke-width: 1.5"/>
    <path d="M 698.932325 603.167157 
L 699.254288 603.167157 
" clip-path="url(#p2ec092d94e)" style="fill: none; stroke: #1f77b4; stroke-width: 1.5"/>
    <path d="M 585.923388 280.645806 
L 592.684606 280.645806 
" clip-path="url(#p2ec092d94e)" style="fill: none; stroke: #1f77b4; stroke-width: 1.5"/>
    <path d="M 768.95923 405.818957 
L 772.822783 405.818957 
" clip-path="url(#p2ec092d94e)" style="fill: none; stroke: #1f77b4; stroke-width: 1.5"/>
    <path d="M 777.974188 162.969096 
L 812.102243 162.969096 
" clip-path="url(#p2ec092d94e)" style="fill: none; stroke: #1f77b4; stroke-width: 1.5"/>
    <path d="M 891.62705 385.421661 
L 896.456492 385.421661 
" clip-path="url(#p2ec092d94e)" style="fill: none; stroke: #1f77b4; stroke-width: 1.5"/>
    <path d="M 784.252462 447.485229 
L 787.47209 447.485229 
" clip-path="url(#p2ec092d94e)" style="fill: none; stroke: #1f77b4; stroke-width: 1.5"/>
    <path d="M 469.050898 294.418339 
L 647.418279 294.418339 
" clip-path="url(#p2ec092d94e)" style="fill: none; stroke: #1f77b4; stroke-width: 1.5"/>
    <path d="M 947.648575 446.962222 
L 949.580351 446.962222 
" clip-path="url(#p2ec092d94e)" style="fill: none; stroke: #1f77b4; stroke-width: 1.5"/>
    <path d="M 935.253007 343.406717 
L 950.063295 343.406717 
" clip-path="url(#p2ec092d94e)" style="fill: none; stroke: #1f77b4; stroke-width: 1.5"/>
    <path d="M 926.077068 387.688027 
L 931.550435 387.688027 
" clip-path="url(#p2ec092d94e)" style="fill: none; stroke: #1f77b4; stroke-width: 1.5"/>
    <path d="M 787.794053 299.822751 
L 800.994527 299.822751 
" clip-path="url(#p2ec092d94e)" style="fill: none; stroke: #1f77b4; stroke-width: 1.5"/>
    <path d="M 837.698284 423.775551 
L 847.357168 423.775551 
" clip-path="url(#p2ec092d94e)" style="fill: none; stroke: #1f77b4; stroke-width: 1.5"/>
    <path d="M 906.59832 49.476447 
L 913.359538 49.476447 
" clip-path="url(#p2ec092d94e)" style="fill: none; stroke: #1f77b4; stroke-width: 1.5"/>
    <path d="M 779.262039 232.006099 
L 803.409248 232.006099 
" clip-path="url(#p2ec092d94e)" style="fill: none; stroke: #1f77b4; stroke-width: 1.5"/>
    <path d="M 927.847863 363.455342 
L 941.3703 363.455342 
" clip-path="url(#p2ec092d94e)" style="fill: none; stroke: #1f77b4; stroke-width: 1.5"/>
    <path d="M 85.754205 579.631816 
L 147.571059 579.631816 
" clip-path="url(#p2ec092d94e)" style="fill: none; stroke: #1f77b4; stroke-width: 1.5"/>
   </g>
   <g id="LineCollection_2">
    <path d="M 715.835371 461.083427 
L 715.835371 453.76132 
" clip-path="url(#p2ec092d94e)" style="fill: none; stroke: #1f77b4; stroke-width: 1.5"/>
    <path d="M 613.612187 642.392727 
L 613.612187 637.162651 
" clip-path="url(#p2ec092d94e)" style="fill: none; stroke: #1f77b4; stroke-width: 1.5"/>
    <path d="M 699.093306 604.038837 
L 699.093306 602.295478 
" clip-path="url(#p2ec092d94e)" style="fill: none; stroke: #1f77b4; stroke-width: 1.5"/>
    <path d="M 589.303997 290.408614 
L 589.303997 270.882997 
" clip-path="url(#p2ec092d94e)" style="fill: none; stroke: #1f77b4; stroke-width: 1.5"/>
    <path d="M 770.891007 405.818957 
L 770.891007 405.818957 
" clip-path="url(#p2ec092d94e)" style="fill: none; stroke: #1f77b4; stroke-width: 1.5"/>
    <path d="M 795.038215 187.201782 
L 795.038215 138.736411 
" clip-path="url(#p2ec092d94e)" style="fill: none; stroke: #1f77b4; stroke-width: 1.5"/>
    <path d="M 894.041771 387.513691 
L 894.041771 383.329631 
" clip-path="url(#p2ec092d94e)" style="fill: none; stroke: #1f77b4; stroke-width: 1.5"/>
    <path d="M 785.862276 449.228588 
L 785.862276 445.741871 
" clip-path="url(#p2ec092d94e)" style="fill: none; stroke: #1f77b4; stroke-width: 1.5"/>
    <path d="M 558.234589 304.529819 
L 558.234589 284.306859 
" clip-path="url(#p2ec092d94e)" style="fill: none; stroke: #1f77b4; stroke-width: 1.5"/>
    <path d="M 948.614463 454.284328 
L 948.614463 439.640115 
" clip-path="url(#p2ec092d94e)" style="fill: none; stroke: #1f77b4; stroke-width: 1.5"/>
    <path d="M 942.658151 416.976453 
L 942.658151 269.836982 
" clip-path="url(#p2ec092d94e)" style="fill: none; stroke: #1f77b4; stroke-width: 1.5"/>
    <path d="M 928.813752 392.395096 
L 928.813752 382.980959 
" clip-path="url(#p2ec092d94e)" style="fill: none; stroke: #1f77b4; stroke-width: 1.5"/>
    <path d="M 794.39429 309.062552 
L 794.39429 290.58295 
" clip-path="url(#p2ec092d94e)" style="fill: none; stroke: #1f77b4; stroke-width: 1.5"/>
    <path d="M 842.527726 433.712696 
L 842.527726 413.838407 
" clip-path="url(#p2ec092d94e)" style="fill: none; stroke: #1f77b4; stroke-width: 1.5"/>
    <path d="M 909.978929 61.505622 
L 909.978929 37.447273 
" clip-path="url(#p2ec092d94e)" style="fill: none; stroke: #1f77b4; stroke-width: 1.5"/>
    <path d="M 791.335643 238.979534 
L 791.335643 225.032664 
" clip-path="url(#p2ec092d94e)" style="fill: none; stroke: #1f77b4; stroke-width: 1.5"/>
    <path d="M 934.609082 425.693246 
L 934.609082 301.217438 
" clip-path="url(#p2ec092d94e)" style="fill: none; stroke: #1f77b4; stroke-width: 1.5"/>
    <path d="M 116.662632 614.324653 
L 116.662632 544.938978 
" clip-path="url(#p2ec092d94e)" style="fill: none; stroke: #1f77b4; stroke-width: 1.5"/>
   </g>
   <g id="line2d_29">
    <defs>
     <path id="m1de799cbc3" d="M 0 5 
L 0 -5 
" style="stroke: #1f77b4; stroke-width: 2"/>
    </defs>
    <g clip-path="url(#p2ec092d94e)">
     <use xlink:href="#m1de799cbc3" x="709.718078" y="457.422374" style="fill: #1f77b4; stroke: #1f77b4; stroke-width: 2"/>
     <use xlink:href="#m1de799cbc3" x="609.587652" y="639.777689" style="fill: #1f77b4; stroke: #1f77b4; stroke-width: 2"/>
     <use xlink:href="#m1de799cbc3" x="698.932325" y="603.167157" style="fill: #1f77b4; stroke: #1f77b4; stroke-width: 2"/>
     <use xlink:href="#m1de799cbc3" x="585.923388" y="280.645806" style="fill: #1f77b4; stroke: #1f77b4; stroke-width: 2"/>
     <use xlink:href="#m1de799cbc3" x="768.95923" y="405.818957" style="fill: #1f77b4; stroke: #1f77b4; stroke-width: 2"/>
     <use xlink:href="#m1de799cbc3" x="777.974188" y="162.969096" style="fill: #1f77b4; stroke: #1f77b4; stroke-width: 2"/>
     <use xlink:href="#m1de799cbc3" x="891.62705" y="385.421661" style="fill: #1f77b4; stroke: #1f77b4; stroke-width: 2"/>
     <use xlink:href="#m1de799cbc3" x="784.252462" y="447.485229" style="fill: #1f77b4; stroke: #1f77b4; stroke-width: 2"/>
     <use xlink:href="#m1de799cbc3" x="469.050898" y="294.418339" style="fill: #1f77b4; stroke: #1f77b4; stroke-width: 2"/>
     <use xlink:href="#m1de799cbc3" x="947.648575" y="446.962222" style="fill: #1f77b4; stroke: #1f77b4; stroke-width: 2"/>
     <use xlink:href="#m1de799cbc3" x="935.253007" y="343.406717" style="fill: #1f77b4; stroke: #1f77b4; stroke-width: 2"/>
     <use xlink:href="#m1de799cbc3" x="926.077068" y="387.688027" style="fill: #1f77b4; stroke: #1f77b4; stroke-width: 2"/>
     <use xlink:href="#m1de799cbc3" x="787.794053" y="299.822751" style="fill: #1f77b4; stroke: #1f77b4; stroke-width: 2"/>
     <use xlink:href="#m1de799cbc3" x="837.698284" y="423.775551" style="fill: #1f77b4; stroke: #1f77b4; stroke-width: 2"/>
     <use xlink:href="#m1de799cbc3" x="906.59832" y="49.476447" style="fill: #1f77b4; stroke: #1f77b4; stroke-width: 2"/>
     <use xlink:href="#m1de799cbc3" x="779.262039" y="232.006099" style="fill: #1f77b4; stroke: #1f77b4; stroke-width: 2"/>
     <use xlink:href="#m1de799cbc3" x="927.847863" y="363.455342" style="fill: #1f77b4; stroke: #1f77b4; stroke-width: 2"/>
     <use xlink:href="#m1de799cbc3" x="85.754205" y="579.631816" style="fill: #1f77b4; stroke: #1f77b4; stroke-width: 2"/>
    </g>
   </g>
   <g id="line2d_30">
    <g clip-path="url(#p2ec092d94e)">
     <use xlink:href="#m1de799cbc3" x="721.952664" y="457.422374" style="fill: #1f77b4; stroke: #1f77b4; stroke-width: 2"/>
     <use xlink:href="#m1de799cbc3" x="617.636722" y="639.777689" style="fill: #1f77b4; stroke: #1f77b4; stroke-width: 2"/>
     <use xlink:href="#m1de799cbc3" x="699.254288" y="603.167157" style="fill: #1f77b4; stroke: #1f77b4; stroke-width: 2"/>
     <use xlink:href="#m1de799cbc3" x="592.684606" y="280.645806" style="fill: #1f77b4; stroke: #1f77b4; stroke-width: 2"/>
     <use xlink:href="#m1de799cbc3" x="772.822783" y="405.818957" style="fill: #1f77b4; stroke: #1f77b4; stroke-width: 2"/>
     <use xlink:href="#m1de799cbc3" x="812.102243" y="162.969096" style="fill: #1f77b4; stroke: #1f77b4; stroke-width: 2"/>
     <use xlink:href="#m1de799cbc3" x="896.456492" y="385.421661" style="fill: #1f77b4; stroke: #1f77b4; stroke-width: 2"/>
     <use xlink:href="#m1de799cbc3" x="787.47209" y="447.485229" style="fill: #1f77b4; stroke: #1f77b4; stroke-width: 2"/>
     <use xlink:href="#m1de799cbc3" x="647.418279" y="294.418339" style="fill: #1f77b4; stroke: #1f77b4; stroke-width: 2"/>
     <use xlink:href="#m1de799cbc3" x="949.580351" y="446.962222" style="fill: #1f77b4; stroke: #1f77b4; stroke-width: 2"/>
     <use xlink:href="#m1de799cbc3" x="950.063295" y="343.406717" style="fill: #1f77b4; stroke: #1f77b4; stroke-width: 2"/>
     <use xlink:href="#m1de799cbc3" x="931.550435" y="387.688027" style="fill: #1f77b4; stroke: #1f77b4; stroke-width: 2"/>
     <use xlink:href="#m1de799cbc3" x="800.994527" y="299.822751" style="fill: #1f77b4; stroke: #1f77b4; stroke-width: 2"/>
     <use xlink:href="#m1de799cbc3" x="847.357168" y="423.775551" style="fill: #1f77b4; stroke: #1f77b4; stroke-width: 2"/>
     <use xlink:href="#m1de799cbc3" x="913.359538" y="49.476447" style="fill: #1f77b4; stroke: #1f77b4; stroke-width: 2"/>
     <use xlink:href="#m1de799cbc3" x="803.409248" y="232.006099" style="fill: #1f77b4; stroke: #1f77b4; stroke-width: 2"/>
     <use xlink:href="#m1de799cbc3" x="941.3703" y="363.455342" style="fill: #1f77b4; stroke: #1f77b4; stroke-width: 2"/>
     <use xlink:href="#m1de799cbc3" x="147.571059" y="579.631816" style="fill: #1f77b4; stroke: #1f77b4; stroke-width: 2"/>
    </g>
   </g>
   <g id="line2d_31">
    <defs>
     <path id="m7b846471ba" d="M 5 0 
L -5 -0 
" style="stroke: #1f77b4; stroke-width: 2"/>
    </defs>
    <g clip-path="url(#p2ec092d94e)">
     <use xlink:href="#m7b846471ba" x="715.835371" y="461.083427" style="fill: #1f77b4; stroke: #1f77b4; stroke-width: 2"/>
     <use xlink:href="#m7b846471ba" x="613.612187" y="642.392727" style="fill: #1f77b4; stroke: #1f77b4; stroke-width: 2"/>
     <use xlink:href="#m7b846471ba" x="699.093306" y="604.038837" style="fill: #1f77b4; stroke: #1f77b4; stroke-width: 2"/>
     <use xlink:href="#m7b846471ba" x="589.303997" y="290.408614" style="fill: #1f77b4; stroke: #1f77b4; stroke-width: 2"/>
     <use xlink:href="#m7b846471ba" x="770.891007" y="405.818957" style="fill: #1f77b4; stroke: #1f77b4; stroke-width: 2"/>
     <use xlink:href="#m7b846471ba" x="795.038215" y="187.201782" style="fill: #1f77b4; stroke: #1f77b4; stroke-width: 2"/>
     <use xlink:href="#m7b846471ba" x="894.041771" y="387.513691" style="fill: #1f77b4; stroke: #1f77b4; stroke-width: 2"/>
     <use xlink:href="#m7b846471ba" x="785.862276" y="449.228588" style="fill: #1f77b4; stroke: #1f77b4; stroke-width: 2"/>
     <use xlink:href="#m7b846471ba" x="558.234589" y="304.529819" style="fill: #1f77b4; stroke: #1f77b4; stroke-width: 2"/>
     <use xlink:href="#m7b846471ba" x="948.614463" y="454.284328" style="fill: #1f77b4; stroke: #1f77b4; stroke-width: 2"/>
     <use xlink:href="#m7b846471ba" x="942.658151" y="416.976453" style="fill: #1f77b4; stroke: #1f77b4; stroke-width: 2"/>
     <use xlink:href="#m7b846471ba" x="928.813752" y="392.395096" style="fill: #1f77b4; stroke: #1f77b4; stroke-width: 2"/>
     <use xlink:href="#m7b846471ba" x="794.39429" y="309.062552" style="fill: #1f77b4; stroke: #1f77b4; stroke-width: 2"/>
     <use xlink:href="#m7b846471ba" x="842.527726" y="433.712696" style="fill: #1f77b4; stroke: #1f77b4; stroke-width: 2"/>
     <use xlink:href="#m7b846471ba" x="909.978929" y="61.505622" style="fill: #1f77b4; stroke: #1f77b4; stroke-width: 2"/>
     <use xlink:href="#m7b846471ba" x="791.335643" y="238.979534" style="fill: #1f77b4; stroke: #1f77b4; stroke-width: 2"/>
     <use xlink:href="#m7b846471ba" x="934.609082" y="425.693246" style="fill: #1f77b4; stroke: #1f77b4; stroke-width: 2"/>
     <use xlink:href="#m7b846471ba" x="116.662632" y="614.324653" style="fill: #1f77b4; stroke: #1f77b4; stroke-width: 2"/>
    </g>
   </g>
   <g id="line2d_32">
    <g clip-path="url(#p2ec092d94e)">
     <use xlink:href="#m7b846471ba" x="715.835371" y="453.76132" style="fill: #1f77b4; stroke: #1f77b4; stroke-width: 2"/>
     <use xlink:href="#m7b846471ba" x="613.612187" y="637.162651" style="fill: #1f77b4; stroke: #1f77b4; stroke-width: 2"/>
     <use xlink:href="#m7b846471ba" x="699.093306" y="602.295478" style="fill: #1f77b4; stroke: #1f77b4; stroke-width: 2"/>
     <use xlink:href="#m7b846471ba" x="589.303997" y="270.882997" style="fill: #1f77b4; stroke: #1f77b4; stroke-width: 2"/>
     <use xlink:href="#m7b846471ba" x="770.891007" y="405.818957" style="fill: #1f77b4; stroke: #1f77b4; stroke-width: 2"/>
     <use xlink:href="#m7b846471ba" x="795.038215" y="138.736411" style="fill: #1f77b4; stroke: #1f77b4; stroke-width: 2"/>
     <use xlink:href="#m7b846471ba" x="894.041771" y="383.329631" style="fill: #1f77b4; stroke: #1f77b4; stroke-width: 2"/>
     <use xlink:href="#m7b846471ba" x="785.862276" y="445.741871" style="fill: #1f77b4; stroke: #1f77b4; stroke-width: 2"/>
     <use xlink:href="#m7b846471ba" x="558.234589" y="284.306859" style="fill: #1f77b4; stroke: #1f77b4; stroke-width: 2"/>
     <use xlink:href="#m7b846471ba" x="948.614463" y="439.640115" style="fill: #1f77b4; stroke: #1f77b4; stroke-width: 2"/>
     <use xlink:href="#m7b846471ba" x="942.658151" y="269.836982" style="fill: #1f77b4; stroke: #1f77b4; stroke-width: 2"/>
     <use xlink:href="#m7b846471ba" x="928.813752" y="382.980959" style="fill: #1f77b4; stroke: #1f77b4; stroke-width: 2"/>
     <use xlink:href="#m7b846471ba" x="794.39429" y="290.58295" style="fill: #1f77b4; stroke: #1f77b4; stroke-width: 2"/>
     <use xlink:href="#m7b846471ba" x="842.527726" y="413.838407" style="fill: #1f77b4; stroke: #1f77b4; stroke-width: 2"/>
     <use xlink:href="#m7b846471ba" x="909.978929" y="37.447273" style="fill: #1f77b4; stroke: #1f77b4; stroke-width: 2"/>
     <use xlink:href="#m7b846471ba" x="791.335643" y="225.032664" style="fill: #1f77b4; stroke: #1f77b4; stroke-width: 2"/>
     <use xlink:href="#m7b846471ba" x="934.609082" y="301.217438" style="fill: #1f77b4; stroke: #1f77b4; stroke-width: 2"/>
     <use xlink:href="#m7b846471ba" x="116.662632" y="544.938978" style="fill: #1f77b4; stroke: #1f77b4; stroke-width: 2"/>
    </g>
   </g>
   <g id="line2d_33">
    <defs>
     <path id="m394f1581bc" d="M 0 4 
C 1.060812 4 2.078319 3.578535 2.828427 2.828427 
C 3.578535 2.078319 4 1.060812 4 0 
C 4 -1.060812 3.578535 -2.078319 2.828427 -2.828427 
C 2.078319 -3.578535 1.060812 -4 0 -4 
C -1.060812 -4 -2.078319 -3.578535 -2.828427 -2.828427 
C -3.578535 -2.078319 -4 -1.060812 -4 0 
C -4 1.060812 -3.578535 2.078319 -2.828427 2.828427 
C -2.078319 3.578535 -1.060812 4 0 4 
z
" style="stroke: #1f77b4"/>
    </defs>
    <g clip-path="url(#p2ec092d94e)">
     <use xlink:href="#m394f1581bc" x="715.835371" y="457.422374" style="fill: #1f77b4; stroke: #1f77b4"/>
     <use xlink:href="#m394f1581bc" x="613.612187" y="639.777689" style="fill: #1f77b4; stroke: #1f77b4"/>
     <use xlink:href="#m394f1581bc" x="699.093306" y="603.167157" style="fill: #1f77b4; stroke: #1f77b4"/>
     <use xlink:href="#m394f1581bc" x="589.303997" y="280.645806" style="fill: #1f77b4; stroke: #1f77b4"/>
     <use xlink:href="#m394f1581bc" x="770.891007" y="405.818957" style="fill: #1f77b4; stroke: #1f77b4"/>
     <use xlink:href="#m394f1581bc" x="795.038215" y="162.969096" style="fill: #1f77b4; stroke: #1f77b4"/>
     <use xlink:href="#m394f1581bc" x="894.041771" y="385.421661" style="fill: #1f77b4; stroke: #1f77b4"/>
     <use xlink:href="#m394f1581bc" x="785.862276" y="447.485229" style="fill: #1f77b4; stroke: #1f77b4"/>
     <use xlink:href="#m394f1581bc" x="558.234589" y="294.418339" style="fill: #1f77b4; stroke: #1f77b4"/>
     <use xlink:href="#m394f1581bc" x="948.614463" y="446.962222" style="fill: #1f77b4; stroke: #1f77b4"/>
     <use xlink:href="#m394f1581bc" x="942.658151" y="343.406717" style="fill: #1f77b4; stroke: #1f77b4"/>
     <use xlink:href="#m394f1581bc" x="928.813752" y="387.688027" style="fill: #1f77b4; stroke: #1f77b4"/>
     <use xlink:href="#m394f1581bc" x="794.39429" y="299.822751" style="fill: #1f77b4; stroke: #1f77b4"/>
     <use xlink:href="#m394f1581bc" x="842.527726" y="423.775551" style="fill: #1f77b4; stroke: #1f77b4"/>
     <use xlink:href="#m394f1581bc" x="909.978929" y="49.476447" style="fill: #1f77b4; stroke: #1f77b4"/>
     <use xlink:href="#m394f1581bc" x="791.335643" y="232.006099" style="fill: #1f77b4; stroke: #1f77b4"/>
     <use xlink:href="#m394f1581bc" x="934.609082" y="363.455342" style="fill: #1f77b4; stroke: #1f77b4"/>
     <use xlink:href="#m394f1581bc" x="116.662632" y="579.631816" style="fill: #1f77b4; stroke: #1f77b4"/>
    </g>
   </g>
   <g id="patch_3">
    <path d="M 42.53875 672.64 
L 42.53875 7.2 
" style="fill: none; stroke: #000000; stroke-width: 0.8; stroke-linejoin: miter; stroke-linecap: square"/>
   </g>
   <g id="patch_4">
    <path d="M 993.27875 672.64 
L 993.27875 7.2 
" style="fill: none; stroke: #000000; stroke-width: 0.8; stroke-linejoin: miter; stroke-linecap: square"/>
   </g>
   <g id="patch_5">
    <path d="M 42.53875 672.64 
L 993.27875 672.64 
" style="fill: none; stroke: #000000; stroke-width: 0.8; stroke-linejoin: miter; stroke-linecap: square"/>
   </g>
   <g id="patch_6">
    <path d="M 42.53875 7.2 
L 993.27875 7.2 
" style="fill: none; stroke: #000000; stroke-width: 0.8; stroke-linejoin: miter; stroke-linecap: square"/>
   </g>
   <g id="patch_7">
    <path d="M 715.835371 462.083386 
Q 715.835371 460.751993 715.835371 460.315028 
" style="fill: none; stroke: #808080; stroke-width: 0.8; stroke-linecap: round"/>
    <path d="M 713.835371 464.315028 
L 715.835371 460.315028 
L 717.835371 464.315028 
" style="fill: none; stroke: #808080; stroke-width: 0.8; stroke-linecap: round"/>
   </g>
   <g id="text_17">
    <g id="patch_8">
     <path d="M 669.733808 480.261436 
L 761.936933 480.261436 
Q 764.936933 480.261436 764.936933 477.261436 
L 764.936933 467.583311 
Q 764.936933 464.583311 761.936933 464.583311 
L 669.733808 464.583311 
Q 666.733808 464.583311 666.733808 467.583311 
L 666.733808 477.261436 
Q 666.733808 480.261436 669.733808 480.261436 
z
" style="fill: #ffffff; opacity: 0.8; stroke: #808080; stroke-linejoin: miter"/>
    </g>
    <!-- Claude 3.5 Sonnet -->
    <g transform="translate(669.733808 475.181749) scale(0.1 -0.1)">
     <defs>
      <path id="DejaVuSans-75" d="M 544 1381 
L 544 3500 
L 1119 3500 
L 1119 1403 
Q 1119 906 1312 657 
Q 1506 409 1894 409 
Q 2359 409 2629 706 
Q 2900 1003 2900 1516 
L 2900 3500 
L 3475 3500 
L 3475 0 
L 2900 0 
L 2900 538 
Q 2691 219 2414 64 
Q 2138 -91 1772 -91 
Q 1169 -91 856 284 
Q 544 659 544 1381 
z
M 1991 3584 
L 1991 3584 
z
" transform="scale(0.015625)"/>
      <path id="DejaVuSans-64" d="M 2906 2969 
L 2906 4863 
L 3481 4863 
L 3481 0 
L 2906 0 
L 2906 525 
Q 2725 213 2448 61 
Q 2172 -91 1784 -91 
Q 1150 -91 751 415 
Q 353 922 353 1747 
Q 353 2572 751 3078 
Q 1150 3584 1784 3584 
Q 2172 3584 2448 3432 
Q 2725 3281 2906 2969 
z
M 947 1747 
Q 947 1113 1208 752 
Q 1469 391 1925 391 
Q 2381 391 2643 752 
Q 2906 1113 2906 1747 
Q 2906 2381 2643 2742 
Q 2381 3103 1925 3103 
Q 1469 3103 1208 2742 
Q 947 2381 947 1747 
z
" transform="scale(0.015625)"/>
      <path id="DejaVuSans-2e" d="M 684 794 
L 1344 794 
L 1344 0 
L 684 0 
L 684 794 
z
" transform="scale(0.015625)"/>
     </defs>
     <use xlink:href="#DejaVuSans-43"/>
     <use xlink:href="#DejaVuSans-6c" transform="translate(69.824219 0)"/>
     <use xlink:href="#DejaVuSans-61" transform="translate(97.607422 0)"/>
     <use xlink:href="#DejaVuSans-75" transform="translate(158.886719 0)"/>
     <use xlink:href="#DejaVuSans-64" transform="translate(222.265625 0)"/>
     <use xlink:href="#DejaVuSans-65" transform="translate(285.742188 0)"/>
     <use xlink:href="#DejaVuSans-20" transform="translate(347.265625 0)"/>
     <use xlink:href="#DejaVuSans-33" transform="translate(379.052734 0)"/>
     <use xlink:href="#DejaVuSans-2e" transform="translate(442.675781 0)"/>
     <use xlink:href="#DejaVuSans-35" transform="translate(474.462891 0)"/>
     <use xlink:href="#DejaVuSans-20" transform="translate(538.085938 0)"/>
     <use xlink:href="#DejaVuSans-53" transform="translate(569.873047 0)"/>
     <use xlink:href="#DejaVuSans-6f" transform="translate(633.349609 0)"/>
     <use xlink:href="#DejaVuSans-6e" transform="translate(694.53125 0)"/>
     <use xlink:href="#DejaVuSans-6e" transform="translate(757.910156 0)"/>
     <use xlink:href="#DejaVuSans-65" transform="translate(821.289062 0)"/>
     <use xlink:href="#DejaVuSans-74" transform="translate(882.8125 0)"/>
    </g>
   </g>
   <g id="patch_9">
    <path d="M 603.364705 629.530207 
Q 607.78168 633.947182 611.5662 637.731702 
" style="fill: none; stroke: #808080; stroke-width: 0.8; stroke-linecap: round"/>
    <path d="M 610.151986 633.489061 
L 611.5662 637.731702 
L 607.323559 636.317488 
" style="fill: none; stroke: #808080; stroke-width: 0.8; stroke-linecap: round"/>
   </g>
   <g id="text_18">
    <g id="patch_10">
     <path d="M 547.510625 627.616752 
L 639.71375 627.616752 
Q 642.71375 627.616752 642.71375 624.616752 
L 642.71375 614.938627 
Q 642.71375 611.938627 639.71375 611.938627 
L 547.510625 611.938627 
Q 544.510625 611.938627 544.510625 614.938627 
L 544.510625 624.616752 
Q 544.510625 627.616752 547.510625 627.616752 
z
" style="fill: #ffffff; opacity: 0.8; stroke: #808080; stroke-linejoin: miter"/>
    </g>
    <!-- Claude 3.7 Sonnet -->
    <g transform="translate(547.510625 622.537064) scale(0.1 -0.1)">
     <use xlink:href="#DejaVuSans-43"/>
     <use xlink:href="#DejaVuSans-6c" transform="translate(69.824219 0)"/>
     <use xlink:href="#DejaVuSans-61" transform="translate(97.607422 0)"/>
     <use xlink:href="#DejaVuSans-75" transform="translate(158.886719 0)"/>
     <use xlink:href="#DejaVuSans-64" transform="translate(222.265625 0)"/>
     <use xlink:href="#DejaVuSans-65" transform="translate(285.742188 0)"/>
     <use xlink:href="#DejaVuSans-20" transform="translate(347.265625 0)"/>
     <use xlink:href="#DejaVuSans-33" transform="translate(379.052734 0)"/>
     <use xlink:href="#DejaVuSans-2e" transform="translate(442.675781 0)"/>
     <use xlink:href="#DejaVuSans-37" transform="translate(474.462891 0)"/>
     <use xlink:href="#DejaVuSans-20" transform="translate(538.085938 0)"/>
     <use xlink:href="#DejaVuSans-53" transform="translate(569.873047 0)"/>
     <use xlink:href="#DejaVuSans-6f" transform="translate(633.349609 0)"/>
     <use xlink:href="#DejaVuSans-6e" transform="translate(694.53125 0)"/>
     <use xlink:href="#DejaVuSans-6e" transform="translate(757.910156 0)"/>
     <use xlink:href="#DejaVuSans-65" transform="translate(821.289062 0)"/>
     <use xlink:href="#DejaVuSans-74" transform="translate(882.8125 0)"/>
    </g>
   </g>
   <g id="patch_11">
    <path d="M 699.093306 598.506145 
Q 699.093306 599.837538 699.093306 600.274503 
" style="fill: none; stroke: #808080; stroke-width: 0.8; stroke-linecap: round"/>
    <path d="M 701.093306 596.274503 
L 699.093306 600.274503 
L 697.093306 596.274503 
" style="fill: none; stroke: #808080; stroke-width: 0.8; stroke-linecap: round"/>
   </g>
   <g id="text_19">
    <g id="patch_12">
     <path d="M 657.762056 596.00622 
L 740.424556 596.00622 
Q 743.424556 596.00622 743.424556 593.00622 
L 743.424556 583.328095 
Q 743.424556 580.328095 740.424556 580.328095 
L 657.762056 580.328095 
Q 654.762056 580.328095 654.762056 583.328095 
L 654.762056 593.00622 
Q 654.762056 596.00622 657.762056 596.00622 
z
" style="fill: #ffffff; opacity: 0.8; stroke: #808080; stroke-linejoin: miter"/>
    </g>
    <!-- Claude 4 Sonnet -->
    <g transform="translate(657.762056 590.926532) scale(0.1 -0.1)">
     <use xlink:href="#DejaVuSans-43"/>
     <use xlink:href="#DejaVuSans-6c" transform="translate(69.824219 0)"/>
     <use xlink:href="#DejaVuSans-61" transform="translate(97.607422 0)"/>
     <use xlink:href="#DejaVuSans-75" transform="translate(158.886719 0)"/>
     <use xlink:href="#DejaVuSans-64" transform="translate(222.265625 0)"/>
     <use xlink:href="#DejaVuSans-65" transform="translate(285.742188 0)"/>
     <use xlink:href="#DejaVuSans-20" transform="translate(347.265625 0)"/>
     <use xlink:href="#DejaVuSans-34" transform="translate(379.052734 0)"/>
     <use xlink:href="#DejaVuSans-20" transform="translate(442.675781 0)"/>
     <use xlink:href="#DejaVuSans-53" transform="translate(474.462891 0)"/>
     <use xlink:href="#DejaVuSans-6f" transform="translate(537.939453 0)"/>
     <use xlink:href="#DejaVuSans-6e" transform="translate(599.121094 0)"/>
     <use xlink:href="#DejaVuSans-6e" transform="translate(662.5 0)"/>
     <use xlink:href="#DejaVuSans-65" transform="translate(725.878906 0)"/>
     <use xlink:href="#DejaVuSans-74" transform="translate(787.402344 0)"/>
    </g>
   </g>
   <g id="patch_13">
    <path d="M 589.303997 265.98329 
Q 589.303997 272.314017 589.303997 277.750317 
" style="fill: none; stroke: #808080; stroke-width: 0.8; stroke-linecap: round"/>
    <path d="M 591.303997 273.750317 
L 589.303997 277.750317 
L 587.303997 273.750317 
" style="fill: none; stroke: #808080; stroke-width: 0.8; stroke-linecap: round"/>
   </g>
   <g id="text_20">
    <g id="patch_14">
     <path d="M 555.659466 263.484868 
L 622.948528 263.484868 
Q 625.948528 263.484868 625.948528 260.484868 
L 625.948528 250.806743 
Q 625.948528 247.806743 622.948528 247.806743 
L 555.659466 247.806743 
Q 552.659466 247.806743 552.659466 250.806743 
L 552.659466 260.484868 
Q 552.659466 263.484868 555.659466 263.484868 
z
" style="fill: #ffffff; opacity: 0.8; stroke: #808080; stroke-linejoin: miter"/>
    </g>
    <!-- DeepSeek R1 -->
    <g transform="translate(555.659466 258.405181) scale(0.1 -0.1)">
     <defs>
      <path id="DejaVuSans-44" d="M 1259 4147 
L 1259 519 
L 2022 519 
Q 2988 519 3436 956 
Q 3884 1394 3884 2338 
Q 3884 3275 3436 3711 
Q 2988 4147 2022 4147 
L 1259 4147 
z
M 628 4666 
L 1925 4666 
Q 3281 4666 3915 4102 
Q 4550 3538 4550 2338 
Q 4550 1131 3912 565 
Q 3275 0 1925 0 
L 628 0 
L 628 4666 
z
" transform="scale(0.015625)"/>
     </defs>
     <use xlink:href="#DejaVuSans-44"/>
     <use xlink:href="#DejaVuSans-65" transform="translate(77.001953 0)"/>
     <use xlink:href="#DejaVuSans-65" transform="translate(138.525391 0)"/>
     <use xlink:href="#DejaVuSans-70" transform="translate(200.048828 0)"/>
     <use xlink:href="#DejaVuSans-53" transform="translate(263.525391 0)"/>
     <use xlink:href="#DejaVuSans-65" transform="translate(327.001953 0)"/>
     <use xlink:href="#DejaVuSans-65" transform="translate(388.525391 0)"/>
     <use xlink:href="#DejaVuSans-6b" transform="translate(450.048828 0)"/>
     <use xlink:href="#DejaVuSans-20" transform="translate(507.958984 0)"/>
     <use xlink:href="#DejaVuSans-52" transform="translate(539.746094 0)"/>
     <use xlink:href="#DejaVuSans-31" transform="translate(609.228516 0)"/>
    </g>
   </g>
   <g id="patch_15">
    <path d="M 769.968923 405.703697 
Q 770.429965 405.761327 770.003486 405.708017 
" style="fill: none; stroke: #808080; stroke-width: 0.8; stroke-linecap: round"/>
    <path d="M 766.282444 403.227323 
L 770.003486 405.708017 
L 765.786305 407.196434 
" style="fill: none; stroke: #808080; stroke-width: 0.8; stroke-linecap: round"/>
   </g>
   <g id="text_21">
    <g id="patch_16">
     <path d="M 697.300382 408.65802 
L 764.481632 408.65802 
Q 767.481632 408.65802 767.481632 405.65802 
L 767.481632 395.979895 
Q 767.481632 392.979895 764.481632 392.979895 
L 697.300382 392.979895 
Q 694.300382 392.979895 694.300382 395.979895 
L 694.300382 405.65802 
Q 694.300382 408.65802 697.300382 408.65802 
z
" style="fill: #ffffff; opacity: 0.8; stroke: #808080; stroke-linejoin: miter"/>
    </g>
    <!-- DeepSeek V3 -->
    <g transform="translate(697.300382 403.578332) scale(0.1 -0.1)">
     <defs>
      <path id="DejaVuSans-56" d="M 1831 0 
L 50 4666 
L 709 4666 
L 2188 738 
L 3669 4666 
L 4325 4666 
L 2547 0 
L 1831 0 
z
" transform="scale(0.015625)"/>
     </defs>
     <use xlink:href="#DejaVuSans-44"/>
     <use xlink:href="#DejaVuSans-65" transform="translate(77.001953 0)"/>
     <use xlink:href="#DejaVuSans-65" transform="translate(138.525391 0)"/>
     <use xlink:href="#DejaVuSans-70" transform="translate(200.048828 0)"/>
     <use xlink:href="#DejaVuSans-53" transform="translate(263.525391 0)"/>
     <use xlink:href="#DejaVuSans-65" transform="translate(327.001953 0)"/>
     <use xlink:href="#DejaVuSans-65" transform="translate(388.525391 0)"/>
     <use xlink:href="#DejaVuSans-6b" transform="translate(450.048828 0)"/>
     <use xlink:href="#DejaVuSans-20" transform="translate(507.958984 0)"/>
     <use xlink:href="#DejaVuSans-56" transform="translate(539.746094 0)"/>
     <use xlink:href="#DejaVuSans-33" transform="translate(608.154297 0)"/>
    </g>
   </g>
   <g id="patch_17">
    <path d="M 796.573042 162.201683 
Q 795.805629 162.585389 795.838215 162.569096 
" style="fill: none; stroke: #808080; stroke-width: 0.8; stroke-linecap: round"/>
    <path d="M 800.310351 162.569096 
L 795.838215 162.569096 
L 798.521497 158.991387 
" style="fill: none; stroke: #808080; stroke-width: 0.8; stroke-linecap: round"/>
   </g>
   <g id="text_22">
    <g id="patch_18">
     <path d="M 773.038215 160.808159 
L 857.038215 160.808159 
Q 860.038215 160.808159 860.038215 157.808159 
L 860.038215 148.130034 
Q 860.038215 145.130034 857.038215 145.130034 
L 773.038215 145.130034 
Q 770.038215 145.130034 770.038215 148.130034 
L 770.038215 157.808159 
Q 770.038215 160.808159 773.038215 160.808159 
z
" style="fill: #ffffff; opacity: 0.8; stroke: #808080; stroke-linejoin: miter"/>
    </g>
    <!-- Gemini 1.5 Flash -->
    <g transform="translate(773.038215 155.728471) scale(0.1 -0.1)">
     <defs>
      <path id="DejaVuSans-47" d="M 3809 666 
L 3809 1919 
L 2778 1919 
L 2778 2438 
L 4434 2438 
L 4434 434 
Q 4069 175 3628 42 
Q 3188 -91 2688 -91 
Q 1594 -91 976 548 
Q 359 1188 359 2328 
Q 359 3472 976 4111 
Q 1594 4750 2688 4750 
Q 3144 4750 3555 4637 
Q 3966 4525 4313 4306 
L 4313 3634 
Q 3963 3931 3569 4081 
Q 3175 4231 2741 4231 
Q 1884 4231 1454 3753 
Q 1025 3275 1025 2328 
Q 1025 1384 1454 906 
Q 1884 428 2741 428 
Q 3075 428 3337 486 
Q 3600 544 3809 666 
z
" transform="scale(0.015625)"/>
      <path id="DejaVuSans-46" d="M 628 4666 
L 3309 4666 
L 3309 4134 
L 1259 4134 
L 1259 2759 
L 3109 2759 
L 3109 2228 
L 1259 2228 
L 1259 0 
L 628 0 
L 628 4666 
z
" transform="scale(0.015625)"/>
      <path id="DejaVuSans-68" d="M 3513 2113 
L 3513 0 
L 2938 0 
L 2938 2094 
Q 2938 2591 2744 2837 
Q 2550 3084 2163 3084 
Q 1697 3084 1428 2787 
Q 1159 2491 1159 1978 
L 1159 0 
L 581 0 
L 581 4863 
L 1159 4863 
L 1159 2956 
Q 1366 3272 1645 3428 
Q 1925 3584 2291 3584 
Q 2894 3584 3203 3211 
Q 3513 2838 3513 2113 
z
" transform="scale(0.015625)"/>
     </defs>
     <use xlink:href="#DejaVuSans-47"/>
     <use xlink:href="#DejaVuSans-65" transform="translate(77.490234 0)"/>
     <use xlink:href="#DejaVuSans-6d" transform="translate(139.013672 0)"/>
     <use xlink:href="#DejaVuSans-69" transform="translate(236.425781 0)"/>
     <use xlink:href="#DejaVuSans-6e" transform="translate(264.208984 0)"/>
     <use xlink:href="#DejaVuSans-69" transform="translate(327.587891 0)"/>
     <use xlink:href="#DejaVuSans-20" transform="translate(355.371094 0)"/>
     <use xlink:href="#DejaVuSans-31" transform="translate(387.158203 0)"/>
     <use xlink:href="#DejaVuSans-2e" transform="translate(450.78125 0)"/>
     <use xlink:href="#DejaVuSans-35" transform="translate(482.568359 0)"/>
     <use xlink:href="#DejaVuSans-20" transform="translate(546.191406 0)"/>
     <use xlink:href="#DejaVuSans-46" transform="translate(577.978516 0)"/>
     <use xlink:href="#DejaVuSans-6c" transform="translate(635.498047 0)"/>
     <use xlink:href="#DejaVuSans-61" transform="translate(663.28125 0)"/>
     <use xlink:href="#DejaVuSans-73" transform="translate(724.560547 0)"/>
     <use xlink:href="#DejaVuSans-68" transform="translate(776.660156 0)"/>
    </g>
   </g>
   <g id="patch_19">
    <path d="M 892.506944 384.654248 
Q 893.274358 385.037954 893.241771 385.021661 
" style="fill: none; stroke: #808080; stroke-width: 0.8; stroke-linecap: round"/>
    <path d="M 890.55849 381.443952 
L 893.241771 385.021661 
L 888.769635 385.021661 
" style="fill: none; stroke: #808080; stroke-width: 0.8; stroke-linecap: round"/>
   </g>
   <g id="text_23">
    <g id="patch_20">
     <path d="M 832.041771 383.260723 
L 916.041771 383.260723 
Q 919.041771 383.260723 919.041771 380.260723 
L 919.041771 370.582598 
Q 919.041771 367.582598 916.041771 367.582598 
L 832.041771 367.582598 
Q 829.041771 367.582598 829.041771 370.582598 
L 829.041771 380.260723 
Q 829.041771 383.260723 832.041771 383.260723 
z
" style="fill: #ffffff; opacity: 0.8; stroke: #808080; stroke-linejoin: miter"/>
    </g>
    <!-- Gemini 2.0 Flash -->
    <g transform="translate(832.041771 378.181036) scale(0.1 -0.1)">
     <use xlink:href="#DejaVuSans-47"/>
     <use xlink:href="#DejaVuSans-65" transform="translate(77.490234 0)"/>
     <use xlink:href="#DejaVuSans-6d" transform="translate(139.013672 0)"/>
     <use xlink:href="#DejaVuSans-69" transform="translate(236.425781 0)"/>
     <use xlink:href="#DejaVuSans-6e" transform="translate(264.208984 0)"/>
     <use xlink:href="#DejaVuSans-69" transform="translate(327.587891 0)"/>
     <use xlink:href="#DejaVuSans-20" transform="translate(355.371094 0)"/>
     <use xlink:href="#DejaVuSans-32" transform="translate(387.158203 0)"/>
     <use xlink:href="#DejaVuSans-2e" transform="translate(450.78125 0)"/>
     <use xlink:href="#DejaVuSans-30" transform="translate(482.568359 0)"/>
     <use xlink:href="#DejaVuSans-20" transform="translate(546.191406 0)"/>
     <use xlink:href="#DejaVuSans-46" transform="translate(577.978516 0)"/>
     <use xlink:href="#DejaVuSans-6c" transform="translate(635.498047 0)"/>
     <use xlink:href="#DejaVuSans-61" transform="translate(663.28125 0)"/>
     <use xlink:href="#DejaVuSans-73" transform="translate(724.560547 0)"/>
     <use xlink:href="#DejaVuSans-68" transform="translate(776.660156 0)"/>
    </g>
   </g>
   <g id="patch_21">
    <path d="M 783.56247 446.565307 
Q 783.784814 446.654244 783.176704 446.411 
" style="fill: none; stroke: #808080; stroke-width: 0.8; stroke-linecap: round"/>
    <path d="M 780.205579 443.068484 
L 783.176704 446.411 
L 778.720016 446.782391 
" style="fill: none; stroke: #808080; stroke-width: 0.8; stroke-linecap: round"/>
   </g>
   <g id="text_24">
    <g id="patch_22">
     <path d="M 718.862276 445.324292 
L 802.862276 445.324292 
Q 805.862276 445.324292 805.862276 442.324292 
L 805.862276 432.646167 
Q 805.862276 429.646167 802.862276 429.646167 
L 718.862276 429.646167 
Q 715.862276 429.646167 715.862276 432.646167 
L 715.862276 442.324292 
Q 715.862276 445.324292 718.862276 445.324292 
z
" style="fill: #ffffff; opacity: 0.8; stroke: #808080; stroke-linejoin: miter"/>
    </g>
    <!-- Gemini 2.5 Flash -->
    <g transform="translate(718.862276 440.244604) scale(0.1 -0.1)">
     <use xlink:href="#DejaVuSans-47"/>
     <use xlink:href="#DejaVuSans-65" transform="translate(77.490234 0)"/>
     <use xlink:href="#DejaVuSans-6d" transform="translate(139.013672 0)"/>
     <use xlink:href="#DejaVuSans-69" transform="translate(236.425781 0)"/>
     <use xlink:href="#DejaVuSans-6e" transform="translate(264.208984 0)"/>
     <use xlink:href="#DejaVuSans-69" transform="translate(327.587891 0)"/>
     <use xlink:href="#DejaVuSans-20" transform="translate(355.371094 0)"/>
     <use xlink:href="#DejaVuSans-32" transform="translate(387.158203 0)"/>
     <use xlink:href="#DejaVuSans-2e" transform="translate(450.78125 0)"/>
     <use xlink:href="#DejaVuSans-35" transform="translate(482.568359 0)"/>
     <use xlink:href="#DejaVuSans-20" transform="translate(546.191406 0)"/>
     <use xlink:href="#DejaVuSans-46" transform="translate(577.978516 0)"/>
     <use xlink:href="#DejaVuSans-6c" transform="translate(635.498047 0)"/>
     <use xlink:href="#DejaVuSans-61" transform="translate(663.28125 0)"/>
     <use xlink:href="#DejaVuSans-73" transform="translate(724.560547 0)"/>
     <use xlink:href="#DejaVuSans-68" transform="translate(776.660156 0)"/>
    </g>
   </g>
   <g id="patch_23">
    <path d="M 547.642262 297.444718 
Q 551.97772 296.206016 555.453165 295.213032 
" style="fill: none; stroke: #808080; stroke-width: 0.8; stroke-linecap: round"/>
    <path d="M 551.057627 294.388868 
L 555.453165 295.213032 
L 552.156511 298.234964 
" style="fill: none; stroke: #808080; stroke-width: 0.8; stroke-linecap: round"/>
   </g>
   <g id="text_25">
    <g id="patch_24">
     <path d="M 503.992401 312.257402 
L 542.476776 312.257402 
Q 545.476776 312.257402 545.476776 309.257402 
L 545.476776 299.579277 
Q 545.476776 296.579277 542.476776 296.579277 
L 503.992401 296.579277 
Q 500.992401 296.579277 500.992401 299.579277 
L 500.992401 309.257402 
Q 500.992401 312.257402 503.992401 312.257402 
z
" style="fill: #ffffff; opacity: 0.8; stroke: #808080; stroke-linejoin: miter"/>
    </g>
    <!-- GPT-3.5 -->
    <g transform="translate(503.992401 307.177714) scale(0.1 -0.1)">
     <defs>
      <path id="DejaVuSans-50" d="M 1259 4147 
L 1259 2394 
L 2053 2394 
Q 2494 2394 2734 2622 
Q 2975 2850 2975 3272 
Q 2975 3691 2734 3919 
Q 2494 4147 2053 4147 
L 1259 4147 
z
M 628 4666 
L 2053 4666 
Q 2838 4666 3239 4311 
Q 3641 3956 3641 3272 
Q 3641 2581 3239 2228 
Q 2838 1875 2053 1875 
L 1259 1875 
L 1259 0 
L 628 0 
L 628 4666 
z
" transform="scale(0.015625)"/>
      <path id="DejaVuSans-2d" d="M 313 2009 
L 1997 2009 
L 1997 1497 
L 313 1497 
L 313 2009 
z
" transform="scale(0.015625)"/>
     </defs>
     <use xlink:href="#DejaVuSans-47"/>
     <use xlink:href="#DejaVuSans-50" transform="translate(77.490234 0)"/>
     <use xlink:href="#DejaVuSans-54" transform="translate(137.792969 0)"/>
     <use xlink:href="#DejaVuSans-2d" transform="translate(189.751953 0)"/>
     <use xlink:href="#DejaVuSans-33" transform="translate(225.835938 0)"/>
     <use xlink:href="#DejaVuSans-2e" transform="translate(289.458984 0)"/>
     <use xlink:href="#DejaVuSans-35" transform="translate(321.246094 0)"/>
    </g>
   </g>
   <g id="patch_25">
    <path d="M 948.614463 461.624737 
Q 948.614463 455.29401 948.614463 449.85771 
" style="fill: none; stroke: #808080; stroke-width: 0.8; stroke-linecap: round"/>
    <path d="M 946.614463 453.85771 
L 948.614463 449.85771 
L 950.614463 453.85771 
" style="fill: none; stroke: #808080; stroke-width: 0.8; stroke-linecap: round"/>
   </g>
   <g id="text_26">
    <g id="patch_26">
     <path d="M 929.372275 479.801284 
L 967.85665 479.801284 
Q 970.85665 479.801284 970.85665 476.801284 
L 970.85665 467.123159 
Q 970.85665 464.123159 967.85665 464.123159 
L 929.372275 464.123159 
Q 926.372275 464.123159 926.372275 467.123159 
L 926.372275 476.801284 
Q 926.372275 479.801284 929.372275 479.801284 
z
" style="fill: #ffffff; opacity: 0.8; stroke: #808080; stroke-linejoin: miter"/>
    </g>
    <!-- GPT-4.1 -->
    <g transform="translate(929.372275 474.721597) scale(0.1 -0.1)">
     <use xlink:href="#DejaVuSans-47"/>
     <use xlink:href="#DejaVuSans-50" transform="translate(77.490234 0)"/>
     <use xlink:href="#DejaVuSans-54" transform="translate(137.792969 0)"/>
     <use xlink:href="#DejaVuSans-2d" transform="translate(189.751953 0)"/>
     <use xlink:href="#DejaVuSans-34" transform="translate(225.835938 0)"/>
     <use xlink:href="#DejaVuSans-2e" transform="translate(289.458984 0)"/>
     <use xlink:href="#DejaVuSans-31" transform="translate(321.246094 0)"/>
    </g>
   </g>
   <g id="patch_27">
    <path d="M 947.903194 338.161675 
Q 945.988805 340.076064 944.706871 341.357998 
" style="fill: none; stroke: #808080; stroke-width: 0.8; stroke-linecap: round"/>
    <path d="M 948.949512 339.943784 
L 944.706871 341.357998 
L 946.121085 337.115357 
" style="fill: none; stroke: #808080; stroke-width: 0.8; stroke-linecap: round"/>
   </g>
   <g id="text_27">
    <g id="patch_28">
     <path d="M 940.126901 336.24578 
L 975.189401 336.24578 
Q 978.189401 336.24578 978.189401 333.24578 
L 978.189401 323.567655 
Q 978.189401 320.567655 975.189401 320.567655 
L 940.126901 320.567655 
Q 937.126901 320.567655 937.126901 323.567655 
L 937.126901 333.24578 
Q 937.126901 336.24578 940.126901 336.24578 
z
" style="fill: #ffffff; opacity: 0.8; stroke: #808080; stroke-linejoin: miter"/>
    </g>
    <!-- GPT-4o -->
    <g transform="translate(940.126901 331.166092) scale(0.1 -0.1)">
     <use xlink:href="#DejaVuSans-47"/>
     <use xlink:href="#DejaVuSans-50" transform="translate(77.490234 0)"/>
     <use xlink:href="#DejaVuSans-54" transform="translate(137.792969 0)"/>
     <use xlink:href="#DejaVuSans-2d" transform="translate(189.751953 0)"/>
     <use xlink:href="#DejaVuSans-34" transform="translate(225.835938 0)"/>
     <use xlink:href="#DejaVuSans-6f" transform="translate(289.458984 0)"/>
    </g>
   </g>
   <g id="patch_29">
    <path d="M 925.480895 392.687313 
Q 926.593203 391.01885 927.209373 390.094596 
" style="fill: none; stroke: #808080; stroke-width: 0.8; stroke-linecap: round"/>
    <path d="M 923.326471 392.313396 
L 927.209373 390.094596 
L 926.654673 394.532197 
" style="fill: none; stroke: #808080; stroke-width: 0.8; stroke-linecap: round"/>
   </g>
   <g id="text_28">
    <g id="patch_30">
     <path d="M 904.341877 410.52709 
L 933.285627 410.52709 
Q 936.285627 410.52709 936.285627 407.52709 
L 936.285627 397.848965 
Q 936.285627 394.848965 933.285627 394.848965 
L 904.341877 394.848965 
Q 901.341877 394.848965 901.341877 397.848965 
L 901.341877 407.52709 
Q 901.341877 410.52709 904.341877 410.52709 
z
" style="fill: #ffffff; opacity: 0.8; stroke: #808080; stroke-linejoin: miter"/>
    </g>
    <!-- GPT-5 -->
    <g transform="translate(904.341877 405.447402) scale(0.1 -0.1)">
     <use xlink:href="#DejaVuSans-47"/>
     <use xlink:href="#DejaVuSans-50" transform="translate(77.490234 0)"/>
     <use xlink:href="#DejaVuSans-54" transform="translate(137.792969 0)"/>
     <use xlink:href="#DejaVuSans-2d" transform="translate(189.751953 0)"/>
     <use xlink:href="#DejaVuSans-35" transform="translate(225.835938 0)"/>
    </g>
   </g>
   <g id="patch_31">
    <path d="M 795.929117 299.055337 
Q 795.161703 299.439044 795.19429 299.422751 
" style="fill: none; stroke: #808080; stroke-width: 0.8; stroke-linecap: round"/>
    <path d="M 799.666426 299.422751 
L 795.19429 299.422751 
L 797.877571 295.845042 
" style="fill: none; stroke: #808080; stroke-width: 0.8; stroke-linecap: round"/>
   </g>
   <g id="text_29">
    <g id="patch_32">
     <path d="M 797.637259 297.661813 
L 831.151321 297.661813 
Q 834.151321 297.661813 834.151321 294.661813 
L 834.151321 284.983688 
Q 834.151321 281.983688 831.151321 281.983688 
L 797.637259 281.983688 
Q 794.637259 281.983688 794.637259 284.983688 
L 794.637259 294.661813 
Q 794.637259 297.661813 797.637259 297.661813 
z
" style="fill: #ffffff; opacity: 0.8; stroke: #808080; stroke-linejoin: miter"/>
    </g>
    <!-- Grok-3 -->
    <g transform="translate(797.637259 292.582126) scale(0.1 -0.1)">
     <use xlink:href="#DejaVuSans-47"/>
     <use xlink:href="#DejaVuSans-72" transform="translate(77.490234 0)"/>
     <use xlink:href="#DejaVuSans-6f" transform="translate(116.353516 0)"/>
     <use xlink:href="#DejaVuSans-6b" transform="translate(177.535156 0)"/>
     <use xlink:href="#DejaVuSans-2d" transform="translate(235.445312 0)"/>
     <use xlink:href="#DejaVuSans-33" transform="translate(271.529297 0)"/>
    </g>
   </g>
   <g id="patch_33">
    <path d="M 842.777765 423.525512 
Q 842.652745 423.650532 843.160181 423.143096 
" style="fill: none; stroke: #808080; stroke-width: 0.8; stroke-linecap: round"/>
    <path d="M 847.402822 421.728882 
L 843.160181 423.143096 
L 844.574395 418.900455 
" style="fill: none; stroke: #808080; stroke-width: 0.8; stroke-linecap: round"/>
   </g>
   <g id="text_30">
    <g id="patch_34">
     <path d="M 813.250382 421.614614 
L 891.80507 421.614614 
Q 894.80507 421.614614 894.80507 418.614614 
L 894.80507 408.936489 
Q 894.80507 405.936489 891.80507 405.936489 
L 813.250382 405.936489 
Q 810.250382 405.936489 810.250382 408.936489 
L 810.250382 418.614614 
Q 810.250382 421.614614 813.250382 421.614614 
z
" style="fill: #ffffff; opacity: 0.8; stroke: #808080; stroke-linejoin: miter"/>
    </g>
    <!-- Llama 3.1 405B -->
    <g transform="translate(813.250382 416.534926) scale(0.1 -0.1)">
     <defs>
      <path id="DejaVuSans-4c" d="M 628 4666 
L 1259 4666 
L 1259 531 
L 3531 531 
L 3531 0 
L 628 0 
L 628 4666 
z
" transform="scale(0.015625)"/>
      <path id="DejaVuSans-42" d="M 1259 2228 
L 1259 519 
L 2272 519 
Q 2781 519 3026 730 
Q 3272 941 3272 1375 
Q 3272 1813 3026 2020 
Q 2781 2228 2272 2228 
L 1259 2228 
z
M 1259 4147 
L 1259 2741 
L 2194 2741 
Q 2656 2741 2882 2914 
Q 3109 3088 3109 3444 
Q 3109 3797 2882 3972 
Q 2656 4147 2194 4147 
L 1259 4147 
z
M 628 4666 
L 2241 4666 
Q 2963 4666 3353 4366 
Q 3744 4066 3744 3513 
Q 3744 3084 3544 2831 
Q 3344 2578 2956 2516 
Q 3422 2416 3680 2098 
Q 3938 1781 3938 1306 
Q 3938 681 3513 340 
Q 3088 0 2303 0 
L 628 0 
L 628 4666 
z
" transform="scale(0.015625)"/>
     </defs>
     <use xlink:href="#DejaVuSans-4c"/>
     <use xlink:href="#DejaVuSans-6c" transform="translate(55.712891 0)"/>
     <use xlink:href="#DejaVuSans-61" transform="translate(83.496094 0)"/>
     <use xlink:href="#DejaVuSans-6d" transform="translate(144.775391 0)"/>
     <use xlink:href="#DejaVuSans-61" transform="translate(242.1875 0)"/>
     <use xlink:href="#DejaVuSans-20" transform="translate(303.466797 0)"/>
     <use xlink:href="#DejaVuSans-33" transform="translate(335.253906 0)"/>
     <use xlink:href="#DejaVuSans-2e" transform="translate(398.876953 0)"/>
     <use xlink:href="#DejaVuSans-31" transform="translate(430.664062 0)"/>
     <use xlink:href="#DejaVuSans-20" transform="translate(494.287109 0)"/>
     <use xlink:href="#DejaVuSans-34" transform="translate(526.074219 0)"/>
     <use xlink:href="#DejaVuSans-30" transform="translate(589.697266 0)"/>
     <use xlink:href="#DejaVuSans-35" transform="translate(653.320312 0)"/>
     <use xlink:href="#DejaVuSans-42" transform="translate(716.943359 0)"/>
    </g>
   </g>
   <g id="patch_35">
    <path d="M 910.228968 49.226408 
Q 910.103949 49.351428 910.611385 48.843992 
" style="fill: none; stroke: #808080; stroke-width: 0.8; stroke-linecap: round"/>
    <path d="M 914.854025 47.429778 
L 910.611385 48.843992 
L 912.025598 44.601351 
" style="fill: none; stroke: #808080; stroke-width: 0.8; stroke-linecap: round"/>
   </g>
   <g id="text_31">
    <g id="patch_36">
     <path d="M 883.882835 47.31551 
L 956.075023 47.31551 
Q 959.075023 47.31551 959.075023 44.31551 
L 959.075023 34.637385 
Q 959.075023 31.637385 956.075023 31.637385 
L 883.882835 31.637385 
Q 880.882835 31.637385 880.882835 34.637385 
L 880.882835 44.31551 
Q 880.882835 47.31551 883.882835 47.31551 
z
" style="fill: #ffffff; opacity: 0.8; stroke: #808080; stroke-linejoin: miter"/>
    </g>
    <!-- Llama 3.3 70B -->
    <g transform="translate(883.882835 42.235822) scale(0.1 -0.1)">
     <use xlink:href="#DejaVuSans-4c"/>
     <use xlink:href="#DejaVuSans-6c" transform="translate(55.712891 0)"/>
     <use xlink:href="#DejaVuSans-61" transform="translate(83.496094 0)"/>
     <use xlink:href="#DejaVuSans-6d" transform="translate(144.775391 0)"/>
     <use xlink:href="#DejaVuSans-61" transform="translate(242.1875 0)"/>
     <use xlink:href="#DejaVuSans-20" transform="translate(303.466797 0)"/>
     <use xlink:href="#DejaVuSans-33" transform="translate(335.253906 0)"/>
     <use xlink:href="#DejaVuSans-2e" transform="translate(398.876953 0)"/>
     <use xlink:href="#DejaVuSans-33" transform="translate(430.664062 0)"/>
     <use xlink:href="#DejaVuSans-20" transform="translate(494.287109 0)"/>
     <use xlink:href="#DejaVuSans-37" transform="translate(526.074219 0)"/>
     <use xlink:href="#DejaVuSans-30" transform="translate(589.697266 0)"/>
     <use xlink:href="#DejaVuSans-42" transform="translate(653.320312 0)"/>
    </g>
   </g>
   <g id="patch_37">
    <path d="M 791.335643 227.345087 
Q 791.335643 228.676479 791.335643 229.113445 
" style="fill: none; stroke: #808080; stroke-width: 0.8; stroke-linecap: round"/>
    <path d="M 793.335643 225.113445 
L 791.335643 229.113445 
L 789.335643 225.113445 
" style="fill: none; stroke: #808080; stroke-width: 0.8; stroke-linecap: round"/>
   </g>
   <g id="text_32">
    <g id="patch_38">
     <path d="M 747.299706 224.845162 
L 835.371581 224.845162 
Q 838.371581 224.845162 838.371581 221.845162 
L 838.371581 212.167037 
Q 838.371581 209.167037 835.371581 209.167037 
L 747.299706 209.167037 
Q 744.299706 209.167037 744.299706 212.167037 
L 744.299706 221.845162 
Q 744.299706 224.845162 747.299706 224.845162 
z
" style="fill: #ffffff; opacity: 0.8; stroke: #808080; stroke-linejoin: miter"/>
    </g>
    <!-- Llama 4 Maverick -->
    <g transform="translate(747.299706 219.765474) scale(0.1 -0.1)">
     <defs>
      <path id="DejaVuSans-76" d="M 191 3500 
L 800 3500 
L 1894 563 
L 2988 3500 
L 3597 3500 
L 2284 0 
L 1503 0 
L 191 3500 
z
" transform="scale(0.015625)"/>
     </defs>
     <use xlink:href="#DejaVuSans-4c"/>
     <use xlink:href="#DejaVuSans-6c" transform="translate(55.712891 0)"/>
     <use xlink:href="#DejaVuSans-61" transform="translate(83.496094 0)"/>
     <use xlink:href="#DejaVuSans-6d" transform="translate(144.775391 0)"/>
     <use xlink:href="#DejaVuSans-61" transform="translate(242.1875 0)"/>
     <use xlink:href="#DejaVuSans-20" transform="translate(303.466797 0)"/>
     <use xlink:href="#DejaVuSans-34" transform="translate(335.253906 0)"/>
     <use xlink:href="#DejaVuSans-20" transform="translate(398.876953 0)"/>
     <use xlink:href="#DejaVuSans-4d" transform="translate(430.664062 0)"/>
     <use xlink:href="#DejaVuSans-61" transform="translate(516.943359 0)"/>
     <use xlink:href="#DejaVuSans-76" transform="translate(578.222656 0)"/>
     <use xlink:href="#DejaVuSans-65" transform="translate(637.402344 0)"/>
     <use xlink:href="#DejaVuSans-72" transform="translate(698.925781 0)"/>
     <use xlink:href="#DejaVuSans-69" transform="translate(740.039062 0)"/>
     <use xlink:href="#DejaVuSans-63" transform="translate(767.822266 0)"/>
     <use xlink:href="#DejaVuSans-6b" transform="translate(822.802734 0)"/>
    </g>
   </g>
   <g id="patch_39">
    <path d="M 920.936166 355.251592 
Q 926.916398 358.839731 932.129664 361.967691 
" style="fill: none; stroke: #808080; stroke-width: 0.8; stroke-linecap: round"/>
    <path d="M 929.728684 358.194722 
L 932.129664 361.967691 
L 927.670701 361.624694 
" style="fill: none; stroke: #808080; stroke-width: 0.8; stroke-linecap: round"/>
   </g>
   <g id="text_33">
    <g id="patch_40">
     <path d="M 903.368457 356.294404 
L 915.849707 356.294404 
Q 918.849707 356.294404 918.849707 353.294404 
L 918.849707 343.616279 
Q 918.849707 340.616279 915.849707 340.616279 
L 903.368457 340.616279 
Q 900.368457 340.616279 900.368457 343.616279 
L 900.368457 353.294404 
Q 900.368457 356.294404 903.368457 356.294404 
z
" style="fill: #ffffff; opacity: 0.8; stroke: #808080; stroke-linejoin: miter"/>
    </g>
    <!-- o1 -->
    <g transform="translate(903.368457 351.214717) scale(0.1 -0.1)">
     <use xlink:href="#DejaVuSans-6f"/>
     <use xlink:href="#DejaVuSans-31" transform="translate(61.181641 0)"/>
    </g>
   </g>
   <g id="patch_41">
    <path d="M 116.912671 579.381776 
Q 116.787651 579.506796 117.295087 578.99936 
" style="fill: none; stroke: #808080; stroke-width: 0.8; stroke-linecap: round"/>
    <path d="M 121.537728 577.585146 
L 117.295087 578.99936 
L 118.709301 574.756719 
" style="fill: none; stroke: #808080; stroke-width: 0.8; stroke-linecap: round"/>
   </g>
   <g id="text_34">
    <g id="patch_42">
     <path d="M 107.800913 577.470878 
L 145.52435 577.470878 
Q 148.52435 577.470878 148.52435 574.470878 
L 148.52435 564.792753 
Q 148.52435 561.792753 145.52435 561.792753 
L 107.800913 561.792753 
Q 104.800913 561.792753 104.800913 564.792753 
L 104.800913 574.470878 
Q 104.800913 577.470878 107.800913 577.470878 
z
" style="fill: #ffffff; opacity: 0.8; stroke: #808080; stroke-linejoin: miter"/>
    </g>
    <!-- o3-mini -->
    <g transform="translate(107.800913 572.391191) scale(0.1 -0.1)">
     <use xlink:href="#DejaVuSans-6f"/>
     <use xlink:href="#DejaVuSans-33" transform="translate(61.181641 0)"/>
     <use xlink:href="#DejaVuSans-2d" transform="translate(124.804688 0)"/>
     <use xlink:href="#DejaVuSans-6d" transform="translate(160.888672 0)"/>
     <use xlink:href="#DejaVuSans-69" transform="translate(258.300781 0)"/>
     <use xlink:href="#DejaVuSans-6e" transform="translate(286.083984 0)"/>
     <use xlink:href="#DejaVuSans-69" transform="translate(349.462891 0)"/>
    </g>
   </g>
  </g>
 </g>
 <defs>
  <clipPath id="p2ec092d94e">
   <rect x="42.53875" y="7.2" width="950.74" height="665.44"/>
  </clipPath>
 </defs>
</svg>
